name: MSX Kanji ROM Fullwidth Kanji
spacing: character-cell
raster-size: 16 16
converter: monobit v0.22
source-name: KANJI.rom
source-format: binary
source-url: http://bluemsx.msxblue.com/


# 0x400
0x30, 0x20:
    ................
    ................
    ................
    ................
    .....@@@@@......
    .....@..........
    .....@..........
    .....@@@@.......
    .........@......
    .........@......
    .....@...@......
    ......@@@.......
    ................
    ................
    ................
    ................


# 0x401
0x30, 0x21:
    ................
    .@@@@@@@@@@@@@..
    .....@...@......
    .....@...@......
    .....@...@......
    ..@@@@@@@@@@@...
    ..@..@...@..@...
    ..@..@...@..@...
    ..@..@...@..@...
    ..@..@...@..@...
    ..@@@@@@@@@@@...
    .....@...@......
    .....@...@......
    .....@...@......
    .....@...@......
    @@@@@@@@@@@@@@@.


# 0x402
0x30, 0x22:
    ................
    ....@@@@@@@@@@@.
    @@@@...@..@.....
    @..@...@..@.....
    @..@...@..@.....
    @..@.@@@@@@@@@..
    @..@.@.@..@..@..
    @..@.@.@..@..@..
    @..@.@.@..@..@..
    @..@.@.@..@..@..
    @..@.@@@@@@@@@..
    @@@@...@..@.....
    @......@..@.....
    .......@..@.....
    .......@..@.....
    ...@@@@@@@@@@@@.


# 0x403
0x30, 0x23:
    ..@.......@.....
    ..@.......@.....
    ..@....@@@@@@@..
    @@@@@.....@.....
    .@..@.....@.....
    .@..@.....@.....
    .@..@.@@@@@@@@@.
    .@..@.....@.....
    .@..@.....@.....
    .@..@..@@@@@@@..
    @.@.@.....@.....
    ...@......@.....
    ...@@.....@.....
    ..@..@....@.....
    .@....@@@@@@@@@.
    @...............


# 0x404
0x30, 0x24:
    ................
    .@@@@.@@@@@@@@@.
    .@..@.......@...
    .@..@.......@...
    .@..@.@@@@@.@...
    .@.@..@...@.@...
    .@..@.@...@.@...
    .@..@.@...@.@...
    .@..@.@...@.@...
    .@..@.@...@.@...
    .@..@.@@@@@.@...
    .@..@.......@...
    .@@@........@...
    .@..........@...
    .@..........@...
    .@........@@@...


# 0x405
0x30, 0x25:
    .......@........
    .......@........
    @@@@@@@@@@@@@@@.
    ................
    ................
    ..@@@@@@@@@@@...
    ..@.........@...
    ..@.........@...
    ..@.........@...
    ..@@@@@@@@@@@...
    ....@...@.....@.
    ...@@....@...@..
    ..@.@.....@.@...
    @@..@...@@.@....
    ....@.@@....@...
    ..@@@@.......@@.


# 0x406
0x30, 0x26:
    ..........@@@@..
    .@@@@@@@@@......
    ..@...@....@....
    ...@...@..@.....
    @@@@@@@@@@@@@@@.
    @.............@.
    @.@.@..@@.....@.
    ..@.@.....@.@...
    .@..@@@@@@@..@..
    @.....@.......@.
    .....@@@@@@@....
    ....@.....@.....
    ..@@.@@..@......
    .......@@.......
    .....@@..@@.....
    ..@@@......@@@..


# 0x407
0x30, 0x27:
    ..@......@......
    ..@......@..@...
    ..@.....@....@..
    @@@@@.@@@@@@@@..
    ..@...........@.
    ..@.....@.......
    ..@.....@@@@@@..
    ..@....@..@.....
    ..@@@.@...@.....
    @@@.......@.....
    ..@..@@@@@@@@@@.
    ..@.......@.....
    ..@......@.@....
    ..@.....@...@...
    ..@....@.....@..
    .@@..@@.......@.


# 0x408
0x30, 0x28:
    ..@.......@.....
    ..@......@.@....
    ..@.....@...@...
    @@@@@..@.....@..
    .@..@.@.......@.
    .@..@...........
    .@..@..@@@@@@@..
    .@..@...........
    .@..@...........
    .@..@..@@@@@@@..
    @.@.@..@.....@..
    ...@...@.....@..
    ...@@..@.....@..
    ..@..@.@.....@..
    .@.....@@@@@@@..
    @......@.....@..


# 0x409
0x30, 0x29:
    ........@.......
    @......@@@@@....
    .@....@....@....
    ..@..@.@..@.....
    ....@...@@......
    ......@@..@@....
    ....@@......@@@.
    @@@......@......
    ..@..@@@@@@@@@..
    ..@......@......
    ..@..@@@@@@@@@..
    ..@......@......
    ..@.@@@@@@@@@@@.
    ..@......@......
    .@.@............
    @...@@@@@@@@@@@.


# 0x40a
0x30, 0x2a:
    ....@.....@.....
    @@@@@@@@@@@@@@@.
    ....@.....@.....
    ..@@@@@.@.@.....
    ......@.@...@...
    .@...@...@.@..@.
    ..@.@.....@..@..
    ...@.......@@...
    ..@.@@@@@@@..@@.
    @......@........
    .......@........
    ..@@@@@@@@@@@...
    ......@.@.......
    .....@...@......
    ...@@.....@@....
    .@@.........@@..


# 0x40b
0x30, 0x2b:
    ....@.....@.....
    @@@@@@@@@@@@@@@.
    ....@.....@.....
    ................
    @@@@@@@@@@@@@@@.
    .....@..@.......
    .....@..@.......
    .@@@@@@@@@@@@@..
    .@...@..@....@..
    .@..@...@..@.@..
    .@..@...@..@.@..
    .@.@....@@@@.@..
    .@@..........@..
    .@...........@..
    .@@@@@@@@@@@@@..
    .@...........@..


# 0x40c
0x30, 0x2c:
    ...@@...@.......
    @@@....@@@@@....
    ..@...@...@.....
    ..@..@@@@@@@@@..
    ..@...@...@..@..
    @@@@@.@@@@@@@@..
    ..@...@...@..@..
    ..@...@@@@@@@@..
    .@@@......@.....
    .@@.@.@@@@@@@@@.
    @.@...@...@...@.
    @.@...@@@@@@@@@.
    ..@...@...@...@.
    ..@...@@@@@@@@@.
    ..@.......@...@.
    ..@.......@@@@@.


# 0x40d
0x30, 0x2d:
    ................
    .@@@@@@@@@@@@@..
    .....@...@......
    ..@@@@@@@@@@@...
    ..@..@...@..@...
    ..@..@...@..@...
    ..@..@...@..@...
    ..@@@@@@@@@@@...
    .....@...@......
    @@@@@@@@@@@@@@@.
    ................
    .@..@.@.....@...
    .@..@..@.....@..
    .@..@...@.....@.
    @...@......@..@.
    .....@@@@@@@....


# 0x40e
0x30, 0x2e:
    ..@.............
    ..@...@@@@@@@@@.
    ..@...@.......@.
    @@@@@.@.......@.
    ..@...@@@@@@@@@.
    ..@...@.........
    ..@...@@@@@@@@@.
    ..@...@...@.....
    ..@@@.@..@...@..
    @@@...@.@@@@@@@.
    ..@...@...@...@.
    ..@...@...@.....
    ..@..@..@@@@@@..
    ..@..@....@.....
    ..@..@....@.....
    .@@.@..@@@@@@@@.


# 0x40f
0x30, 0x2f:
    ................
    @....@@@@@@@@@@.
    .@...@........@.
    ..@..@........@.
    .....@@@@@@@@@@.
    @....@..........
    .@...@@@@@@@@@@.
    ..@..@...@......
    .....@..@...@...
    .....@.@@@@@@@..
    ..@..@....@...@.
    ..@.@.....@.....
    .@..@..@@@@@@@..
    .@..@.....@.....
    @..@......@.....
    @..@..@@@@@@@@@.


# 0x410
0x30, 0x30:
    ..@.............
    ..@.....@@@@@...
    ..@.....@...@...
    ..@.....@...@...
    @@@@@@..@...@...
    ..@..@..@...@...
    ..@..@..@@@@@...
    ..@..@..@...@...
    ..@..@..@...@...
    ..@..@..@...@...
    ..@..@..@...@...
    ..@..@..@...@...
    ..@..@..@@@@@...
    .@...@........@.
    .@...@........@.
    @.....@@@@@@@@@.


# 0x411
0x30, 0x31:
    ....@.....@.....
    @@@@@@@@@@@@@@@.
    ....@.....@.....
    ......@.........
    ..@@@@@@@@@@@...
    ......@.....@...
    @@@@@@@@@@@@@@@.
    ................
    ..@@@@@@@@@@@...
    ..@.........@...
    ..@@@@@@@@@@@...
    ........@.......
    ..@@@@@@@@@@@@..
    ..@.....@.......
    @@@@@@@@@@@@@@@.
    ........@.......


# 0x412
0x30, 0x32:
    ....@.....@.....
    ....@.....@.....
    @@@@@@@@@@@@@@@.
    ....@.....@.....
    ................
    .@@@@@@@@@@@@@..
    ................
    ..@@@@@@@@@@@...
    ..@.........@...
    ..@.........@...
    ..@@@@@@@@@@@...
    ..@.........@...
    ..@.............
    .@..............
    .@..............
    @...............


# 0x413
0x30, 0x33:
    ..@......@......
    ..@@@@..@...@...
    .@..@..@@@@@@@..
    @..@......@...@.
    .@@@@@....@.....
    .@.@.@.@@@@@@@@.
    .@.@.@...@.@....
    .@@@@@..@...@...
    .@.@.@.@.....@..
    .@.@.@@...@...@.
    .@@@@@...@..@...
    ........@..@..@.
    @.@.@.@...@..@..
    @.@.@.@..@..@...
    @.@.@......@....
    ........@@@.....


# 0x414
0x30, 0x34:
    ..@......@......
    ..@......@......
    ..@..@@@@@@@@@..
    @@@@@.@.....@...
    ..@....@....@...
    ..@....@....@...
    .@@@...@...@....
    .@@.@@@@@@@@@@@.
    @.@..@...@......
    @.@......@......
    @.@......@......
    ..@..@@@@@@@@@@.
    ..@......@......
    ..@......@......
    ..@......@......
    ..@......@......


# 0x415
0x30, 0x35:
    ................
    ..@@@@@@@@@@@@..
    ..@.............
    ..@.....@.......
    ..@.....@.......
    ..@.....@.......
    ..@.....@.......
    ..@.@@@@@@@@@@..
    ..@.....@.......
    ..@.....@.......
    ..@.....@.......
    ..@.....@.......
    .@......@.......
    .@......@.......
    .@.@@@@@@@@@@@@.
    @...............


# 0x416
0x30, 0x36:
    ...@......@.....
    ...@......@@....
    @@@@@@@..@..@...
    ...@....@....@..
    .@@@@@.@......@.
    .@...@..@...@...
    .@...@...@..@...
    .@@@@@....@.@...
    .@...@.@....@...
    .@...@..@...@...
    .@@@@@...@..@...
    ...@........@@@.
    @@@@@@@...@@@...
    ...@....@@..@...
    ...@........@...
    ...@........@...


# 0x417
0x30, 0x37:
    ..@.............
    ..@..@@@@@@@....
    ..@....@...@....
    @@@@@..@...@....
    ..@....@..@.....
    ..@....@..@@@@@.
    ..@....@..@...@.
    ..@.@..@......@.
    ..@@...@@....@..
    @@@...@..@...@..
    ..@...@..@..@...
    ..@...@...@.@...
    ..@...@....@....
    ..@..@....@.@...
    ..@..@...@...@..
    @@@.@..@@.....@.


# 0x418
0x30, 0x38:
    .......@........
    .......@........
    @@@@@@@@@@@@@@@.
    @..@..........@.
    @..@..........@.
    ...@@@@.@@@@@...
    ..@...@.@...@...
    ..@...@.@...@...
    .@....@.@...@...
    .@@..@..@...@...
    @..@.@..@.@@@...
    ....@...@.......
    ....@...@.......
    ...@....@.....@.
    ..@.....@.....@.
    .@.......@@@@@@.


# 0x419
0x30, 0x39:
    ..@.............
    ..@....@@@@@@...
    ..@....@....@...
    @@@@@..@....@...
    .@..@..@....@...
    .@..@..@@@@@@...
    .@..@..@....@...
    .@..@..@....@...
    .@..@..@....@...
    .@..@..@....@...
    @.@.@..@@@@@@...
    ...@...@....@...
    ...@@..@....@...
    ..@..@.@....@...
    .@.....@....@...
    @...@@@@@@@@@@@.


# 0x41a
0x30, 0x3a:
    ...@.......@....
    ...@.......@....
    ...@.......@....
    @@@@@@@.@@@@@@@.
    @..@..@.@.......
    @..@..@.@.......
    @..@..@.@.......
    @..@..@.@.......
    @@@@@@@.@.......
    ...@....@.......
    ...@....@.......
    ...@..@.@.......
    ...@@@@.@.......
    ..@@..@..@......
    @@....@...@@@@@.
    ................


# 0x41b
0x30, 0x3b:
    ...@......@.....
    ..@.@.....@.....
    ..@..@....@.....
    .@.@..@..@..@...
    @..@.....@...@..
    .@@@@@..@.....@.
    .@...@..@..@@@@.
    .@@@@@.@@@@...@.
    .@...@..........
    .@...@..@@@@@@..
    .@@@@@..@....@..
    .@......@....@..
    .@..@...@....@..
    .@..@@..@....@..
    .@@@..@.@@@@@@..
    @@......@....@..


# 0x41c
0x30, 0x3c:
    ....@...@.......
    ...@....@.......
    ..@.....@@@@@@@.
    .@...@.@......@.
    ..@.@..@......@.
    ...@..@.@@@@..@.
    ..@..@..@..@..@.
    @@@@@@@.@..@..@.
    ...@..@.@@@@..@.
    ...@....@..@..@.
    .@.@.@..@..@..@.
    .@.@..@.@..@..@.
    .@.@..@.@@@@..@.
    @..@..@.......@.
    ...@.........@..
    ...@.......@@...


# 0x41d
0x30, 0x3d:
    ...@......@.....
    ..@....@@@@@@@..
    .@........@.....
    @...@.....@.....
    .@.@..@@@@@@@@@.
    ..@.....@..@....
    .@..@..@...@..@.
    @@@@@.@.....@@@.
    ..@..@..@.......
    ..@.....@@@@@@..
    @.@.@..@....@...
    @.@.@.@.@...@...
    @.@..@...@.@....
    @.@.......@.....
    ..@.....@@.@@...
    ..@..@@@.....@@.


# 0x41e
0x30, 0x3e:
    ..@.......@.....
    ..@@@@....@.....
    .@..@.....@.....
    @..@......@@@@@.
    @@@@@@@...@.....
    @..@..@...@.....
    @..@..@...@.....
    @@@@@@@.@@@@@@..
    @..@..@.@....@..
    @..@..@.@....@..
    @@@@@@@.@....@..
    ........@....@..
    ....@.@.@....@..
    @.@.@.@.@....@..
    @.@.@.@.@@@@@@..
    @.@.....@....@..


# 0x41f
0x30, 0x3f:
    ........@..@....
    ........@...@...
    ........@.......
    @@@@@@@@@@@@@@..
    ........@.......
    ..@@@@@.@...@...
    ..@...@.@...@...
    ..@...@.@...@...
    ..@...@..@..@...
    ..@...@..@.@....
    ..@@@@@..@.@....
    ..........@.....
    .....@@..@.@....
    @@@@@...@...@.@.
    ......@@.....@@.
    ....@@........@.


# 0x420
0x30, 0x40:
    ................
    @@@@@@@@@@@@@@@.
    .....@...@......
    ..@@@@@@@@@@@...
    ..@..@...@..@...
    ..@..@...@..@...
    ..@@@@@@@@@@@...
    ...@...@...@....
    ....@..@..@.....
    .....@.@.@......
    @@@@@@@@@@@@@@@.
    .....@.@.@......
    ....@..@..@.....
    ...@...@...@....
    ..@....@....@...
    .@.....@.....@..


# 0x421
0x30, 0x41:
    ..@.......@.....
    ..@......@.@....
    ..@.....@...@...
    @@@@@..@.....@..
    ....@.@.......@.
    ....@..@@@@@@@..
    ...@............
    ..@..@..........
    .@@.@..@@@@@@@..
    @.@@...@.....@..
    ..@.@..@.....@..
    ..@..@.@.....@..
    ..@....@.....@..
    ..@....@.....@..
    ..@....@@@@@@@..
    ..@....@.....@..


# 0x422
0x30, 0x42:
    .......@........
    .......@........
    .@@@@@@@@@@@@@..
    .@...........@..
    .@....@......@..
    .@....@......@..
    .....@..........
    @@@@@@@@@@@@@@@.
    ....@......@....
    ....@......@....
    ...@......@.....
    ..@@@@@..@......
    ..@....@@.......
    ......@@.@@.....
    ....@@.....@@...
    .@@@.........@..


# 0x423
0x30, 0x43:
    .......@........
    .@@@@@@@@@@@@@@.
    .@..............
    .@......@.......
    .@.@@@@@@@@@@@..
    .@.....@..@.....
    .@....@....@....
    .@..@@..@...@...
    .@@@....@....@@.
    .@..@@@@@@@@@...
    .@..@...@...@...
    .@..@@@@@@@@@...
    .@..@...@...@...
    .@..@@@@@@@@@...
    .@......@.....@.
    @.......@@@@@@@.


# 0x424
0x30, 0x44:
    ..@.......@.....
    ..@.......@.....
    ..@...@@@@@@@@@.
    @@@@@.@.......@.
    ..@...@..@....@.
    ..@......@......
    ..@..@@@@@@@@@@.
    ..@.....@...@...
    ..@@@..@....@...
    @@@....@....@...
    ..@...@....@....
    ..@...@@@..@....
    ..@......@@.....
    ..@......@.@....
    ..@....@@...@...
    .@@..@@......@..


# 0x425
0x30, 0x45:
    ..........@.....
    .@@@@.....@.....
    .@..@.@@@@@@@@..
    .@..@..@....@...
    .@..@...@...@...
    .@..@...@..@....
    .@..@@@@@@@@@@@.
    .@@@@...........
    .@..@..@@@@@@...
    .@..@..@....@...
    .@..@..@....@...
    .@..@..@@@@@@...
    .@..@..@....@...
    .@@@@..@....@...
    .@.....@@@@@@...
    .......@....@...


# 0x426
0x30, 0x46:
    .......@........
    .@@@@@@@@@@@@@..
    .@...........@..
    ......@.........
    .@@@@@@@@@@@@@..
    ....@.....@.....
    ...@@@...@......
    ......@@@.......
    ....@@...@@@....
    .@@@...@....@...
    .......@........
    @@@@@@@@@@@@@@@.
    .....@.@.@......
    ....@..@..@.....
    ..@@...@...@@...
    @@.....@.....@@.


# 0x427
0x30, 0x47:
    .@@@@@@.@@@@@@..
    .@....@.@....@..
    .@@@@@@.@@@@@@..
    .@....@.@....@..
    .@@@@@@.@@@@@@..
    .@.....@.....@..
    .@..@@@@@@@..@..
    .@...@...@...@..
    .@.@@@@@@@@@.@..
    .@...........@..
    .@..@@@@@@@..@..
    .@..@.....@..@..
    .@..@@@@@@@..@..
    .@..@.....@..@..
    .@..@@@@@@@..@..
    .@..........@@..


# 0x428
0x30, 0x48:
    ..@.@.....@.....
    @@@@@@@...@.....
    ..@.@..@@@@@@@@.
    ..@.@..@......@.
    ..@@@..@..@...@.
    ...@......@.....
    .@@@@@....@.....
    .@.@.@.@@@@@@@@.
    .@.@.@...@..@...
    .@@@@@...@..@...
    ...@....@...@...
    ...@....@@.@....
    @@@@@@....@@....
    ...@......@.@...
    ...@.....@...@..
    ...@...@@.....@.


# 0x429
0x30, 0x49:
    .......@........
    .......@........
    .@@@@@@@@@@@@@..
    .......@........
    ......@@@.......
    .....@.@.@......
    ....@..@..@.....
    ..@@...@...@@...
    @@.....@.....@@.
    ...@@@@@@@@@....
    ...@.......@....
    ...@.......@....
    ...@.......@....
    ...@.......@....
    ...@@@@@@@@@....
    ...@.......@....


# 0x42a
0x30, 0x4a:
    ................
    ..@...@.....@...
    ..@....@....@...
    ..@....@....@...
    ..@.....@...@...
    ..@.....@...@...
    ..@........@....
    ..@........@....
    ..@........@....
    ..@.......@.....
    ..@....@..@.....
    ..@..@@..@.@....
    ..@@@...@...@...
    @@.....@.....@..
    ......@.......@.
    .....@........@.


# 0x42b
0x30, 0x4b:
    ....@...........
    ....@.@@@@@@@@..
    ...@.....@...@..
    ...@.....@...@..
    ..@......@...@..
    ..@..@@@@@@@@@@.
    .@@......@...@..
    @.@......@...@..
    ..@......@...@..
    ..@...@@@@@@@@..
    ..@......@......
    ..@......@......
    ..@.....@.......
    ..@.....@.......
    ..@....@........
    ..@...@.........


# 0x42c
0x30, 0x4c:
    ....@....@......
    ....@....@......
    ...@.....@......
    ...@.@@@@@@@@@..
    ..@.............
    ..@.............
    .@@..@......@...
    @.@...@.....@...
    ..@...@.....@...
    ..@...@....@....
    ..@....@...@....
    ..@....@...@....
    ..@....@..@.....
    ..@.......@.....
    ..@.@@@@@@@@@@@.
    ..@.............


# 0x42d
0x30, 0x4d:
    ...@.....@......
    ...@.....@......
    ...@.....@......
    ..@.@@@@@@@@@@@.
    ..@.....@.......
    .@......@.......
    .@@....@..@..@..
    @.@...@...@.@...
    ..@..@@...@@....
    ..@.@.@...@.....
    ..@...@....@....
    ..@...@....@....
    ..@...@.....@...
    ..@...@..@..@...
    ..@...@@@....@..
    ..@.@@........@.


# 0x42e
0x30, 0x4e:
    ...@....@.......
    ...@..@@@@@@@...
    ...@....@...@...
    ..@.....@...@...
    ..@.@@@@@@@@@@@.
    .@..............
    .@@...@@@@@@@...
    @.@...@.....@...
    ..@...@.....@...
    ..@...@@@@@@@...
    ..@.......@.....
    ..@...@@@@@@@@..
    ..@...@...@.....
    ..@.@@@@@@@@@@@.
    ..@.......@.....
    ..@.......@.....


# 0x42f
0x30, 0x4f:
    ................
    .@@@@@@@@@@@@@..
    .@...@...@...@..
    .@...@...@...@..
    .@...@...@...@..
    .@.@@@@@@@@@.@..
    .@...@...@...@..
    .@...@...@...@..
    .@...@...@...@..
    .@.@@@@@@@@@.@..
    .@...@...@...@..
    .@...@...@...@..
    .@..@....@...@..
    .@.@.....@...@..
    .@@@@@@@@@@@@@..
    .@...........@..


# 0x430
0x30, 0x50:
    .......@........
    .......@........
    @@@@@@@@@@@@@@@.
    .......@........
    ..@@@@@@@@@@@...
    .......@....@...
    .......@....@...
    ..@@@@@@@@@@@...
    ..@....@........
    ..@....@........
    ..@@@@@@@@@@@@@.
    .......@......@.
    ......@.@...@@..
    .....@...@......
    ...@@.....@@....
    @@@.........@@@.


# 0x431
0x30, 0x51:
    ..........@@@...
    ..@@@@@@@@......
    .......@........
    @@@@@@@@@@@@@@@.
    ......@@@.......
    .....@.@.@......
    ...@@..@..@@....
    @@@....@....@@@.
    ......@.........
    @@@@@@@@@@@@@@@.
    .....@.....@....
    ....@.....@.....
    ...@@@@@.@......
    ........@@......
    ......@@..@@....
    .@@@@@......@...


# 0x432
0x30, 0x52:
    .........@..@...
    .........@...@..
    .........@......
    .@@@@@@@@@@@@@@.
    .@.......@......
    .@.......@...@..
    .@@@@@@@.@...@..
    .@..@....@...@..
    .@@@@@@@@.@.@...
    .@..@..@..@.@...
    .@..@..@...@....
    .@.@...@...@....
    .@..@.@...@.@.@.
    .@...@...@..@.@.
    .@..@.@.@....@@.
    @..@...@......@.


# 0x433
0x30, 0x53:
    ............@...
    .@@@@@@@....@...
    .@.....@....@...
    .@.....@....@...
    .@@@@@@@.@@@@@@.
    .@..........@...
    .@..........@...
    .@.@@@@..@..@...
    .@........@.@...
    .@@@@@@@@.@.@...
    .@...@....@.@...
    .@.@.@.@....@...
    .@.@.@..@...@...
    .@.@.@..@...@...
    @.@..@......@...
    @...@@.....@@...


# 0x434
0x30, 0x54:
    ..@.....@...@...
    ..@.....@...@...
    ..@....@...@....
    ..@....@@@@@@@@.
    @.@.@.@@...@....
    @.@.@.@@...@....
    @.@..@.@...@....
    @.@.@..@@@@@@@..
    ..@....@...@....
    ..@....@...@....
    ..@....@...@....
    ..@....@@@@@@@..
    ..@....@...@....
    ..@....@...@....
    ..@....@...@....
    ..@....@@@@@@@@.


# 0x435
0x30, 0x55:
    .......@........
    ..@@@@@@@@@@@...
    ....@.....@.....
    .....@...@......
    @@@@@@@@@@@@@@@.
    ................
    ..@@@@@@@@@@@...
    ..@.........@...
    ..@@@@@@@@@@@...
    ..@.........@...
    ..@@@@@@@@@@@...
    ................
    ..@.@..@....@...
    ..@.@...@.@..@..
    .@..@.....@...@.
    @....@@@@@@...@.


# 0x436
0x30, 0x56:
    .@@@@@@@.....@..
    .@.....@.....@..
    .@@@@@@@.....@..
    .@.......@@@@@@.
    .@.@@@@@.....@..
    .@........@..@..
    .@@@@@@@@..@.@..
    .@...@.....@.@..
    .@.@.@.@.....@..
    @.@..@..@....@..
    ....@@......@@..
    ................
    ..@.@..@...@....
    ..@.@...@...@...
    .@..@.....@..@..
    @....@@@@@@..@..


# 0x437
0x30, 0x57:
    ..@@@@@@@@@@@...
    ..@.........@...
    ..@.........@...
    ..@@@@@@@@@@@...
    ..@.........@...
    ..@.........@...
    ..@@@@@@@@@@@...
    .....@..........
    .....@..........
    ....@@@@@@@@@@@.
    ..@@...@...@..@.
    @@....@....@..@.
    .....@....@...@.
    ...@@...@@....@.
    .@@...@@......@.
    ...........@@@..


# 0x438
0x30, 0x58:
    ...@......@.....
    ...@......@.....
    ...@..@@@@@@@@..
    @@@@@.....@.....
    ...@.....@.@....
    ...@@...@...@...
    ..@@.@.@.....@..
    ..@@..@@@@@@@@@.
    .@.@........@...
    .@.@..@@@@..@...
    @..@..@..@..@...
    @..@..@..@..@...
    ...@..@@@@..@...
    ...@........@...
    ...@........@...
    ...@......@@@...


# 0x439
0x30, 0x59:
    ..@.....@.......
    ...@....@.......
    ....@..@........
    .@@@@@@@@@@@....
    ......@....@....
    .....@.....@....
    .....@@@@@@@@...
    ....@.......@...
    ....@.......@...
    ...@........@...
    ..@@@@@@@@@@@@@.
    .@........@...@.
    .......@...@..@.
    ..@..@..@..@..@.
    .@...@..@....@..
    @...@......@@...


# 0x43a
0x30, 0x5a:
    ................
    ..@@@@@@@@@@@...
    ..@....@....@...
    ..@....@....@...
    ..@@@@@@@@@@@...
    ..@....@....@...
    ..@....@....@...
    ..@@@@@@@@@@@...
    ................
    @@@@@@@@@@@@@@@.
    ...@....@.......
    ...@....@...@...
    ...@.....@.@....
    ...@..@@..@.....
    ...@@@.....@@...
    .@@..........@@.


# 0x43b
0x30, 0x5b:
    ................
    ..@@@@@@@@@@@...
    ..@....@....@...
    ..@....@....@...
    ..@@@@@@@@@@@...
    ..@....@....@...
    ..@....@....@...
    ..@@@@@@@@@@@...
    ....@.....@.....
    .@@@@@@@@@@@@@..
    ....@.....@.....
    ....@.....@.....
    @@@@@@@@@@@@@@@.
    .....@...@......
    ...@@.....@@....
    .@@.........@@..


# 0x43c
0x30, 0x5c:
    ....@....@......
    ..@@....@@@@@@..
    @@.@...@.....@..
    ...@..@.@...@...
    ...@.....@.@....
    @@@@@@....@.....
    ...@.....@......
    ...@@..@@.@.....
    ..@@.@...@@@@@@.
    ..@@..@.@.....@.
    .@.@...@@.....@.
    .@.@..@..@...@..
    @..@......@.@...
    ...@.......@....
    ...@.....@@.....
    ...@..@@@.......


# 0x43d
0x30, 0x5d:
    ....@....@..@...
    ...@.....@..@...
    ..@.....@..@....
    .@...@..@@@@@@@.
    ..@.@..@@..@....
    ...@..@.@..@....
    ..@..@..@..@....
    @@@@@@@.@@@@@@..
    ...@..@.@..@....
    ...@....@..@....
    .@.@.@..@..@....
    .@.@..@.@@@@@@..
    .@.@..@.@..@....
    @..@..@.@..@....
    ...@....@..@....
    ...@....@@@@@@@.


# 0x43e
0x30, 0x5e:
    ...@.....@......
    ..@....@@@@@@...
    .@.......@..@...
    @...@....@..@...
    .@.@..@@@@@@@@@.
    ..@.............
    .@..@..@@@@@@@..
    @@@@@..@.....@..
    ..@..@.@.....@..
    ..@....@@@@@@@..
    @.@.@.....@.....
    @.@..@.@@@@@@@..
    @.@..@.@..@.....
    @.@....@..@.....
    ..@...@@@@@@@@@.
    ..@.......@.....


# 0x43f
0x30, 0x5f:
    ................
    .@@@@@@@@@@@@@..
    .@.....@.....@..
    .@@@@@@@@@@@@@..
    .@.....@.....@..
    .@@@@@@@@@@@@@..
    ................
    ..@@@@@@@@@@@...
    ..@.........@...
    ..@@@@@@@@@@@...
    ..@.........@...
    ..@@@@@@@@@@@...
    ..@.........@...
    ..@.........@...
    ..@.........@...
    ..@.......@@@...


# 0x440
0x30, 0x60:
    ....@....@......
    @@@@@@@@@@@@@@@.
    ....@....@......
    ................
    ...@@@@@@@@@....
    .......@........
    @@@@@@@@@@@@@@@.
    .....@.@.@......
    ...@@..@..@@....
    .@@....@....@@..
    ......@.........
    @@@@@@@@@@@@@@@.
    .....@....@.....
    ....@@@..@......
    .......@@@@.....
    ..@@@@@....@@@..


# 0x441
0x30, 0x61:
    .......@........
    .......@........
    .......@........
    @@@@@@@@@@@@@@@.
    .......@........
    ......@.@.......
    .....@..@....@..
    ....@...@...@...
    ...@@....@.@....
    ..@.@....@@.....
    @@..@....@......
    ....@.....@.....
    ....@.....@.....
    ....@..@@..@....
    ....@@@.....@...
    .@@@.........@..


# 0x442
0x30, 0x62:
    ......@@@@@@@@@.
    .@@@@.@...@...@.
    ......@@@@@@@@@.
    @@@@@.@...@...@.
    ......@@@@@@@@@.
    .@@@@...........
    .......@@@@@@@..
    .@@@@..@.....@..
    .......@.....@..
    .@@@@..@@@@@@@..
    .@..@..@.....@..
    .@..@..@.....@..
    .@..@..@@@@@@@..
    .@..@..@.....@..
    .@@@@..@.....@..
    .@.....@....@@..


# 0x443
0x30, 0x63:
    ........@.......
    @.....@@@@@@@...
    .@......@...@...
    ..@.@@@@@@@@@@@.
    ................
    ......@@@@@@@...
    ......@.....@...
    @@@...@@@@@@@...
    ..@.......@.....
    ..@...@@@@@@@@..
    ..@...@...@.....
    ..@...@...@.....
    ..@.@@@@@@@@@@@.
    ..@.......@.....
    .@.@......@.....
    @...@@@@@@@@@@@.


# 0x444
0x30, 0x64:
    .........@......
    @........@......
    .@...@@@@@@@@@..
    ..@..@...@...@..
    .....@@@@@@@@@..
    .........@......
    ....@@@@@@@@@@@.
    @@@...@.....@...
    ..@...@@@@@@@...
    ..@...@.....@...
    ..@...@@@@@@@...
    ..@...@.....@...
    ..@...@@@@@@@...
    ..@....@...@....
    .@.@..@.....@...
    @...@@@@@@@@@@@.


# 0x445
0x30, 0x65:
    ................
    .@@@@@@@@@@@@@..
    .@..............
    .@...@..........
    .@...@@@@@@@@...
    .@..@...@.......
    .@.@....@.......
    .@......@.......
    .@.@@@@@@@@@@@..
    .@.....@.@......
    .@....@...@.....
    .@...@.....@....
    .@..@.......@...
    .@..............
    .@@@@@@@@@@@@@..
    .@..............


# 0x446
0x30, 0x66:
    ....@.....@.....
    ....@.....@.....
    ....@.....@.....
    ....@.....@.....
    .@@@@@@@@@@@@@..
    ....@.....@.....
    ....@.....@.....
    ....@.....@.....
    ....@.....@.....
    @@@@@@@@@@@@@@@.
    ....@.....@.....
    ....@.....@.....
    ...@......@.....
    ...@......@.....
    ..@.......@.....
    .@........@.....


# 0x447
0x30, 0x67:
    .......@........
    .......@........
    @@@@@@@@@@@@@@@.
    ......@.........
    .....@....@.....
    ..@.@....@......
    ...@....@.......
    ....@..@....@...
    .....@@....@....
    .....@....@.....
    ....@....@......
    ..@@....@@......
    .......@..@.....
    ......@....@....
    ....@@......@...
    .@@@.........@..


# 0x448
0x30, 0x68:
    ..@.......@.@...
    ..@.......@..@..
    ..@.......@.....
    ..@.@@@@@@@@@@@.
    @@@@......@.....
    ..@..@@@@.@.....
    ..@..@..@.@..@..
    ..@..@..@.@..@..
    ..@..@..@.@..@..
    ..@..@@@@.@.@...
    ..@........@@...
    ..@.@...@..@....
    ..@@...@..@.@...
    @@...@@..@..@.@.
    ........@....@@.
    .......@......@.


# 0x449
0x30, 0x69:
    .......@........
    .......@........
    @@@@@@@@@@@@@@@.
    .....@..........
    ....@......@....
    ...@...@@@@@@...
    .@@@@@@......@..
    ..............@.
    ...@@@@@@@@@....
    ...@.......@....
    ...@@@@@@@@@....
    ...@.......@....
    ...@@@@@@@@@....
    ...@.......@....
    ...@.......@....
    ...@......@@....


# 0x44a
0x30, 0x6a:
    ....@...........
    ....@....@@@@@..
    @@@@@@@@.@...@..
    ...@.....@...@..
    ...@.....@...@..
    ..@@@@@..@..@...
    ..@...@..@.@....
    .@@...@..@..@...
    @.@@@@@..@...@..
    ..@...@..@....@.
    ..@...@..@....@.
    ..@@@@@..@....@.
    ..@...@..@....@.
    ..@...@..@.@@@..
    ..@...@..@......
    ..@..@@..@......


# 0x44b
0x30, 0x6b:
    ........@.@...@.
    @@@@@..@..@..@..
    ..@...@...@.@...
    ..@....@@.@..@@.
    ..@....@..@..@..
    ..@...@...@.@...
    .@@@@.@.@.@.@.@.
    .@..@.@@@.@@@@@.
    @@..@.....@..@..
    @@..@.@@@@@@@@@.
    .@..@..@..@.....
    .@..@..@..@..@..
    .@..@..@..@.@...
    .@@@@.@.@..@....
    .@...@....@.@.@.
    .........@...@..


# 0x44c
0x30, 0x6c:
    ................
    ................
    ................
    ................
    ................
    ................
    ............@...
    @@@@@@@@@@@@@@..
    ................
    ................
    ................
    ................
    ................
    ................
    ................
    ................


# 0x44d
0x30, 0x6d:
    .......@........
    .......@........
    @@@@@@@@@@@@@@@.
    .......@........
    .......@........
    .@@@@@@@@@@@@@..
    ................
    ................
    @@@@@@@@@@@@@@@.
    @.............@.
    @..@......@...@.
    ...@....@@......
    ...@@@@@........
    ...@........@...
    ...@........@...
    ....@@@@@@@@....


# 0x44e
0x30, 0x6e:
    .....@......@...
    .@...@......@...
    ..@...@....@....
    .......@..@.....
    @..@@@@@@@@@@@@.
    .@.....@..@.....
    .......@..@.....
    ......@....@....
    ..@..@......@...
    ..@.@........@..
    ..@.@@@@@@@@@@@.
    .@..@..@..@..@..
    .@..@..@..@..@..
    .@..@..@..@..@..
    @...@..@..@..@..
    ...@@@@@@@@@@@@.


# 0x44f
0x30, 0x6f:
    .........@......
    @.......@@@@@@..
    .@.....@....@...
    ..@...@....@....
    .....@@@@@@@@@..
    ....@@...@...@..
    .....@...@...@..
    @@@..@@@@@@@@@..
    ..@....@..@.....
    ..@....@..@.....
    ..@....@..@.....
    ..@....@..@...@.
    ..@...@...@...@.
    ..@..@.....@@@..
    .@.@............
    @...@@@@@@@@@@@.


# 0x450
0x30, 0x70:
    ....@......@@@..
    @@@@..@@@@@.....
    ..@.............
    ..@..@...@....@.
    ..@...@...@...@.
    @@@@@..@..@...@.
    ..@....@..@..@..
    ..@...@..@@@@@@.
    .@@@..@..@....@.
    .@@.@.@..@....@.
    @.@...@..@....@.
    @.@...@..@@@@@@.
    ..@...@..@....@.
    ..@...@..@....@.
    ..@...@..@....@.
    ..@...@..@@@@@@.


# 0x451
0x30, 0x71:
    ....@.....@.....
    ....@.....@.....
    @@@@@@@@@@@@@@@.
    ....@.....@.....
    ....@..@..@.....
    .@.....@........
    ..@....@@@@@@@..
    ...@...@.@...@..
    ......@..@..@...
    .....@...@......
    .........@......
    ...@....@.@.....
    ..@....@...@....
    .@....@.....@...
    @....@.......@..
    ...@@.........@.


# 0x452
0x30, 0x72:
    ....@.....@.....
    ....@.....@.....
    @@@@@@@@@@@@@@@.
    ....@.....@.....
    ....@.....@.....
    ................
    .@@@@@@@@@@@@@..
    .......@........
    .......@........
    .......@........
    @@@@@@@@@@@@@@@.
    .......@........
    .......@........
    .......@........
    .......@........
    .....@@@........


# 0x453
0x30, 0x73:
    ..@.............
    .@@@@.@@@@.@@@@.
    @..@.....@....@.
    ..@......@....@.
    @@@@@.@@@@.@@@@.
    @.@.@.@....@....
    @.@.@.@....@....
    @@@@@.@@@@.@@@@.
    @.@.@....@....@.
    @.@.@.@@.@.@@.@.
    @@@@@....@....@.
    ........@@...@@.
    @.@.@..@.@..@.@.
    @.@.@.@..@.@..@.
    @.@.@....@....@.
    @.@....@@...@@..


# 0x454
0x30, 0x74:
    .........@......
    ........@.......
    .......@........
    ......@.....@...
    .....@.......@..
    ....@.........@.
    .@@@@@@@@@@@@@@.
    .....@...@....@.
    .....@...@....@.
    .....@...@......
    .....@...@......
    .....@...@......
    ....@....@......
    ...@.....@....@.
    ..@......@....@.
    @@........@@@@..


# 0x455
0x30, 0x75:
    ......@.........
    .@@@@@..@@@@@@..
    .@......@.....@.
    .@......@.....@.
    .@......@.....@.
    .@......@.....@.
    .@......@.....@.
    .@@@@@@.@.....@.
    .@......@.....@.
    .@......@.....@.
    .@......@.....@.
    .@......@.....@.
    .@......@...@@..
    .@@@@@@.@.......
    .@......@.......
    .@......@.......


# 0x456
0x30, 0x76:
    ................
    ......@@@@@@@@@.
    @@@@@.@.......@.
    @...@.@...@...@.
    @...@.@...@...@.
    @...@.@.@@@@@.@.
    @...@.@...@...@.
    @...@.@...@...@.
    @...@.@..@.@..@.
    @...@.@..@.@..@.
    @...@.@..@..@.@.
    @@@@@.@.@...@.@.
    @.....@.@...@.@.
    ......@.......@.
    ......@@@@@@@@@.
    ......@.......@.


# 0x457
0x30, 0x77:
    ...@@@@@@@@@....
    ...@.......@....
    ...@.......@....
    ...@@@@@@@@@....
    ................
    ..@@@@@@@@@@@...
    ..@.........@...
    ..@@@@@@@@@@@...
    ..@.........@...
    ..@@@@@@@@@@@...
    ..@.........@...
    ..@.........@...
    ..@@@@@@@@@@@...
    ....@.....@.....
    ..@@.......@@...
    @@...........@@.


# 0x458
0x30, 0x78:
    ................
    .@@@@@@@@@@@@@@.
    .@............@.
    .@......@.....@.
    .@......@.....@.
    .@......@.....@.
    .@.@@@@@@@@@@.@.
    .@......@.....@.
    .@......@.....@.
    .@.....@.@....@.
    .@....@...@...@.
    .@...@.....@..@.
    .@.@@.......@.@.
    .@............@.
    .@@@@@@@@@@@@@@.
    .@............@.


# 0x459
0x30, 0x79:
    ..@.............
    ..@...@@@@@@@@@.
    ..@...@.......@.
    ..@...@...@...@.
    @@@@@.@...@...@.
    .@..@.@.@@@@@.@.
    .@..@.@...@...@.
    .@..@.@...@...@.
    .@..@.@..@.@..@.
    .@..@.@..@..@.@.
    .@..@.@..@..@.@.
    ..@@..@.@...@.@.
    ..@.@.@.@...@.@.
    .@....@.......@.
    @.....@@@@@@@@@.
    ......@.......@.


# 0x45a
0x30, 0x7a:
    .............@..
    .@@@@@@@.....@..
    .......@.....@..
    .......@.....@..
    .......@.....@..
    .@@@@@@@.....@..
    .@...........@..
    .@...........@..
    .@...........@..
    .@@@@@@@@....@..
    .@......@....@..
    ........@....@..
    ........@....@..
    ........@....@..
    .......@.....@..
    ...@@@@......@..


# 0x45b
0x30, 0x7b:
    ...@....@.......
    ..@.@...@.......
    .@...@..@.......
    @..@..@.@@@@@@@.
    ...@....@.@...@.
    .@@@@@..@.@...@.
    .@...@.@..@..@..
    .@...@....@.....
    .@@@@@....@.....
    .@...@....@.....
    .@...@...@.@....
    .@@@@@...@.@....
    .@..@....@..@...
    .@...@..@...@...
    .@..@.@.@....@..
    @@@@...@......@.


# 0x45c
0x30, 0x7c:
    ...........@@@..
    .@...@@@@@@.....
    ..@.............
    .....@..@....@..
    ......@..@...@..
    @.....@..@..@...
    .@..............
    ..........@@@@..
    .....@@@@@......
    ..@......@......
    ..@......@......
    ..@.@@@@@@@@@@@.
    .@.......@......
    .@.......@......
    @........@......
    .....@@@@@@@@@..


# 0x45d
0x30, 0x7d:
    .@.....@....@...
    .@....@.....@...
    .@.@.@...@..@...
    .@..@...@...@...
    .@...@.@....@...
    .@....@...@.@...
    .@.@@@@@@@@.@...
    .@.........@@...
    .@..@@@@@@..@...
    .@..@....@..@...
    .@..@@@@@@..@...
    .@..@....@..@...
    .@..@@@@@@..@...
    .@..@....@..@.@.
    .@..@....@..@.@.
    @...@@..@@...@@.


# 0x45e
0x30, 0x7e:
    ....@.....@.....
    @@@@@@@@@@@@@@@.
    ....@.....@.....
    .@@@.....@......
    .@..@...@.@.....
    .@..@..@...@....
    .@..@.@.@@@.@...
    .@.@.@.......@@.
    .@..@.@@@@@@....
    .@..@......@....
    .@..@.@@@@@@@@..
    .@.@............
    .@...@@@@@@@@@@.
    .@......@.......
    .@.....@....@...
    .@...@@@@@@@@@..


# 0x45f
0x30, 0x7f:
    @@@@@@@@@@@@@@@@
    @...............
    @...............
    @...............
    @...............
    @@@@@@@@@@@@@@@@
    @...............
    @...............
    @...............
    @...............
    @@@@@@@@@@@@@@@@
    @...............
    @...............
    @...............
    @...............
    @...............


# 0x460
0x31, 0x20:
    ................
    ................
    ................
    ................
    ...@...@@@......
    ..@@..@...@.....
    .@.@..@...@.....
    ...@..@...@.....
    ...@..@...@.....
    ...@..@...@.....
    ...@..@...@.....
    ...@...@@@......
    ................
    ................
    ................
    ................


# 0x461
0x31, 0x21:
    ..........@.....
    .@@@@.....@.....
    .@..@.@@@@@@@@@.
    .@..@.@.......@.
    .@..@.@.......@.
    .@.@...@@@@@@...
    .@..@...........
    .@..@...........
    .@..@.@@@@@@@@@.
    .@..@...@..@....
    .@..@...@..@....
    .@@@....@..@....
    .@.....@...@....
    .@.....@...@..@.
    .@....@....@..@.
    .@..@@......@@@.


# 0x462
0x31, 0x22:
    .........@......
    .@@@@...@.@.....
    .@..@...@..@....
    .@..@..@....@...
    .@..@.@.@@@@.@..
    .@.@.@........@.
    .@..@.@@@@@@@...
    .@..@......@....
    .@..@.....@.....
    .@..@.@@@@@@@@..
    .@..@...........
    .@@@.@@@@@@@@@@.
    .@......@...@...
    .@.....@.....@..
    .@....@....@@@@.
    .@...@@@@@@...@.


# 0x463
0x31, 0x23:
    ............@@..
    .@@@@.@@@@@@....
    .@..@........@..
    .@..@.@..@...@..
    .@..@..@..@.@...
    .@.@..@@@@@@@@..
    .@..@........@..
    .@..@.@@@@@@@@..
    .@..@........@..
    .@..@.@@@@@@@@..
    .@..@...........
    .@@@....@.@..@..
    .@....@.@..@..@.
    .@....@.@..@..@.
    .@...@..@....@..
    .@..@....@@@@@..


# 0x464
0x31, 0x24:
    ...@............
    ...@....@@@@@@..
    @@@@@@@.@....@..
    .@...@..@....@..
    ..@..@..@@@@@@..
    ..@.@...........
    @@@@@@.@@@@@@@@.
    .......@......@.
    .@@@@@.@@@@@@@@.
    .@...@.@......@.
    .@...@.@@@@@@@@.
    .@@@@@.@......@.
    .@...@.@@@@@@@@.
    .@...@...@..@...
    .@@@@@..@....@..
    .@.....@......@.


# 0x465
0x31, 0x25:
    ............@...
    ............@...
    .@@@@.......@...
    .@..@.......@...
    .@..@.@@@@@@@@@.
    .@..@.......@...
    .@..@.......@...
    .@..@..@....@...
    .@..@...@...@...
    .@..@....@..@...
    .@..@....@..@...
    .@..@.......@...
    .@@@@.......@...
    .@..........@...
    ............@...
    ..........@@@...


# 0x466
0x31, 0x26:
    ......@.........
    ......@.........
    ......@.........
    @@@@@@@@@@@@@@@.
    .....@..........
    .....@..........
    ....@...........
    ....@...........
    ...@@@@@@@@@@...
    ..@.@.......@...
    ..@.@.......@...
    .@..@.......@...
    @...@.......@...
    ....@.......@...
    ....@@@@@@@@@...
    ....@.......@...


# 0x467
0x31, 0x27:
    .......@........
    .......@........
    @@@@@@@@@@@@@@@.
    @.............@.
    @.............@.
    @.@@@@@@@@@@@.@.
    .......@........
    .......@........
    .......@........
    @@@@@@@@@@@@@@@.
    .......@........
    .......@........
    .......@........
    .......@........
    .......@........
    .....@@@........


# 0x468
0x31, 0x28:
    .......@........
    ......@.........
    ..@@@@@@@@@@@...
    ..@.........@...
    ..@.........@...
    ..@.........@...
    ..@@@@@@@@@@@...
    ..@.............
    ..@@@@@@@@@@@@@.
    ..@.............
    ..@.............
    ..@@@@@@@@@@@@..
    .............@..
    .@..@..@..@..@..
    .@..@..@..@..@..
    @...@..@...@@...


# 0x469
0x31, 0x29:
    ................
    @@@@@@@.@@@@@@..
    ......@......@..
    .@....@.@....@..
    ..@...@..@...@..
    ...@..@...@..@..
    ...@..@...@..@..
    ......@......@..
    .....@@.....@@..
    .....@@.....@@..
    ....@.@....@.@..
    ...@..@...@..@..
    .@@...@.@@...@..
    ......@......@..
    ......@......@..
    ....@@@....@@@..


# 0x46a
0x31, 0x2a:
    ................
    @....@@@@@@@@@..
    .@.......@......
    ..@......@......
    .........@......
    .........@......
    ....@@@@@@@@@@@.
    @@@......@......
    ..@......@......
    ..@......@......
    ..@......@......
    ..@......@......
    ..@......@......
    ..@....@@@......
    .@.@............
    @...@@@@@@@@@@@.


# 0x46b
0x31, 0x2b:
    ................
    @@@@@@@@@@@@@@@.
    .......@........
    .......@........
    .@@@@@@@@@@@@@..
    .@.....@.....@..
    .@.@...@.@...@..
    .@..@..@..@..@..
    .@...@.@...@.@..
    .@.....@.....@..
    .@.@...@.@...@..
    .@..@..@..@..@..
    .@...@.@...@.@..
    .@.....@.....@..
    .@.....@.....@..
    .@.....@....@@..


# 0x46c
0x31, 0x2c:
    .....@@.........
    ..@@@....@@@@@@.
    ..@......@....@.
    ..@...@..@....@.
    ..@...@..@....@.
    ..@...@..@....@.
    ..@...@..@....@.
    ..@...@..@....@.
    ..@...@..@....@.
    ..@...@..@....@.
    ..@...@..@....@.
    ..@.@@@..@....@.
    @@@@..@..@..@@@.
    .....@...@......
    ....@....@......
    ..@@.....@......


# 0x46d
0x31, 0x2d:
    .@...@....@.....
    ..@.@...@@@@@@..
    @@@@@@@.@....@..
    ...@..@.@@@@@@..
    ...@..@.@....@..
    @@@@@@@.@@@@@@..
    @..@....@.......
    @..@....@@@@@@@.
    @@@@@@@.@.......
    ...@..@.@@@@@@@.
    ..@@..@.......@.
    ..@@..@.....@.@.
    .@.@.@@..@.@.@@.
    .@.@...@.@.@..@.
    @..@...@.@....@.
    ...@..@......@..


# 0x46e
0x31, 0x2e:
    .......@........
    @@@@@@@@@@@@@@@.
    @....@..@.....@.
    @..@@...@@@@@.@.
    .@@.............
    ..@...@@@@@@@...
    ..@...@.....@...
    @@@@@.@@@@@@@...
    ..@...@.....@...
    ..@...@@@@@@@...
    @@@@@.@.....@...
    ..@...@@@@@@@...
    .@.@....@.@.....
    .@..@...@.@...@.
    @......@..@...@.
    @....@@...@@@@@.


# 0x46f
0x31, 0x2f:
    ................
    ..@@@@@@@@@@....
    .....@.....@....
    .....@.....@....
    .....@.....@....
    ....@......@....
    ....@......@....
    @@@@@@@@@@@@@@@.
    ....@......@....
    ....@......@....
    ....@.....@.....
    ...@......@.....
    ...@......@.....
    ...@......@.....
    @@@@@@@@@@@@@@@.
    ................


# 0x470
0x31, 0x30:
    .........@..@...
    @@@@@@@..@..@...
    ..@.....@..@....
    ..@.....@@@@@@@.
    ..@....@@..@....
    ..@...@.@..@....
    ..@.....@..@....
    .@@@@@..@@@@@@..
    .@@..@..@..@....
    @.@..@..@..@....
    ..@..@..@..@....
    ..@..@..@@@@@@..
    ..@..@..@..@....
    ..@..@..@..@....
    ..@@@@..@..@....
    ..@.....@@@@@@@.


# 0x471
0x31, 0x31:
    ......@.........
    ....@@..........
    .@@@....@@@@@@..
    .@...........@..
    .@...........@..
    .@...........@..
    .@...........@..
    .@@@@@..@@@@@@..
    .@...........@..
    .@...........@..
    .@...........@..
    .@...........@..
    .@...........@..
    .@...........@..
    .@@@@@@@@@@@@@..
    .@...........@..


# 0x472
0x31, 0x32:
    ................
    .@....@@@@@@@...
    ..@...@.....@...
    ......@..@@@@...
    @.....@..@..@...
    .@....@..@..@...
    ......@..@..@...
    ....@@@@@@@@@@@.
    ..@.@.........@.
    ..@.@..@@@@@..@.
    ..@.@..@...@..@.
    .@..@..@...@..@.
    .@..@..@...@..@.
    @...@..@@@@@..@.
    @...@.........@.
    ....@........@@.


# 0x473
0x31, 0x33:
    ........@.......
    ........@@@@@...
    @@@@....@.......
    @..@.@@@@@@@@@@.
    @..@.@..@.....@.
    @..@.@@@@@@@@...
    @..@.@..@.....@.
    @..@.@...@@@@@@.
    @..@.@..........
    @..@.@...@.@....
    @@@@.@.@.@.@..@.
    @....@.@.@.@..@.
    ....@..@.@.@..@.
    ....@...@@.@.@..
    ...@.....@.@....
    ..@..@@@@@@@@@@.


# 0x474
0x31, 0x34:
    ................
    .......@@@@@@@..
    @@@@@..@.....@..
    @...@..@.....@..
    @...@..@@@@@@@..
    @...@..@.....@..
    @...@..@.....@..
    @...@..@@@@@@@..
    @...@..@.....@..
    @...@..@.....@..
    @@@@@..@.....@..
    @......@@@@@@@..
    ................
    ........@...@...
    .......@.....@..
    .....@@.......@.


# 0x475
0x31, 0x35:
    ..@...@.@...@...
    @@@@@..@..@@@@@.
    ..@...@.@...@...
    .@@@..@.@..@@@..
    @.@.@..@..@.@.@.
    ..@...@.@...@...
    .@@@@@@@@@@@@@..
    .@...@...@...@..
    .@@@@@@@@@@@@@..
    ..@...@.....@...
    ..@@@@@.@@@@@@@.
    ..@...@.....@...
    ..@@@@@..@..@...
    ..@..@....@.@...
    ..@...@.....@...
    .@@@@@.@...@@...


# 0x476
0x31, 0x36:
    ....@.....@.....
    @@@@@@@@@@@@@@@.
    ....@.....@.....
    .@@@@@@@..@.@...
    .@.....@....@...
    .@@@@@@@....@...
    .@.......@@@@@@.
    .@.@@@@.....@...
    .@.......@..@...
    .@@@@@@@..@.@...
    .@...@....@.@...
    .@.@.@.@..@.@...
    .@.@.@..@...@...
    .@.@.@..@...@...
    @.@..@......@...
    ....@@.....@@...


# 0x477
0x31, 0x37:
    ..@.............
    ..@@@..@@@@@@@..
    .@..@..@.....@..
    @..@...@@@@@@@..
    @@@@@..@.....@..
    @.@.@..@@@@@@@..
    @.@.@...........
    @@@@@.@@@@@@@@@.
    @.@.@.@..@.@..@.
    @.@.@.@@@@@@@@@.
    @@@@@...........
    .......@@@@@@@..
    ..@.@.@.@....@..
    @.@.@.@..@..@...
    @.@.@.....@@....
    @.....@@@@..@@@.


# 0x478
0x31, 0x38:
    ..@......@......
    ..@......@...@..
    ..@...@@@@@@.@..
    @@@@@....@..@...
    .@..@....@..@...
    .@..@....@.@....
    .@..@@@@@@@@@@@.
    .@..@...@@......
    .@..@...@.......
    .@..@..@@....@..
    @.@@..@.@..@@...
    ...@....@@@.....
    ..@.@...@.....@.
    ..@..@..@.....@.
    .@.......@@@@@@.
    @...............


# 0x479
0x31, 0x39:
    ................
    .@@@@@@@@@@@@@..
    .@..............
    .@.@@@@..@@@@@..
    .@.@..@..@..@...
    .@.@@@@..@..@...
    .@.@..@..@..@...
    .@.@..@..@..@...
    .@.@@@@.@@@@@@@.
    .@.@.......@....
    .@.@.......@....
    .@.@.@....@.@...
    .@.@..@...@.@...
    .@.@.@.@.@..@.@.
    .@.@@....@..@.@.
    @.......@...@@@.


# 0x47a
0x31, 0x3a:
    .........@..@...
    .@.......@...@..
    ..@......@......
    ....@@@@@@@@@@@.
    .........@......
    @....@@@@@@@@@..
    .@...@...@...@..
    .....@...@...@..
    .....@@@@@@@@@..
    ...@.@...@...@..
    ...@.@...@...@..
    ..@..@@@@@@@@@..
    ..@..@...@...@..
    .@...@...@...@..
    @....@...@...@..
    .....@...@..@@..


# 0x47b
0x31, 0x3b:
    ...........@@...
    .......@@@@@....
    ..@@@@@....@....
    ..@...@....@....
    ..@...@....@....
    ..@...@....@....
    ..@...@.....@...
    ..@...@.....@...
    ..@...@.....@...
    ..@...@.....@...
    ..@...@..@..@...
    ..@...@...@.@...
    .@....@..@@..@..
    .@....@@@..@.@..
    .@.@@@.....@.@..
    @.............@.


# 0x47c
0x31, 0x3c:
    ................
    .@@@@@@.@@@@@@..
    .@....@.@....@..
    .@@@@@@.@@@@@@..
    .@....@.@....@..
    .@@@@@@.@@@@@@..
    .@...........@..
    .@..@@@@@@@..@..
    .@.....@.....@..
    .@.....@.....@..
    .@..@@@@@@@..@..
    .@.....@.....@..
    .@.....@.....@..
    .@..@@@@@@@..@..
    .@...........@..
    .@..........@@..


# 0x47d
0x31, 0x3d:
    ......@.....@...
    .......@...@....
    @@@@.@@@@@@@@@@.
    @..@....@.@.....
    @..@.@@@@@@@@@..
    @..@.@..@.@..@..
    @..@.@@@..@@@@..
    @..@.@.......@..
    @..@.@@@@@@@@@..
    @..@.@.......@..
    @@@@.@@@@@@@@@..
    @..........@....
    ....@@@@@@@@@@@.
    ......@....@....
    .......@...@....
    .........@@@....


# 0x47e
0x31, 0x3e:
    ................
    ..@@@@@@@@@@....
    ................
    ................
    ................
    ................
    @@@@@@@@@@@@@@..
    ......@.........
    ......@.........
    .....@...@......
    .....@....@.....
    ....@.....@.....
    ....@......@....
    ...@...@@@@@....
    .@@@@@@.....@...
    ............@...


# 0x47f
0x31, 0x3f:
    ................
    @...@@@@@@@@@@@.
    .@..@....@....@.
    ..@.@.@@@@@@@.@.
    .........@......
    ......@@@@@@@...
    ......@..@..@...
    @@@...@@@@@@@...
    ..@...@..@..@...
    ..@...@@@@@@@...
    ..@......@......
    ..@.@@@@@@@@@@@.
    ..@......@......
    ..@......@......
    .@.@............
    @...@@@@@@@@@@@.


# 0x480
0x31, 0x40:
    ................
    ..@@@@@@@@@@@...
    .......@........
    @@@@@@@@@@@@@@@.
    @......@......@.
    @.@@@..@..@@@.@.
    .......@........
    ..@@@..@..@@@...
    ................
    ..@@@@@@@@@@@...
    ................
    @@@@@@@@@@@@@@@.
    .....@....@.....
    ....@......@....
    ...@....@@@@@...
    .@@@@@@@.....@..


# 0x481
0x31, 0x41:
    ....@.....@.....
    ....@.....@.....
    @@@@@@@@@@@@@@@.
    ....@.....@.....
    ...........@@...
    ...@....@@@.....
    ...@.@@@.@......
    ..@......@......
    .@@......@......
    @.@.@@@@@@@@@@@.
    ..@......@......
    ..@......@......
    ..@......@......
    ..@......@......
    ..@......@......
    ..@..@@@@@@@@@..


# 0x482
0x31, 0x42:
    ...@............
    ...@@.@@@@@@@@@.
    ..@..@..@...@...
    .@.@..@.@...@...
    @..@....@@@@@...
    .@@@@@..@...@...
    .@...@..@...@...
    .@@@@@..@...@...
    .@...@..@@@@@...
    .@@@@@..@...@...
    .@......@...@...
    .@......@..@@@@.
    .@.@..@@@@@.@...
    .@..@.......@...
    .@.@.@......@...
    @@@...@.....@...


# 0x483
0x31, 0x43:
    ....@...........
    ....@@@@.@@@@@@.
    ....@.....@...@.
    @@@@@@@@@.@...@.
    @.......@.@...@.
    ..@@@@@...@...@.
    ..@....@..@...@.
    .@..@@..@..@.@..
    ...@..@....@.@..
    ..@@@@@@...@@@..
    .@@...@.@...@...
    @.@@@@@....@@...
    ..@...@....@.@..
    ..@@@@@...@..@..
    ..@...@...@...@.
    ..@@@@@..@....@.


# 0x484
0x31, 0x44:
    ..@..@......@...
    ...@..@....@....
    ....@..@..@.....
    @@@@@@@@@@@@@@@.
    @.............@.
    @..@@@@@@@@@..@.
    ...@.......@....
    ...@.......@....
    ...@@@@@@@@@....
    .......@........
    ......@.........
    ..@@@@@@@@@@@...
    ..@.........@...
    ..@.........@...
    ..@.........@...
    ..@@@@@@@@@@@...


# 0x485
0x31, 0x45:
    ................
    .@@@@@@.@@@@@@..
    .@....@.@....@..
    .@@@@@@.@@@@@@..
    .@....@.@....@..
    .@@@@@@.@@@@@@..
    .@....@.@....@..
    .@@@@@@.@@@@@@..
    ..@..@...@..@...
    .@....@.@....@..
    .....@..........
    @@@@@@@@@@@@@@@.
    ...@......@.....
    ..@@@@...@......
    ......@@@@......
    .@@@@@....@@....


# 0x486
0x31, 0x46:
    .@@@@@@@.....@..
    .@.....@....@...
    .@@@@@@@....@...
    .@.....@...@....
    .@@@@@@@..@...@.
    ....@........@..
    @@@@@@@@@....@..
    ............@...
    .@@@@@@@....@...
    .@.....@...@..@.
    .@.....@..@...@.
    .@@@@@@@.....@..
    ....@........@..
    ..@.@.@.....@...
    .@..@..@...@....
    @..@@...@.@.....


# 0x487
0x31, 0x47:
    .........@......
    .........@......
    @@@@.....@......
    @..@..@@@@@@@...
    @..@..@..@..@...
    @..@..@..@..@...
    @..@..@..@..@...
    @@@@..@..@..@...
    @..@..@..@..@...
    @..@@@@@@@@@@@@.
    @..@.....@......
    @..@....@.@.....
    @@@@....@.@.....
    @......@...@....
    ......@.....@...
    ....@@.......@@.


# 0x488
0x31, 0x48:
    .......@........
    .......@........
    ..@@@@@@@@@@@...
    ..@....@....@...
    ..@....@....@...
    ..@@@@@@@@@@@...
    ..@....@....@...
    ..@....@....@...
    ..@@@@@@@@@@@...
    .......@........
    .......@...@....
    .......@.@@.....
    .......@@.......
    .....@@..@....@.
    ...@@.....@@..@.
    @@@.........@@@.


# 0x489
0x31, 0x49:
    ..@...@.....@...
    ...@...@....@...
    ...@...@...@....
    ..........@.....
    @@@@@@@@@@@@@@@.
    @.............@.
    @......@......@.
    .......@........
    .@@@@@@@@@@@@@..
    .......@........
    ......@@@.......
    .....@.@.@......
    ....@..@..@.....
    ..@@...@...@@...
    @@.....@.....@@.
    .......@........


# 0x48a
0x31, 0x4a:
    .....@..........
    ......@.........
    .......@........
    ................
    ..@@@@@@.....@..
    .......@....@...
    .......@@..@....
    @@@@@..@.@@.....
    ....@..@.@......
    ....@..@.@......
    ...@...@..@.....
    ...@...@..@.....
    ..@....@...@....
    .@.....@....@...
    @......@.....@@.
    .....@@@........


# 0x48b
0x31, 0x4b:
    .......@........
    .@......@.......
    ..@......@......
    ................
    ......@@@@......
    @........@....@.
    .@.......@@..@..
    ...@@@@@.@.@@...
    .......@.@.@....
    ..@....@.@.@....
    ..@...@..@.@....
    ..@...@..@..@...
    .@...@...@..@...
    .@..@....@...@..
    @..@.....@....@.
    .......@@@......


# 0x48c
0x31, 0x4c:
    ........@.......
    .@......@.......
    ..@.@@@@@@@@@...
    ....@...@...@...
    ....@...@...@...
    @...@@@@@@@@@...
    .@..@...@...@...
    ....@...@...@...
    ....@@@@@@@@@...
    ..@.....@.......
    ..@.....@...@...
    ..@......@.@....
    .@........@.....
    .@.......@.@..@.
    @......@@...@.@.
    .....@@......@@.


# 0x48d
0x31, 0x4d:
    .......@...@....
    @@@@.@@@@@@@@@@.
    ..@....@...@....
    ..@....@.@.@....
    ..@......@......
    ..@...@@@@@@@...
    ..@...@..@..@...
    @@@@..@..@..@...
    ..@...@..@..@...
    ..@.@@@@@@@@@@@.
    ..@......@......
    ..@.@...@.@.....
    ..@@....@.@.....
    @@.....@...@....
    ......@.....@...
    ....@@.......@@.


# 0x48e
0x31, 0x4e:
    ................
    .@@@@@@@@@@@....
    ....@......@....
    ....@......@....
    ....@@@@@..@@@@.
    ...@.@..@.....@.
    ...@.@.@......@.
    ..@...@......@..
    .@...@.@...@@...
    @...@...@.......
    ..@@@@@@@@@@@...
    ..@..@..@...@...
    ..@..@..@...@...
    ..@..@..@...@...
    ..@..@..@...@...
    @@@@@@@@@@@@@@@.


# 0x48f
0x31, 0x4f:
    .@..............
    .@..@@.@@@@@@@@.
    .@@@......@.....
    .@....@.@@@@@@..
    .@....@.@....@..
    ..@@@@@.@....@..
    ........@@@@@@..
    .@@@@@..@....@..
    ....@...@....@..
    @@@@@@@.@@@@@@..
    ....@...@....@..
    ...@@@..@....@..
    ..@.@.@.@@@@@@..
    .@..@....@..@...
    @...@...@....@..
    ....@..@......@.


# 0x490
0x31, 0x50:
    .@..............
    .@..@@.@@@@@@@@.
    .@@@......@.....
    .@....@.@@@@@@..
    .@....@.@....@..
    ..@@@@@.@....@..
    ........@@@@@@..
    .@@@@@..@....@..
    ........@....@..
    @@@@@@@.@@@@@@..
    ...@....@....@..
    .@.@.@..@....@..
    .@.@..@.@@@@@@..
    .@.@..@..@..@...
    .@.@....@....@..
    @..@...@......@.


# 0x491
0x31, 0x51:
    ....@.....@.....
    ....@.....@.....
    @@@@@@@@@@@@@@@.
    ....@.....@.....
    .......@........
    ..@@@@@@@@@@@...
    ..@....@....@...
    ..@....@....@...
    ..@....@....@...
    @@@@@@@@@@@@@@@.
    .......@........
    ......@.@.......
    .....@...@......
    ....@.....@.....
    ..@@.......@@...
    @@...........@@.


# 0x492
0x31, 0x52:
    ...@...@........
    ..@..@@@@@.@@@@.
    .@....@..@......
    @.....@..@......
    ....@@@@@@@.....
    ...@.......@@@@.
    ..@..@@@@@...@..
    .@@..@...@...@..
    @.@..@@@@@...@..
    ..@.....@....@..
    ..@..@@@@@...@..
    ..@..@..@....@..
    ..@..@..@....@..
    ..@.@@@@@@@..@..
    ..@.....@....@..
    ..@.....@...@@..


# 0x493
0x31, 0x53:
    ........@.......
    .@@@@....@......
    ................
    @@@@@@.@@@@.....
    ..........@.....
    .@@@@.....@...@.
    ......@@@.@@.@..
    .@@@@...@.@.@...
    ........@.@.@...
    .@@@@...@.@.@...
    .@..@...@.@.@...
    .@..@..@..@.@...
    .@..@..@..@..@..
    .@..@.@...@...@.
    .@@@@.....@.....
    .@.......@@.....


# 0x494
0x31, 0x54:
    ...@...@.....@..
    ..@.@...@...@...
    ..@..@...@.@....
    .@...@.@@@@@@@..
    @......@.....@..
    .@@@@..@.....@..
    ...@...@.....@..
    @@@@@@.@.....@..
    ...@...@@@@@@@..
    @..@.@...@.@....
    @..@.@...@.@....
    .@.@.@...@.@....
    .@.@....@..@....
    ...@@@..@..@..@.
    @@@....@...@..@.
    ......@.....@@@.


# 0x495
0x31, 0x55:
    .........@......
    .@.......@......
    ..@.@@@@@@@@@@@.
    ......@..@......
    ......@..@......
    @....@...@@@@@..
    .@..@@..@....@..
    ...@.@..@.@..@..
    .....@.@...@.@..
    ..@..@.@....@...
    ..@..@@.@...@...
    ..@..@...@.@....
    .@...@....@.....
    .@...@...@.@....
    @....@..@...@...
    .....@.@.....@@.


# 0x496
0x31, 0x56:
    ........@.......
    ..@@@@@@@@@@@@@.
    ..@.............
    ..@...@@@@@.....
    @.@...@...@.....
    .@@...@...@...@.
    ..@..@....@...@.
    ..@.@......@@@@.
    ..@.............
    .@@.@@@@@@@@@...
    @.@...@.....@...
    ..@...@....@....
    ..@....@..@.....
    ..@.....@@......
    .@....@@..@@....
    @..@@@......@@@.


# 0x497
0x31, 0x57:
    ..@.........@...
    ...@.......@....
    ....@.....@.....
    @@@@@@@@@@@@@@@.
    .....@...@......
    ....@.....@.....
    ...@.......@....
    ..@.........@...
    .@@@@@@@@@@@@@..
    @.@..@...@..@.@.
    ..@..@...@..@...
    ..@..@...@..@...
    ..@..@...@..@...
    ..@..@...@..@...
    @@@@@@@@@@@@@@@.
    ................


# 0x498
0x31, 0x58:
    ................
    .@@@@@@.@@@@@@..
    .@..@...@....@..
    .@@@@@..@....@..
    .@..@...@....@..
    .@..@...@....@..
    .@@@@@..@....@..
    .@..@...@@@@@@..
    .@..@...@..@....
    .@@@@@@.@..@....
    ......@.@..@....
    @.@.@.@.@..@....
    @.@.@.@.@...@...
    @.@.@.@.@...@...
    @.....@.@....@..
    ....@@.@......@.


# 0x499
0x31, 0x59:
    ..@...@......@..
    ..@....@.....@..
    ..@.....@...@...
    ..@.....@..@....
    @.@.@.@@@@@@@@..
    @.@.@.@......@..
    @.@.@.@......@..
    @.@...@......@..
    ..@...@......@..
    ..@...@@@@@@@@..
    ..@.....@..@....
    ..@.....@..@....
    ..@....@...@....
    ..@....@...@..@.
    ..@...@....@..@.
    ..@..@......@@@.


# 0x49a
0x31, 0x5a:
    ................
    .@@@@..@@@@@@@..
    .......@.....@..
    @@@@@@.@@@@@@@..
    .......@.....@..
    .@@@@..@@@@@@@..
    ........@.......
    .@@@@...@@@@@@@.
    .......@......@.
    .@@@@.@....@..@.
    .@..@..@.@@...@.
    .@..@..@@.....@.
    .@..@..@...@..@.
    .@..@...@@@@..@.
    .@@@@........@..
    .@.........@@...


# 0x49b
0x31, 0x5b:
    ...@......@.@...
    ...@......@..@..
    ...@......@.....
    .@@@@@.@@@@@@@@.
    ...@...@..@.....
    ...@...@..@..@..
    @@@@@@.@..@..@..
    ...@...@..@.@...
    .@.@...@..@.@...
    .@.@@@.@...@....
    .@.@...@.@.@....
    .@@@..@@@.@.@.@.
    .@.@.....@...@@.
    .@..@...@.....@.
    .@...@@.........
    @......@@@@@@@@.


# 0x49c
0x31, 0x5c:
    ................
    .@@@@@@..@@@@@@.
    .@....@..@....@.
    .@@@@@@..@@@@@@.
    .@....@..@....@.
    .@@@@@@..@@@@@@.
    .@...@...@....@.
    .@....@.@.....@.
    .@..@@@@@@@...@.
    .@..@.....@...@.
    .@..@.....@...@.
    .@..@@@@@@@...@.
    .@....@.@.....@.
    .@...@..@..@..@.
    .@..@...@..@..@.
    .@.@.....@@@.@@.


# 0x49d
0x31, 0x5d:
    ..@..@@@@@@@@@@.
    ..@......@......
    ..@...@@@@@@@@..
    @@@@@.@......@..
    ..@...@@@@@@@@..
    ..@@..@......@..
    .@@.@.@@@@@@@@..
    .@@..@@......@..
    @.@...@@@@@@@@..
    @.@.....@.......
    ..@....@@@@@@...
    ..@...@.@...@...
    ..@..@...@.@....
    ..@.......@.....
    ..@.....@@.@@...
    ..@..@@@.....@@.


# 0x49e
0x31, 0x5e:
    .@@@@@@@@@@@@@@.
    .@..............
    .@.@@@@@...@....
    .@.@...@...@.@..
    .@.@@@@@...@..@.
    .@.@...@...@....
    .@.@@@@@.@@@@@@.
    .@.........@....
    .@.@@@@@...@....
    .@.@...@...@....
    .@.@@@@@..@.@...
    .@.@...@..@.@...
    .@.@@@@@..@.@...
    .@.@...@.@...@..
    .@.@...@.@...@..
    @..@..@@@.....@.


# 0x49f
0x31, 0x5f:
    ................
    .@@@@@@@@@@@@@..
    .@.....@.....@..
    .@.....@.....@..
    .@.....@.....@..
    .@.....@.....@..
    .@.....@.....@..
    .@.....@.....@..
    .@@@@@@@@@@@@@..
    .@...........@..
    .@...........@..
    .@...........@..
    .@...........@..
    .@...........@..
    .@...........@..
    .@.........@@@..


# 0x4a0
0x31, 0x60:
    .@@@@@@@@@@@@@..
    .@...........@..
    .@.....@.....@..
    .@..@@@@@@@..@..
    .@.....@.....@..
    .@.@@@@@@@@@.@..
    .@...........@..
    .@..@@@@@@@..@..
    .@..@.....@..@..
    .@..@@@@@@@..@..
    .@.....@@....@..
    .@...@@.@.@..@..
    .@.@@.@..@...@..
    .@....@...@@.@..
    .@...........@..
    .@@@@@@@@@@@@@..


# 0x4a1
0x31, 0x61:
    ................
    ..@..@@@@@@@@@@.
    ..@..@..........
    ..@..@..@@@@@@..
    ..@..@..@....@..
    @@@@.@..@@@@@@..
    ..@..@..@....@..
    ..@..@..@@@@@@..
    ..@..@....@.....
    ..@..@@@@@@@@@@.
    ..@..@...@...@..
    ..@@@@..@@..@...
    @@...@....@@....
    .....@..@@..@...
    .....@.@.....@..
    .....@@@@@@@@@@.


# 0x4a2
0x31, 0x62:
    .......@........
    .......@........
    @@@@@@@@@@@@@@@.
    ......@.@.......
    .....@...@......
    ....@..@..@.....
    ..@@@@@@@@@@@...
    @@.@...@...@.@@.
    ...@...@...@....
    ...@@@@@@@@@....
    ...@...@...@....
    ...@...@...@....
    ...@@@@@@@@@....
    .......@......@.
    .......@......@.
    ........@@@@@@@.


# 0x4a3
0x31, 0x63:
    .......@........
    @@@@@@@@@@@@@@@.
    @.............@.
    @..@@@@@@@@@..@.
    @..@.......@..@.
    ...@@@@@@@@@....
    ...@.......@....
    ...@@@@@@@@@....
    ......@.........
    @@@@@@@@@@@@@@@.
    .....@.....@....
    ....@.....@.....
    ...@@@...@......
    ......@@@.......
    ...@@@...@@.....
    @@@........@@...


# 0x4a4
0x31, 0x64:
    ............@@..
    @@@@.....@@@....
    ...@..@@@.@.....
    ..@.......@.....
    ..@.......@.....
    .@.....@..@.....
    .@@@@..@..@@@@..
    ....@..@..@.....
    ....@..@..@.....
    ....@..@..@.....
    @..@...@..@.....
    .@.@...@..@.....
    ..@..@@@@@@@@@@.
    ..@@............
    .@..@@..........
    @.....@@@@@@@@@.


# 0x4a5
0x31, 0x65:
    ..@.............
    ..@@@@@.@@@@@@..
    ..@...@.@....@..
    .@....@.@....@..
    @.@..@..@....@..
    ...@.@..@..@@...
    ....@...@.......
    ...@....@.....@.
    ..@.....@.....@.
    .@.......@@@@@@.
    ......@.........
    ..@.@..@...@....
    ..@.@...@...@...
    .@..@.....@..@..
    @...@.....@..@..
    .....@@@@@@.....


# 0x4a6
0x31, 0x66:
    ..@......@......
    ..@......@......
    ..@..@@@@@@@@@@.
    @@@@@...@.@.....
    ..@....@...@....
    ..@...@..@..@...
    ..@..@.@@@@@.@..
    ..@...@..@..@...
    ..@@@.@..@..@...
    @@@...@@@@@@@...
    ..@...@..@..@...
    ..@...@..@..@...
    ..@...@@@@@@@...
    ..@......@....@.
    ..@......@....@.
    .@@.......@@@@@.


# 0x4a7
0x31, 0x67:
    ..@..........@..
    ..@..@@@@@@@@...
    ..@...@..@...@..
    @@@@@..@..@..@..
    ..@....@..@.@...
    ..@..@@@@@@@@@..
    ..@.....@.......
    ..@.@@@@@@@@@@@.
    ..@@....@.......
    @@@.....@@@@@@..
    ..@....@.....@..
    ..@...@.@...@...
    ..@..@...@.@....
    ..@.@.....@.....
    ..@.....@@.@@...
    .@@...@@.....@@.


# 0x4a8
0x31, 0x68:
    ......@...@.....
    .@....@...@.....
    ..@...@...@.....
    ......@....@....
    .....@.....@....
    @....@......@...
    .@..@........@..
    ...@..........@.
    .....@@@@@@@@...
    ..@..@......@...
    ..@..@......@...
    ..@..@......@...
    .@...@......@...
    .@...@......@...
    @....@@@@@@@@...
    .....@......@...


# 0x4a9
0x31, 0x69:
    .........@......
    .@.......@......
    ..@.@@@@@@@@@@@.
    ....@.........@.
    ....@.@@@@@@@.@.
    @........@......
    .@...@@@@@@@@@..
    .....@...@...@..
    .....@...@...@..
    ..@..@@@@@@@@@..
    ..@..@...@...@..
    ..@..@...@...@..
    .@...@@@@@@@@@..
    .@.....@...@....
    @.....@.....@...
    ....@@.......@@.


# 0x4aa
0x31, 0x6a:
    .......@........
    .@.....@.....@..
    ..@....@....@...
    ...@..@.@..@....
    ......@.@.......
    .....@...@......
    ...@@.....@@....
    .@@....@....@@..
    .......@........
    ..@....@....@...
    ...@..@.@..@....
    ......@.@.......
    .....@...@......
    ....@.....@.....
    ..@@.......@@...
    @@...........@@.


# 0x4ab
0x31, 0x6b:
    ..@......@......
    ..@......@@@@@@.
    ..@......@....@.
    @.@..@..@.....@.
    @.@.@..@.....@..
    @.@@..@.....@...
    @.@.............
    ..@...@.@@@@@@@.
    ..@...@.@.....@.
    ..@...@.@.....@.
    ..@...@.@.....@.
    ..@@..@.@@@@@@@.
    .@..@.@.@.....@.
    .@....@.@.....@.
    .@....@.@.....@.
    @.....@.@@@@@@@.


# 0x4ac
0x31, 0x6c:
    ..@.............
    ..@...@@@@@@@@@.
    ..@......@.@....
    @.@......@.@....
    @.@.@.@@@@@@@@@.
    @.@@..@..@.@..@.
    @.@...@..@.@..@.
    ..@...@..@.@..@.
    ..@...@..@.@..@.
    ..@...@@@@@@@@@.
    ..@.......@.....
    ..@@......@.....
    .@..@..@@@@@@@..
    .@........@.....
    .@........@.....
    @....@@@@@@@@@@.


# 0x4ad
0x31, 0x6d:
    ....@....@......
    @@@@@@@@@@@@@@@.
    ....@....@......
    ..@.@@@@@@.@....
    ..@........@..@.
    @@@..@@@@..@@@..
    ..@..@..@..@....
    ..@..@..@..@....
    .@@..@..@..@....
    @.@..@..@..@..@.
    ..@..@@@@...@@@.
    ................
    ..@..@..@...@...
    ..@...@..@...@..
    .@....@...@...@.
    @.....@...@...@.


# 0x4ae
0x31, 0x6e:
    ....@....@......
    @...@.@@@@@@@...
    .@.@.....@......
    ..@......@......
    .@.@.@@@@@@@@@@.
    @..@............
    ...@..@@@@@@@...
    ....@.@.....@...
    ...@@.@.....@...
    ..@.@.@@@@@@@...
    .@..@...@.@...@.
    @...@..@..@..@..
    ....@.@@...@@...
    ...@.@.@....@...
    ..@....@..@..@..
    @@...@@@@@....@.


# 0x4af
0x31, 0x6f:
    ...@............
    ..@...@@@@@@@...
    .@..........@...
    @...@..@@@@@@...
    .@.@........@...
    ..@...@@@@@@@@@.
    .@..@....@......
    @@@@@...@.....@.
    ..@...@@.@...@..
    ..@......@@.@...
    @.@.@...@.@@....
    @.@.@.@@..@.@...
    @.@.@....@@..@..
    @.@....@@.@...@.
    ..@.......@.....
    ..@.....@@......


# 0x4b0
0x31, 0x70:
    ..@.@.....@.....
    @@@@@@@...@@@@@.
    @.@.@.@..@....@.
    @@@@@@@.@....@..
    @.@.@.@@....@...
    @@@@@@@.@@@@@@@.
    ........@..@..@.
    @@@@@@@.@..@..@.
    ........@..@..@.
    .@@@@@@.@..@..@.
    .@....@.@@@@@@@.
    .@....@.@.......
    .@@@@@@.@.......
    ..@..@..@.....@.
    ..@..@..@.....@.
    @@@@@@@..@@@@@@.


# 0x4b1
0x31, 0x71:
    .....@....@.....
    .....@....@.....
    @@@@@@@@@@@@@@@.
    .....@....@.....
    .....@....@.....
    ..@.............
    ..@@@@@.@@@@@@..
    ..@...@.@....@..
    ..@...@.@....@..
    .@.@..@.@....@..
    @...@.@.@....@..
    .....@..@..@@@..
    .....@..@.......
    ....@...@.......
    ...@....@.....@.
    @@@......@@@@@@.


# 0x4b2
0x31, 0x72:
    ....@.....@.....
    @@@@@@@@@@@@@@@.
    ....@.....@.....
    .@@@@@@@@@@@@@..
    .@.....@.....@..
    .@..@@@@@@@..@..
    .@.....@.....@..
    .@.@@@@@@@@@.@..
    .@..@.....@..@..
    .@..@.....@..@..
    .@..@@@@@@@..@..
    .@....@@..@..@..
    .@...@.@@@...@..
    .@.@@..@..@@.@..
    .@.....@.....@..
    .@@@@@@@@@@@@@..


# 0x4b3
0x31, 0x73:
    .........@......
    @....@@@@@@@@@..
    .@.......@......
    ..@.@@@@@@@@@@@.
    ................
    ......@@@@@@@...
    ......@.....@...
    @@@...@.....@...
    ..@...@@@@@@@...
    ..@.....@@...@..
    ..@....@.@@.@...
    ..@...@..@.@....
    ..@..@...@..@...
    ..@......@...@@.
    .@.@............
    @...@@@@@@@@@@@.


# 0x4b4
0x31, 0x74:
    ...@.....@..@...
    ..@.@....@..@...
    .@...@...@..@...
    @.......@....@..
    .@@@@@..@....@..
    ...@...@......@.
    ...@............
    @@@@@@@.........
    ...@....@@@@@@..
    @..@.@..@....@..
    @..@.@..@....@..
    .@.@.@..@....@..
    .@.@....@....@..
    ...@@@..@....@..
    @@@@....@@@@@@..
    ........@....@..


# 0x4b5
0x31, 0x75:
    ..@.............
    ..@@@@@..@@@@...
    .@....@..@..@...
    @.@..@...@....@.
    ...@@..@..@@@@@.
    ...@..@.........
    ..@@@@@@@@@@....
    .@@........@....
    @.@@@@@@@@@@....
    ..@........@....
    ..@@@@@@@@@@@@@.
    ..@.............
    ..@@@@@@@@@@@@..
    .............@..
    .@..@..@..@..@..
    @...@..@..@.@...


# 0x4b6
0x31, 0x76:
    ..@...@.........
    ..@...@.........
    ..@...@@@@@@@@@.
    ..@..@..........
    ..@.@..@@@@@@...
    @@@@@..@....@...
    ..@....@....@...
    ..@....@@@@@@...
    ..@.............
    ..@...@@@@@@@@..
    ..@...@.@..@.@..
    ..@.@.@.@..@.@..
    ..@@..@.@..@.@..
    @@....@.@..@.@..
    ......@.@..@.@..
    ....@@@@@@@@@@@.


# 0x4b7
0x31, 0x77:
    ...@.......@....
    ...@.......@....
    ...@......@.@...
    @@@@@@@..@...@..
    ..@.....@.....@.
    ..@....@........
    ..@......@@.....
    ..@@@@@....@....
    ..@...@.....@...
    ..@...@......@..
    ..@...@.@@......
    ..@...@...@.....
    ..@...@....@....
    ..@...@.....@...
    .@....@......@..
    @...@@..........


# 0x4b8
0x31, 0x78:
    ................
    .@..@@@@@@@@@...
    ..@....@........
    .......@........
    .......@........
    @..@@@@@@@@@@@@.
    .@.....@........
    .......@........
    ......@@@@@@@...
    ..@..@......@...
    ..@.........@...
    ..@.........@...
    .@..........@...
    .@..........@...
    @...........@...
    ........@@@@....


# 0x4b9
0x31, 0x79:
    ...@............
    ...@...@@@@@@@..
    .@.@...@..@..@..
    .@.@...@..@..@..
    .@@@@@.@@@@@@@..
    .@.@...@..@..@..
    @..@...@..@..@..
    ...@...@@@@@@@..
    .@@@@.....@.....
    ...@..@@@@@@@@@.
    ...@......@...@.
    ...@.@....@...@.
    ...@@.....@...@.
    @@@......@....@.
    ........@.....@.
    ......@@....@@..


# 0x4ba
0x31, 0x7a:
    ................
    .@@@@@...@@@@@..
    .@...@...@...@..
    .@...@...@...@..
    .@...@...@...@..
    .@...@...@...@..
    .@...@...@...@..
    .@...@@@@@...@..
    .@...........@..
    .@...........@..
    .@...........@..
    .@...........@..
    .@...........@..
    .@...........@..
    .@@@@@@@@@@@@@..
    .@...........@..


# 0x4bb
0x31, 0x7b:
    .......@........
    .......@........
    .......@........
    ..@@@@@@@@@@@...
    ..@....@....@...
    ..@....@....@...
    ..@....@....@...
    ..@....@....@...
    ..@....@....@...
    @@@@@@@@@@@@@@@.
    ......@.@.......
    .....@...@......
    ....@.....@.....
    ...@.......@....
    ..@.........@...
    @@...........@@.


# 0x4bc
0x31, 0x7c:
    .......@........
    ......@.........
    ..@@@@@@@@@@@...
    ..@.........@...
    ..@.@..@..@.@...
    ..@..@.@.@..@...
    ..@.@@@@@@@.@...
    ..@....@....@...
    ..@..@.@.@..@...
    ..@.@..@..@.@...
    .......@........
    @@@@@@@@@@@@@@@.
    ......@.@.......
    .....@...@......
    ...@@.....@@....
    .@@.........@@..


# 0x4bd
0x31, 0x7d:
    .......@........
    ...@....@.......
    ..@......@......
    .@..............
    @....@@@@@@@@@..
    ...@.....@......
    ..@......@......
    .@@......@......
    @.@......@......
    ..@...@@@@@@@...
    ..@......@......
    ..@......@......
    ..@......@......
    ..@......@......
    ..@......@......
    ..@.@@@@@@@@@@@.


# 0x4be
0x31, 0x7e:
    .......@........
    .......@........
    .@@@@@@@@@@@@@@.
    .@..............
    .@....@@........
    .@......@.......
    .@.......@......
    .@.....@..@.....
    .@..@..@........
    .@..@..@....@...
    .@..@..@.....@..
    .@..@..@......@.
    .@..@..@......@.
    .@.@...@....@.@.
    .@.....@....@...
    @.......@@@@....


# 0x4bf
0x31, 0x7f:
    @...............
    @@@@@@@@@@@@@@@@
    @...............
    @...............
    @...............
    @...............
    @@@@@@@@@@@@@@@@
    @...............
    @...............
    @...............
    @...............
    @@@@@@@@@@@@@@@@
    @...............
    @...............
    @...............
    @...............


# 0x4c0
0x32, 0x20:
    ................
    ................
    ................
    ................
    ...@@@...@@@....
    ..@...@.@...@...
    ..@...@.@...@...
    .....@..@...@...
    ....@...@...@...
    ...@....@...@...
    ..@...@.@...@...
    ..@@@@@..@@@....
    ................
    ................
    ................
    ................


# 0x4c1
0x32, 0x21:
    ..@.............
    ..@...@@@@@@@@@.
    ..@...@...@...@.
    @@@@@.@...@...@.
    ..@...@...@...@.
    ..@...@@@@@@@@@.
    ..@...@...@...@.
    ..@.@.@...@...@.
    ..@@..@...@...@.
    @@@...@@@@@@@@@.
    ..@...@...@...@.
    ..@.......@.....
    ..@.......@.....
    ..@.......@.....
    ..@.......@.....
    .@@.......@.....


# 0x4c2
0x32, 0x22:
    ................
    ......@@@@@@@@..
    .@@@@.....@.....
    .@..@.....@.....
    .@..@.....@.....
    .@..@.....@.....
    .@..@.....@.....
    .@@@@.@@@@@@@@..
    .@..@.....@.....
    .@..@.....@.....
    .@..@.....@.....
    .@..@.....@.....
    .@@@@.....@.....
    .@........@.....
    .....@@@@@@@@@@.
    ................


# 0x4c3
0x32, 0x23:
    ..@.....@..@....
    ..@.....@..@....
    ..@...@@@@@@@@..
    @@@@@...@..@....
    ..@.....@..@....
    ..@..@@@@@@@@@@.
    .@@......@......
    .@@@..@@@@@@@...
    @.@.@.@..@..@...
    @.@...@..@..@...
    @.@...@@@@@@@...
    ..@...@..@..@...
    ..@...@..@..@...
    ..@...@@@@@@@...
    ..@....@...@....
    ..@..@@.....@@..


# 0x4c4
0x32, 0x24:
    .........@......
    .@@@@@@..@......
    .@.......@......
    .@....@..@@@@@@.
    .@....@.@.@...@.
    .@@..@..@.@..@..
    .@.@.@.@..@.....
    .@..@.....@.....
    .@..@....@.@....
    .@.@.@...@.@....
    .@.@..@..@.@....
    .@@...@.@...@...
    .@......@...@...
    .@@@@@.@.....@..
    .@.....@.....@..
    ......@.......@.


# 0x4c5
0x32, 0x25:
    ................
    ........@@@@@...
    .@@@@@@.@...@...
    .@......@...@...
    .@....@.@...@.@.
    .@....@.@...@.@.
    .@@..@..@...@@@.
    .@.@.@.@........
    .@..@...@@@@@@..
    .@..@@.......@..
    .@.@..@.@....@..
    .@@...@..@..@...
    .@........@@....
    .@........@@....
    .@@@@@@..@..@...
    .@.....@@....@@.


# 0x4c6
0x32, 0x26:
    ................
    .@@@@@@@@@@@@@..
    .......@........
    .......@........
    .......@........
    .......@........
    .......@........
    ..@@@@@@@@@@@...
    .......@........
    .......@........
    .......@........
    .......@........
    .......@........
    .......@........
    @@@@@@@@@@@@@@@.
    ................


# 0x4c7
0x32, 0x27:
    .....@..@@......
    ....@.....@.....
    ...@..@....@....
    ..@...@..@..@...
    @@...@....@..@@.
    ....@...@@@@....
    ..@@@@@@...@....
    ................
    @@@@@@@.@@@@@@..
    ......@......@..
    .@....@.@....@..
    ..@..@@..@..@@..
    ....@.@....@.@..
    ...@..@...@..@..
    .@@...@.@@...@..
    .....@@.....@@..


# 0x4c8
0x32, 0x28:
    ..@.......@.....
    ..@......@......
    ..@...@@@@@@@@@.
    @@@@@.@...@...@.
    ....@.@.@.@.@.@.
    ....@.@..@@@..@.
    ...@..@@@@@@@@@.
    ...@..@...@...@.
    ..@...@..@@@..@.
    ..@.@.@.@.@.@.@.
    .@@@......@.....
    @.@.@.@@@@@@@@@.
    ..@.......@.....
    ..@......@.@....
    ..@.....@...@...
    ..@...@@.....@@.


# 0x4c9
0x32, 0x29:
    ..@...@.....@...
    ...@...@...@....
    @@@@@@@@@@@@@@@.
    @......@......@.
    @..@@@@@@@@@..@.
    ...@.......@....
    ...@@@@@@@@@....
    ...@.......@....
    ...@@@@@@@@@....
    ...@............
    ...@@@@@@@@@@@@.
    ...@............
    ...@@@@@@@@@@@@.
    .@..@..@..@...@.
    @@...@..@..@..@.
    @............@@.


# 0x4ca
0x32, 0x2a:
    ...........@....
    @@@@@@@.@@@@@@..
    @.......@....@..
    @....@..@@@@@@..
    @....@..@....@..
    @....@..@@@@@@..
    @.@.@...@.......
    @..@@...@@@@@@@.
    @...@...@.......
    @..@.@..@@@@@@@.
    @..@..@.......@.
    @.@...@...@.@.@.
    @.......@..@.@@.
    @@@@@@@..@.@..@.
    @......@.@....@.
    .......@....@@..


# 0x4cb
0x32, 0x2b:
    ....@.....@.....
    ....@.....@.....
    .@@@@@@@@@@@@@..
    ....@.....@.....
    ....@.....@.....
    @@@@@@@@@@@@@@@.
    .......@........
    ..@@@@@@@@@@@...
    ..@....@....@...
    ..@....@....@...
    ..@@@@@@@@@@@...
    ..@....@....@...
    ..@....@....@...
    ..@@@@@@@@@@@...
    ....@.....@.....
    .@@@.......@@@..


# 0x4cc
0x32, 0x2c:
    ................
    .@@@@@@@@@@@@@..
    .@...........@..
    .@..@.....@..@..
    .@...@....@..@..
    .@...@...@...@..
    .@.@@@@@@@@@.@..
    .@.....@.....@..
    .@..@..@..@..@..
    .@..@..@..@..@..
    .@..@..@..@..@..
    .@..@..@..@..@..
    .@..@@@@@@@..@..
    .@..@.....@..@..
    .@...........@..
    .@.........@@@..


# 0x4cd
0x32, 0x2d:
    .........@......
    .@.......@......
    ..@......@......
    .........@......
    .....@@@@@@@@@@.
    @....@...@....@.
    .@...@...@....@.
    .....@...@....@.
    .....@...@....@.
    ..@..@...@....@.
    ..@..@@@@@@@@@@.
    ..@..@...@....@.
    .@.......@......
    .@.......@......
    @........@......
    .........@......


# 0x4ce
0x32, 0x2e:
    ....@.....@.....
    @@@@@@@@@@@@@@@.
    ....@.....@.....
    ................
    ....@.....@.....
    .@..@.....@.....
    ..@@..@...@..@..
    ...@...@..@..@..
    ..@.@..@..@.@...
    .@..@.....@.....
    @...@....@.@....
    ...@@....@.@....
    ..@.@...@...@...
    .@..@...@...@...
    @...@..@.....@..
    ..@@@.@.......@.


# 0x4cf
0x32, 0x2f:
    ....@....@......
    ....@@@@@@@@@@..
    ...@..@....@....
    ...@...@..@.....
    ..@.@@@@@@@@@@@.
    .@@.............
    @.@..@@@@@@@@...
    ..@..@......@...
    ..@..@@@@@@@@...
    ..@..@......@...
    ..@..@@@@@@@@...
    ..@.............
    ..@..@.@.@..@...
    ..@..@.@..@..@..
    ..@.@..@....@.@.
    ..@.@..@@@@@@...


# 0x4d0
0x32, 0x30:
    .@@@@@@@@@@@@@..
    .@...........@..
    .@...........@..
    .@@@@@@@@@@@@@..
    .@..............
    .@.@@@@@@@@@@@..
    .@.....@........
    .@....@....@....
    .@...@......@...
    .@.@@@@@@@@@@@..
    .@......@....@..
    .@......@.......
    .@.@@@@@@@@@@@..
    .@......@.......
    @.......@.......
    @.@@@@@@@@@@@@@.


# 0x4d1
0x32, 0x31:
    ..@......@......
    ..@..@@@@@@@@@..
    ..@...@.....@...
    .@@@...@...@....
    .@@.@@@@@@@@@@@.
    @.@.@...........
    @.@...@@@@@@@...
    @.@...@.....@...
    ..@...@@@@@@@...
    ..@...@.....@...
    ..@...@@@@@@@...
    ..@.............
    ..@..@.@.@..@...
    ..@..@.@..@..@..
    ..@.@..@....@.@.
    ..@.@..@@@@@@...


# 0x4d2
0x32, 0x32:
    ..........@.....
    .@@@@.@@@@@@@@..
    .@..@..@....@...
    .@..@...@..@....
    .@..@.@@@@@@@@@.
    .@@@@...........
    .@..@..@@@@@@@..
    .@..@..@.....@..
    .@..@..@@@@@@@..
    .@@@@..@.....@..
    .@..@..@@@@@@@..
    .@..@...........
    .@..@...@.@..@..
    @...@.@.@..@..@.
    @...@.@.@...@.@.
    @..@@.@.@@@@@...


# 0x4d3
0x32, 0x33:
    ...@............
    ...@..@@@@@@@@..
    ...@....@...@...
    @@@@@@...@.@....
    ...@......@.....
    ...@..@@@@@@@@..
    ..@@@.@..@...@..
    ..@@.@@..@...@..
    .@.@..@@@@@@@@..
    .@.@..@..@...@..
    @..@..@..@...@..
    @..@..@@@@@@@@..
    ...@..@..@...@..
    ...@..@..@...@..
    ...@..@..@...@..
    ...@..@..@..@@..


# 0x4d4
0x32, 0x34:
    ....@.....@.....
    .@..@.....@.....
    .@..@.....@.....
    .@@@@@@...@.....
    .@..@.....@.....
    .@..@.@@@@@@@@..
    @...@.....@.....
    ....@.....@.....
    ....@.@...@.....
    ....@@....@.....
    ..@@@.....@.....
    @@..@.....@.....
    ....@.....@.....
    ....@.....@.....
    ....@.....@.....
    ....@.@@@@@@@@@.


# 0x4d5
0x32, 0x35:
    ................
    ..@@@@@@@@@@....
    ..........@.....
    .........@......
    ........@.......
    .......@........
    ......@.........
    .....@..........
    ....@...........
    ...@............
    ..@...........@.
    .@............@.
    .@............@.
    .@............@.
    ..@@..........@.
    ....@@@@@@@@@@..


# 0x4d6
0x32, 0x36:
    ...@.....@......
    ...@.....@......
    ...@.@@@@@@@@@@.
    ..@.....@.@.....
    ..@....@...@....
    .@@...@.@...@...
    .@@..@..@....@..
    @.@.@@@@@@@@@.@.
    @.@..@..@...@...
    ..@..@@@@@@@@...
    ..@..@..@...@...
    ..@..@..@...@...
    ..@..@@@@@@@@...
    ..@.....@.......
    ..@.....@.....@.
    ..@......@@@@@@.


# 0x4d7
0x32, 0x37:
    ..@.............
    ..@.....@@@@@@..
    ..@@@@@.@....@..
    .@..@...@....@..
    .@..@...@....@..
    @...@...@....@..
    .@@@@@@.@....@..
    ....@...@....@..
    ....@...@....@..
    .@..@@@.@....@..
    .@..@...@....@..
    .@..@...@....@..
    .@..@.@.@....@..
    .@..@@..@..@@@..
    @@@@....@.......
    ........@.......


# 0x4d8
0x32, 0x38:
    ................
    ..@@@@@@@@@@@...
    ..@....@....@...
    ..@.@@@@@@@.@...
    ..@....@....@...
    ..@...@.@...@...
    ..@..@...@..@...
    ..@.@.....@.@...
    ..@.........@...
    ..@@@@@@@@@@@...
    ................
    ....@..@....@...
    ..@.@...@....@..
    .@..@...@..@..@.
    @...@......@..@.
    .....@@@@@@@....


# 0x4d9
0x32, 0x39:
    ................
    .@....@@@@@@@...
    ..@...@.....@...
    ...@..@.....@...
    ......@@@@@@@...
    @.....@.....@...
    .@....@.....@...
    ..@...@@@@@@@...
    ................
    ...@.@@@@@@@@@..
    ...@.@..@.@..@..
    ..@..@..@.@..@..
    ..@..@..@.@..@..
    .@...@..@.@..@..
    @....@..@.@..@..
    ....@@@@@@@@@@@.


# 0x4da
0x32, 0x3a:
    ....@.......@@..
    ..@@..@@@@@@....
    @@@...@..@...@..
    ..@....@..@..@..
    ..@....@..@.@...
    @@@@@.@@@@@@@@..
    ..@..........@..
    .@@@..@@@@@@@@..
    @.@.@........@..
    @.@.@.@@@@@@@@..
    @.@.............
    ..@..@.@.@...@..
    ..@..@.@..@...@.
    ..@..@.@..@.@.@.
    ..@.@..@....@...
    ..@.....@@@@@...


# 0x4db
0x32, 0x3b:
    .......@........
    .......@........
    .@@@@@@@@@@@@@..
    ...@......@.....
    ....@.....@.....
    ....@.....@.....
    ....@....@......
    @@@@@@@@@@@@@@@.
    ................
    ...@@@@@@@@@....
    ...@.......@....
    ...@.......@....
    ...@@@@@@@@@....
    ...@.......@....
    ...@.......@....
    ...@@@@@@@@@....


# 0x4dc
0x32, 0x3c:
    ................
    @@@@@@@@@@@@@@@.
    ......@.........
    ......@.........
    ......@.........
    ......@.........
    ......@@@.......
    ......@..@@.....
    ......@....@....
    ......@.....@...
    ......@.........
    ......@.........
    ......@.........
    ......@.........
    ......@.........
    ......@.........


# 0x4dd
0x32, 0x3d:
    ....@..@........
    ....@..@........
    ...@...@........
    ...@...@......@.
    ..@....@.....@..
    ..@@...@...@@...
    .@.@...@.@@.....
    .@.@...@@.......
    @..@...@........
    ...@...@........
    ...@...@........
    ...@...@........
    ...@...@......@.
    ...@...@......@.
    ...@...@......@.
    ...@....@@@@@@@.


# 0x4de
0x32, 0x3e:
    ...@............
    ...@..@@@@@@@@@.
    ...@..@.........
    ..@...@.........
    ..@...@.........
    .@@...@@@@@@@@..
    .@@...@.@....@..
    @.@...@.@....@..
    @.@...@.@....@..
    ..@...@..@..@...
    ..@...@..@..@...
    ..@..@....@@....
    ..@..@....@.....
    ..@..@...@.@....
    ..@.@...@...@...
    ..@.@.@@.....@@.


# 0x4df
0x32, 0x3f:
    ...@............
    ...@.@@@@@@@@@@.
    ...@........@...
    ..@.........@...
    ..@..@@@@@..@...
    .@@..@...@..@...
    .@@..@...@..@...
    @.@..@...@..@...
    @.@..@...@..@...
    ..@..@...@..@...
    ..@..@@@@@..@...
    ..@..@......@...
    ..@.........@...
    ..@.........@...
    ..@.........@...
    ..@........@@...


# 0x4e0
0x32, 0x40:
    ...@..@.........
    ...@..@.........
    ...@..@...@@@@..
    ..@.@@@@@.@..@..
    ..@...@.@.@..@..
    .@@...@.@.@..@..
    .@@...@.@.@..@..
    @.@...@.@.@..@..
    @.@...@.@.@..@..
    ..@...@.@.@..@..
    ..@...@.@.@..@..
    ..@..@..@.@..@..
    ..@..@..@.@..@..
    ..@..@..@.@..@..
    ..@.@...@.@@@@..
    ..@.@.@@..@..@..


# 0x4e1
0x32, 0x41:
    ...@............
    ...@@@@@@@@@@@@.
    ...@...@..@.....
    ..@....@..@.....
    ..@....@..@.....
    .@@.@@@@@@@@@@..
    .@@.@..@..@..@..
    @.@.@..@..@..@..
    @.@.@..@..@..@..
    ..@.@..@..@..@..
    ..@.@..@..@..@..
    ..@.@..@..@..@..
    ..@.@..@..@..@..
    ..@.@..@..@..@..
    ..@.@@@@@@@@@@..
    ..@.@........@..


# 0x4e2
0x32, 0x42:
    ...@.....@......
    ...@.....@......
    ...@.....@......
    ..@..@@@@@@@@@..
    ..@......@......
    .@@......@......
    .@@.@@@@@@@@@@@.
    @.@......@......
    @.@......@......
    ..@......@......
    ..@..@@@@@@@@@..
    ..@......@......
    ..@......@......
    ..@......@......
    ..@.@@@@@@@@@@@.
    ..@.............


# 0x4e3
0x32, 0x43:
    ...@............
    ...@............
    ...@.....@@@@@..
    @@@@@@@..@...@..
    ...@..@..@...@..
    ...@..@..@...@..
    ...@..@..@...@..
    ...@..@..@...@..
    ...@..@..@...@..
    ...@..@..@...@..
    ..@...@..@...@..
    ..@...@..@...@..
    ..@...@..@...@..
    .@....@..@...@..
    .@....@..@@@@@..
    @...@@...@...@..


# 0x4e4
0x32, 0x44:
    ................
    @@@@@@@@@@@@@@..
    ...........@....
    ...........@....
    ...........@....
    ..@@@@@@...@....
    ..@....@...@....
    ..@....@...@....
    ..@....@...@....
    ..@....@...@....
    ..@....@...@....
    ..@@@@@@...@....
    ..@........@....
    ...........@....
    ...........@....
    .........@@@....


# 0x4e5
0x32, 0x45:
    .......@........
    .@@@@@@@@@@@@@..
    .......@........
    ..@@@@@@@@@@@...
    ................
    ..@@@@@@@@@@@...
    ..@.........@...
    ..@@@@@@@@@@@...
    .....@....@.....
    @@@@@@@@@@@@@@@.
    ...@............
    .@@@@@@..@@@@@..
    ...@..@..@...@..
    ...@..@..@...@..
    ..@...@..@...@..
    .@..@@...@@@@@..


# 0x4e6
0x32, 0x46:
    @@@@@@@@@@@@@@@.
    .......@........
    ..@@@@@@@@@@@...
    ..@.........@...
    ..@@@@@@@@@@@...
    ..@.........@...
    ..@@@@@@@@@@@...
    ..@.........@...
    ..@@@@@@@@@@@...
    .....@..........
    ....@@@@@@@@....
    ...@@.....@.....
    .@@..@...@......
    ......@@@.......
    ...@@@...@@@....
    @@@.........@@@.


# 0x4e7
0x32, 0x47:
    ..@.......@.....
    ..@.......@.....
    ..@...@@@@@@@@@.
    @@@@@.@.......@.
    .@..@.@.......@.
    .@..@..@@@@@@@..
    .@..@....@......
    .@..@...@@...@..
    .@..@.@@..@..@..
    .@..@....@@.@...
    @.@.@...@.@.@...
    ...@..@@..@@....
    ...@@....@@.@...
    ..@..@..@.@.@...
    .@....@@..@..@..
    @........@....@.


# 0x4e8
0x32, 0x48:
    .......@........
    .......@........
    @@@@@@@@@@@@@@@.
    @.............@.
    @.............@.
    @.@@@@@@@@@@@.@.
    .....@@.........
    ...@@..@....@...
    .@@....@...@....
    .....@@.@.@.....
    ...@@...@@......
    .@@....@@.@.....
    .....@@.@..@....
    ...@@...@...@...
    .@@.....@....@..
    ......@@........


# 0x4e9
0x32, 0x49:
    .......@........
    @@@@@@@@@@@@@@@.
    @.............@.
    @.@@@@@@@@@@@.@.
    .......@........
    ...@@@@@@@@@....
    ...@.......@....
    ...@@@@@@@@@....
    ...@.......@....
    @@@@@@@@@@@@@@@.
    ....@.....@.....
    ...@@@@@@@@@....
    ..@....@...@@...
    @@....@....@.@@.
    ....@@.....@....
    .@@@.....@@.....


# 0x4ea
0x32, 0x4a:
    ....@@......@...
    ..@@...@....@...
    @@.@....@...@...
    ...@.....@..@...
    ...@........@...
    @@@@@@......@...
    ...@...@....@...
    ...@@...@...@...
    ..@@.@...@..@...
    ..@@..@.....@...
    .@.@........@@@.
    .@.@.....@@@@...
    @..@..@@@...@...
    ...@........@...
    ...@........@...
    ...@........@...


# 0x4eb
0x32, 0x4b:
    ................
    .....@@@@.@@@@..
    @@@@.@..@....@..
    @..@.@..@....@..
    @..@.@..@....@..
    @..@.@@@@.@@@@..
    @..@.@..........
    @@@@.@..........
    @..@.@@@@.@@@@..
    @..@.@.......@..
    @..@.@....@..@..
    @..@.@@@@.@..@..
    @@@@.@....@.@...
    @....@.....@....
    .....@....@.@...
    .....@..@@...@@.


# 0x4ec
0x32, 0x4c:
    ................
    ..@@@@@@@@@@@...
    ..@....@....@...
    ..@....@....@...
    ..@@@@@@@@@@@...
    ..@....@....@...
    ..@....@....@...
    ..@@@@@@@@@@@...
    .......@........
    @@@@@@@@@@@@@@@.
    ......@@@.......
    .....@.@.@......
    ....@..@..@.....
    ..@@...@...@@...
    @@.....@.....@@.
    .......@........


# 0x4ed
0x32, 0x4d:
    ...@............
    @@@@@@@..@@@@@..
    ...@..@..@...@..
    ...@..@..@...@..
    ..@...@..@...@..
    ..@...@..@...@..
    .@....@..@...@..
    @...@@.@.@@@@@..
    .......@........
    @@@@@@@@@@@@@@@.
    ......@@@.......
    .....@.@.@......
    ....@..@..@.....
    ..@@...@...@@...
    @@.....@.....@@.
    .......@........


# 0x4ee
0x32, 0x4e:
    ..........@.....
    @@@@@@@@..@.....
    ......@..@......
    .@@@@.@..@@@@@@.
    .@..@.@..@.@..@.
    .@..@.@.@..@.@..
    .@@@@.@.@..@....
    .....@@....@....
    ...........@....
    @@@@@@@@..@.@...
    ......@...@.@...
    .@@@@.@...@.@...
    .@..@.@..@...@..
    .@..@.@..@...@..
    .@@@@.@..@...@..
    .....@@.@.....@.


# 0x4ef
0x32, 0x4f:
    ................
    .@..@@@@@@@@@@@.
    ..@.........@...
    ............@...
    .....@@@@@..@...
    @....@...@..@...
    .@...@...@..@...
    .....@...@..@...
    .....@...@..@...
    ..@..@...@..@...
    ..@..@@@@@..@...
    ..@..@......@...
    .@..........@...
    .@..........@...
    @...........@...
    .........@@@@...


# 0x4f0
0x32, 0x50:
    .......@........
    .......@........
    .@.....@.....@..
    ..@....@.....@..
    ..@....@.....@..
    ...@...@....@...
    ...@..@.@...@...
    ...@..@.@..@....
    ......@.@.......
    .....@...@......
    .....@...@......
    ....@.....@.....
    ....@.....@.....
    ...@.......@....
    ..@.........@...
    .@...........@..


# 0x4f1
0x32, 0x51:
    ................
    @@@@@.@@@@@@@@@.
    ..@.........@...
    ..@.........@...
    ..@...@@@@@.@...
    ..@...@...@.@...
    ..@...@...@.@...
    @@@@@.@...@.@...
    ..@...@...@.@...
    ..@...@...@.@...
    ..@...@@@@@.@...
    ..@.@.......@...
    ..@@........@...
    @@..........@...
    ............@...
    ..........@@@...


# 0x4f2
0x32, 0x52:
    ..@.............
    ..@....@@@@@@@..
    ..@....@.....@..
    @@@@@..@.....@..
    ....@..@..@@@@..
    ....@..@..@..@..
    ...@...@..@..@..
    ...@..@@@@@@@@@.
    ..@.@.@.......@.
    .@@..@@.@@@@@.@.
    @.@...@.@...@.@.
    ..@...@.@...@.@.
    ..@...@.@...@.@.
    ..@...@.@@@@@.@.
    ..@...@.......@.
    ..@...@......@@.


# 0x4f3
0x32, 0x53:
    ..........@@....
    ......@@@@......
    ..@@@@.@........
    .......@........
    .......@........
    .......@........
    @@@@@@@@@@@@@@@.
    .......@........
    ......@@@.......
    .....@.@.@......
    .....@.@.@......
    ....@..@..@.....
    ...@...@...@....
    ..@....@....@...
    @@.....@.....@@.
    .......@........


# 0x4f4
0x32, 0x54:
    ....@....@......
    ...@.....@......
    @@@..@@@@@@@@@@.
    ..@..@........@.
    ..@..@........@.
    @@@@@.@@@@@@@@..
    ..@.....@.......
    ..@@...@.@......
    .@@.@.@..@...@..
    .@@..@..@.@.@...
    @.@....@..@@....
    @.@..@@..@@.@...
    ..@.....@.@.@...
    ..@...@@..@..@..
    ..@.......@...@.
    ..@.....@@......


# 0x4f5
0x32, 0x55:
    ..@......@......
    ..@@@@@..@@@@@@.
    ..@.@...@..@....
    .@...@.@....@...
    @...............
    .@@@@@@@@@@@@@..
    .@.....@.....@..
    .@.@@@@@@@@@.@..
    .@.....@.....@..
    .@..@@@@@@@..@..
    .@..@.....@..@..
    .@..@.....@..@..
    .@..@@@@@@@..@..
    .@...........@..
    .@@@@@@@@@@@@@..
    .@...........@..


# 0x4f6
0x32, 0x56:
    ....@.....@.....
    ....@.....@.....
    @@@@@@@@@@@@@@@.
    ....@.....@.....
    ....@.....@.....
    ........@.......
    .....@..@...@...
    ....@...@..@....
    ...@....@.@.....
    ..@@....@@......
    .@.@....@.......
    @..@....@.......
    ...@....@.......
    ...@....@.....@.
    ...@....@.....@.
    ...@.....@@@@@@.


# 0x4f7
0x32, 0x57:
    ....@.....@.....
    ....@.....@.....
    @@@@@@@@@@@@@@@.
    ....@.....@.....
    ....@.....@.....
    ................
    @@@@@@@@@@@@@@@.
    ............@...
    ...@@@@@@...@...
    ...@....@...@...
    ...@....@...@...
    ...@....@...@...
    ...@....@...@...
    ...@@@@@@...@...
    ............@...
    ..........@@@...


# 0x4f8
0x32, 0x58:
    ....@.....@.....
    @@@@@@@@@@@@@@@.
    ....@.....@.....
    ....@.....@.....
    ...@............
    ...@.....@@@@@..
    .@@@@@@..@...@..
    ...@..@..@...@..
    ...@..@..@...@..
    ...@..@..@...@..
    ...@..@..@...@..
    ...@..@..@...@..
    ..@...@..@...@..
    ..@...@..@...@..
    .@...@...@@@@@..
    @..@@....@...@..


# 0x4f9
0x32, 0x59:
    ....@.....@.....
    @@@@@@@@@@@@@@@.
    ....@.....@.....
    ....@.....@.....
    ................
    ...@.@@@@@@@@@@.
    ...@........@...
    ..@...@@@@..@...
    ..@...@..@..@...
    .@@...@..@..@...
    @.@...@..@..@...
    ..@...@..@..@...
    ..@...@@@@..@...
    ..@...@.....@...
    ..@.........@...
    ..@.......@@@...


# 0x4fa
0x32, 0x5a:
    ....@.....@.....
    @@@@@@@@@@@@@@@.
    ....@.....@.....
    ....@.....@.....
    .@@@@@@@@@@@@@..
    ...@...@...@....
    ...@...@...@....
    @@@@@@@@@@@@@@@.
    ...@...@...@....
    ...@...@...@....
    .@@@@@@@@@@@@@..
    .......@........
    .......@........
    @@@@@@@@@@@@@@@.
    .......@........
    .......@........


# 0x4fb
0x32, 0x5b:
    ....@.....@.....
    @@@@@@@@@@@@@@@.
    ....@.....@.....
    ....@.....@.....
    ..@@@@@@@@@@@...
    ..@....@....@...
    ..@@@@@@@@@@@...
    ..@....@....@...
    ..@@@@@@@@@@@...
    .......@........
    @@@@@@@@@@@@@@@.
    ......@@@.......
    .....@.@.@......
    ...@@..@..@@....
    @@@....@....@@@.
    .......@........


# 0x4fc
0x32, 0x5c:
    ..@.............
    ..@...@@@@.@@@..
    ..@...@..@...@..
    @@@@@.@..@...@..
    @.@.@.@..@...@..
    @.@.@.@@@@.@@@..
    @.@.@.@.........
    @.@.@.@.........
    @.@.@.@@@.@@@@..
    @@@@@.@......@..
    ..@...@...@..@..
    ..@.@.@@@.@.@...
    ..@.@.@....@....
    ..@@@.@...@.@...
    @@...@@..@...@..
    ......@.@.....@.


# 0x4fd
0x32, 0x5d:
    ................
    .@@@@..@@@@@@@..
    .......@..@..@..
    @@@@@@.@..@..@..
    .......@@@@@@@..
    .@@@@..@..@..@..
    .......@..@..@..
    .@@@@..@@@@@@@..
    ..........@.....
    .@@@@.@@@@@@@@@.
    .@..@.....@.....
    .@..@....@@@....
    .@..@...@.@.@...
    .@..@..@..@..@..
    .@@@@.@...@...@.
    .@........@.....


# 0x4fe
0x32, 0x5e:
    .......@...@....
    ....@@@@@@@@@@@.
    @@@@...@...@....
    @..@...@...@....
    @..@.@@@@@@@@@@.
    @..@..@..@..@...
    @..@..@..@..@...
    @..@@@@@@@@@@@@.
    @..@..@..@..@...
    @..@..@..@..@...
    @..@.@@@@@@@@@@.
    @@@@.....@......
    .........@......
    ....@@@@@@@@@@@.
    .........@......
    .........@......


# 0x4ff
0x32, 0x5f:
    ....@...@.......
    ...@....@...@@..
    ..@@....@@@@....
    .@.@....@.....@.
    @..@....@.....@.
    ...@.....@@@@@@.
    ................
    ..@@@@@@@@@@@...
    ..@.........@...
    ..@@@@@@@@@@@...
    ..@.........@...
    ..@@@@@@@@@@@...
    ..@.........@...
    ..@@@@@@@@@@@...
    ...@.......@....
    .@@.........@@..


# 0x500
0x32, 0x60:
    ......@.........
    @.....@.........
    .@....@...@@@@..
    ..@.@@@@@.@..@..
    ......@.@.@..@..
    ......@.@.@..@..
    ......@.@.@..@..
    @@@...@.@.@..@..
    ..@...@.@.@..@..
    ..@..@..@.@..@..
    ..@..@..@.@..@..
    ..@..@..@.@..@..
    ..@.@...@.@@@@..
    ..@.@..@@.......
    .@.@............
    @...@@@@@@@@@@@.


# 0x501
0x32, 0x61:
    ................
    @....@@@@@@@@...
    .@...@......@...
    ..@..@..@@@@@...
    .....@..@...@...
    .....@..@...@...
    ....@@@@@@@@@@..
    @@@.@........@..
    ..@.@..@@@@..@..
    ..@.@..@..@..@..
    ..@.@..@..@..@..
    ..@.@..@..@..@..
    ..@.@..@@@@..@..
    ..@.@.......@@..
    .@.@............
    @...@@@@@@@@@@@.


# 0x502
0x32, 0x62:
    ..@@@@@@@@@@@...
    .......@........
    @@@@@@@@@@@@@@@.
    @......@......@.
    @.@@@@.@.@@@@.@.
    @......@......@.
    ..@@@@.@.@@@@...
    ................
    .@@@@@@.@@@@@@..
    .@....@......@..
    .@@@@@@.@@@@@@..
    .@..............
    .@@@@@@.@@@@@@..
    .@.......@..@...
    .@@@@@@...@@....
    .@......@@..@@..


# 0x503
0x32, 0x63:
    ...@......@.....
    ...@......@.....
    ...@......@.....
    .@@@@@@@@@@@@@@.
    .@.@.@.@.....@..
    .@.@.@.@.....@..
    .@.@.@.@.....@..
    .@.@.@.@.....@..
    .@.@.@..@...@...
    .@@@@@..@...@...
    ...@.....@.@....
    ...@.@....@.....
    ...@..@..@.@....
    ...@@@@.@...@...
    @@@....@.....@..
    ......@.......@.


# 0x504
0x32, 0x64:
    ...@...@@.@.....
    ...@.@@...@.@...
    ...@..@...@..@..
    ..@...@...@..@..
    ..@...@...@.....
    .@..@@@@@@@@@@@.
    .@@...@...@.....
    @.@...@...@..@..
    @.@...@...@..@..
    ..@...@@@.@.@...
    ..@.@@@...@.@...
    ..@...@....@....
    ..@...@....@..@.
    ..@...@...@.@.@.
    ..@...@..@...@@.
    ..@..@@.@.....@.


# 0x505
0x32, 0x65:
    ........@.@.....
    ..@..@@@..@.@...
    ..@....@..@..@..
    @.@.@..@..@..@..
    @.@.@..@..@.....
    @.@.@@@@@@@@@@@.
    @.@.@..@..@.....
    @.@.@..@..@..@..
    @.@.@..@..@..@..
    @.@.@..@@@@.@...
    @.@.@@@@..@.@...
    @.@.@..@...@....
    @@@@@..@...@....
    .......@..@.@.@.
    .......@.@...@@.
    ......@@@.....@.


# 0x506
0x32, 0x66:
    ......@..@......
    .....@...@.@....
    .@@@@....@..@...
    ....@....@...@..
    ....@....@......
    @@@@@@@@@@@@@@@.
    ....@....@......
    ....@....@...@..
    ....@.@@.@...@..
    ...@@@....@.@...
    @@@.@.....@.@...
    ....@......@....
    ....@......@..@.
    ....@.....@.@.@.
    ....@....@...@@.
    ...@@...@.....@.


# 0x507
0x32, 0x67:
    ................
    ..@@@@@@@@@@@...
    ...@......@.....
    ...@......@.....
    ...@......@.....
    ...@......@.....
    ...@......@.....
    @@@@@@@@@@@@@@@.
    .........@@.....
    ........@.@.....
    .......@..@.....
    ......@...@.....
    .....@....@.....
    ...@@.....@.....
    .@@.......@.....
    .......@@@@.....


# 0x508
0x32, 0x68:
    ................
    @@@@@@@@@@@@@@@.
    .......@........
    .......@........
    @..@@@@@@@@@..@.
    @..@...@...@..@.
    @..@...@...@..@.
    @..@...@...@..@.
    @..@@@@@@@@@..@.
    @..@...@...@..@.
    @..@...@...@..@.
    @..@...@...@..@.
    @..@@@@@@@@@..@.
    @.............@.
    @.............@.
    @@@@@@@@@@@@@@@.


# 0x509
0x32, 0x69:
    ..........@.....
    .@@@@@@...@.....
    .@..@.....@.....
    .@..@.....@.....
    .@..@.....@.....
    .@@@@@@...@.....
    .@....@..@.@....
    .@....@..@.@....
    .@....@..@.@....
    .@@@@@@.@...@...
    .@..@...@...@...
    .@..@...@...@...
    .@..@...@....@..
    .@..@..@.....@..
    .@@@@@@.......@.
    .....@........@.


# 0x50a
0x32, 0x6a:
    ....@.....@.....
    ....@.....@.....
    @@@@@@@@@@@@@@@.
    ....@.....@.....
    ................
    ..@@@@@@@@@@@...
    ....@.....@.....
    ....@.....@.....
    ....@.....@.....
    @@@@@@@@@@@@@@@.
    ........@.@.....
    .......@..@.....
    ......@...@.....
    .....@....@.....
    ...@@.....@.....
    .@@.....@@@.....


# 0x50b
0x32, 0x6b:
    ..@.....@.@.....
    ..@..@@@..@.@...
    ..@....@..@..@..
    @@@@@..@..@..@..
    @.@.@..@..@.....
    @.@.@@@@@@@@@@@.
    @.@.@..@..@.....
    @.@.@..@..@.....
    @.@.@..@..@..@..
    @@@@@..@@.@..@..
    ..@..@@@..@..@..
    ..@....@..@.@...
    ..@.@..@...@....
    ..@@@..@..@.@...
    @@..@..@.@..@.@.
    ......@@.....@..


# 0x50c
0x32, 0x6c:
    ..@.............
    @@@@@@@.@@@@@@..
    ..@...@.@....@..
    ..@...@.@....@..
    @@...@..@@@@@@..
    ................
    ..@@@@@@@@@@@...
    ..@.........@...
    ..@@@@@@@@@@@...
    ..@.........@...
    ..@@@@@@@@@@@...
    ..@.........@...
    ..@@@@@@@@@@@...
    ....@.....@.....
    ...@.......@....
    .@@.........@@..


# 0x50d
0x32, 0x6d:
    .........@..@...
    @@@@@@@..@..@...
    .@..@...@..@....
    .@..@...@@@@@@@.
    .@..@..@@..@....
    .@..@.@.@..@....
    .@..@...@..@....
    @@@@@@@.@@@@@@..
    ....@...@..@....
    ...@@...@..@....
    ...@@...@..@....
    ..@.@...@@@@@@..
    .@..@...@..@....
    @...@...@..@....
    ....@...@..@....
    ...@@...@@@@@@@.


# 0x50e
0x32, 0x6e:
    ...@....@@.@....
    ..@.@.@@@..@.@..
    .@...@..@..@..@.
    @..@.@..@..@..@.
    ...@....@..@....
    .@@@@.@@@@@@@@@.
    .@..@...@..@....
    .@..@...@..@....
    .@@@@...@..@..@.
    .@..@...@..@..@.
    .@..@...@@.@.@..
    .@@@@.@@@...@...
    .@......@..@@...
    .@..@...@.@.@...
    .@.@.@..@...@.@.
    @@@....@@@@..@..


# 0x50f
0x32, 0x6f:
    ..@.............
    @@@@@@@.@@@@@@..
    ..@...@.@....@..
    ..@...@.@....@..
    @@...@..@@@@@@..
    ................
    ..@@@@@@@@@@@@..
    ..@.....@.......
    ..@@@@@@@@@@@...
    ..@.....@.......
    ..@@@@@@@@@@@...
    ..@.....@.......
    ..@@@@@@@@@@@@@.
    ..............@.
    .@..@..@..@...@.
    @...@..@..@..@..


# 0x510
0x32, 0x70:
    .......@........
    ......@.@.......
    .....@...@......
    ....@.....@.....
    ...@.......@....
    ..@.........@...
    .@..@.....@..@..
    @...@.....@...@.
    ....@.....@.....
    ....@.....@.....
    ....@.....@.....
    ...@......@.....
    ...@......@.....
    ...@......@.....
    ..@.......@.....
    .@........@.....


# 0x511
0x32, 0x71:
    ......@@........
    .....@..@.......
    ....@....@......
    ...@......@.....
    ..@........@....
    .@..........@...
    @..@@@@@@@@..@@.
    ................
    ................
    @@@@@@@@@@@@@@@.
    ......@.........
    .....@..........
    .....@....@.....
    ....@......@....
    ...@....@@@@@...
    .@@@@@@@.....@..


# 0x512
0x32, 0x72:
    ..@.............
    ..@@@@..@@@@@@@.
    ..@..@....@...@.
    .@...@....@...@.
    @...@....@..@@..
    .@@@@@@@........
    .@..@..@....@...
    .@..@..@..@.@...
    .@@@@@@@..@@@@@.
    .@..@..@.@..@...
    .@..@..@....@...
    .@@@@@@@.@@@@@@.
    .@.....@....@...
    .@.....@....@...
    .@.....@....@...
    @.....@@....@...


# 0x513
0x32, 0x73:
    ................
    .@@@@@@@@@@@@@..
    .@...........@..
    .@...........@..
    .@..@@@@@@@..@..
    .@..@.....@..@..
    .@..@.....@..@..
    .@..@.....@..@..
    .@..@.....@..@..
    .@..@.....@..@..
    .@..@@@@@@@..@..
    .@...........@..
    .@...........@..
    .@...........@..
    .@@@@@@@@@@@@@..
    .@...........@..


# 0x514
0x32, 0x74:
    ..@.......@.....
    ..@......@......
    ..@...@@@@@@@@@.
    ..@...@...@...@.
    ..@...@...@...@.
    @@@@@.@@@@@@@@@.
    ..@...@...@...@.
    ..@...@...@...@.
    ..@...@@@@@@@@@.
    ..@.....@.@.....
    ..@.....@.@.@...
    ..@.@..@..@.@.@.
    ..@@...@..@.@@@.
    @@....@...@...@.
    .....@....@.....
    ...@@.....@@@@@.


# 0x515
0x32, 0x75:
    ..@......@......
    ..@.@@@@@@@@@@@.
    ..@......@......
    ..@..@@@@@@@@@..
    ..@..@..@.@..@..
    @@@@.@..@.@..@..
    ..@..@..@.@..@..
    ..@..@@@@@@@@@..
    ..@......@......
    ..@.@@@@@@@@@@@.
    ..@.....@@......
    ..@..@@@..@...@.
    ..@@..@....@.@..
    @@....@.....@...
    ......@.@@...@..
    ....@@@@......@.


# 0x516
0x32, 0x76:
    ................
    @@@@..@@@@@@@@..
    ...@..@......@..
    ...@..@......@..
    ...@..@.@@@@.@..
    ..@...@.@..@.@..
    .@@@@.@.@..@.@..
    ....@.@.@..@.@..
    ....@.@.@..@.@..
    .@..@.@.@..@.@..
    .@..@.@.@@@@.@..
    .@.@..@......@..
    ..@...@......@..
    .@.@..@@@@@@@@..
    .@..@...........
    @....@@@@@@@@@@.


# 0x517
0x32, 0x77:
    ..@.....@.......
    ..@.....@.......
    ..@.....@.......
    @.@.@.@@@@@@@...
    @.@.@...@...@...
    @.@.@...@...@...
    @.@.....@...@...
    ..@.....@...@...
    ..@.@@@@@@@@@@@.
    ..@.....@.......
    ..@.....@.......
    ..@....@.@......
    ..@....@..@.....
    ..@...@....@....
    ..@..@......@...
    ..@.@........@@.


# 0x518
0x32, 0x78:
    ..@.............
    ..@..@@@@@@@@@@.
    ..@...@......@..
    @.@.@..@....@...
    @.@.@...@..@....
    @.@.@....@@.....
    @.@....@@..@@...
    ..@..@@......@@.
    ..@.............
    ..@......@......
    ..@......@......
    ..@..@@@@@@@@@..
    ..@......@......
    ..@......@......
    ..@......@......
    ..@.@@@@@@@@@@@.


# 0x519
0x32, 0x79:
    ..@...@.........
    ..@...@.........
    ..@...@@@@@@@@@.
    @.@@.@..........
    @.@.@...........
    @.@.@.@@@@@@@...
    @.@...@..@..@...
    ..@...@..@..@...
    ..@...@..@..@...
    ..@.@@@@@@@@@@@.
    ..@...@..@..@...
    ..@...@..@..@...
    ..@...@..@..@...
    ..@...@@@@@@@@@.
    ..@.........@...
    ..@.......@@@...


# 0x51a
0x32, 0x7a:
    ..@.............
    ..@...@@@@@@@@@.
    ..@...@.........
    @.@.@.@...@.....
    @.@.@.@...@.....
    @.@.@.@.@.@..@..
    @.@...@.@.@..@..
    ..@...@.@.@..@..
    ..@...@.@.@.@...
    ..@...@...@.....
    ..@...@...@.....
    ..@..@...@.@....
    ..@..@..@...@...
    ..@..@..@...@...
    ..@.@..@.....@..
    ..@.@.@.......@.


# 0x51b
0x32, 0x7b:
    ..@......@......
    ..@.@@@@@@@@@@@.
    ..@......@......
    @.@..@@@@@@@@@..
    @.@@.@..@.@..@..
    @.@.@@..@.@..@..
    @.@..@..@.@..@..
    ..@..@@@@@@@@@..
    ..@......@......
    ..@.@@@@@@@@@@@.
    ..@.....@@......
    ..@...@@..@...@.
    ..@.@@@....@.@..
    ..@...@.....@...
    ..@...@..@@..@..
    ..@.@@@@@.....@.


# 0x51c
0x32, 0x7c:
    ........@..@....
    ........@...@...
    ........@.......
    @@@@@@@@@@@@@@@.
    ........@.......
    ..@..@..@.......
    ..@..@..@....@..
    ..@..@..@....@..
    @@@@@@@@.@..@...
    ..@..@...@..@...
    ..@..@...@.@....
    .@...@....@.....
    .@...@...@@.....
    .@...@..@..@..@.
    @......@....@.@.
    .....@@......@@.


# 0x51d
0x32, 0x7d:
    ..@.............
    ..@...@@@@@@@@..
    ..@...@......@..
    @@@@@.@......@..
    ..@...@......@..
    ..@...@......@..
    ..@...@@@@@@@@..
    ..@.............
    ..@@@...........
    @@@..@@@@@@@@@@.
    ..@......@....@.
    ..@......@....@.
    ..@.....@.....@.
    ..@.....@.....@.
    ..@....@......@.
    .@@..@@....@@@..


# 0x51e
0x32, 0x7e:
    .........@......
    @@@@@@...@......
    .....@...@......
    .....@..@@@@@@@.
    .....@.@@...@...
    .....@@.@...@...
    @@@@@@..@...@...
    @.......@...@...
    @.......@...@...
    @.......@...@...
    @........@.@....
    @.....@..@.@....
    @.....@...@.....
    @@@@@@@..@.@....
    ........@...@...
    ......@@.....@@.


# 0x51f
0x32, 0x7f:
    @...............
    @...............
    @@@@@@@@@@@@@@@@
    @...............
    @...............
    @...............
    @...............
    @@@@@@@@@@@@@@@@
    @...............
    @...............
    @...............
    @...............
    @@@@@@@@@@@@@@@@
    @...............
    @...............
    @...............


# 0x520
0x33, 0x20:
    ................
    ................
    ................
    ................
    ...@@@...@@@....
    ..@...@.@...@...
    ......@.@...@...
    ....@@..@...@...
    ......@.@...@...
    ..@...@.@...@...
    ..@...@.@...@...
    ...@@@...@@@....
    ................
    ................
    ................
    ................


# 0x521
0x33, 0x21:
    ....@.......@...
    ...@....@...@...
    @@@@@@@..@..@...
    @..@..@...@.@...
    @..@..@.....@...
    @@@@@@@.@...@...
    @..@..@..@..@...
    @..@..@...@.@...
    @@@@@@@.....@@@.
    ..@.@...@@@@@...
    ..@.@..@....@...
    ..@.@..@.@..@...
    ..@.@.@..@..@...
    .@..@.@@@@..@.@.
    .@..@.........@.
    @....@@@@@@@@@@.


# 0x522
0x33, 0x22:
    ........@.......
    ........@.......
    @@@@@...@@@@@@@.
    @...@..@........
    @...@.@.........
    @...@..@@@@@@@..
    @...@..@..@..@..
    @@@@@..@..@..@..
    @...@..@..@..@..
    @...@.@@@@@@@@@.
    @...@..@..@..@..
    @...@..@..@..@..
    @@@@@..@..@..@..
    @......@@@@@@@@.
    .............@..
    ...........@@...


# 0x523
0x33, 0x23:
    ..@.......@.@...
    ..@.......@..@..
    ..@.......@.....
    @@@@@.@@@@@@@@@.
    ..@.......@.....
    ..@...@.@.@..@..
    ..@@..@.@.@..@..
    .@@.@.@.@.@..@..
    .@@.@@@@@@@.@...
    @.@...@.@.@.@...
    @.@...@.@..@....
    @.@...@.@..@....
    ..@...@.@.@.@.@.
    ..@..@....@.@.@.
    ..@..@...@...@@.
    ..@.@...@.....@.


# 0x524
0x33, 0x24:
    .....@..........
    .@...@..........
    ..@..@@@@@@@@@@.
    ....@...........
    ...@............
    @....@@@@@@@@@..
    .@...@...@...@..
    .....@...@...@..
    .....@...@...@..
    ..@.@@@@@@@@@@@.
    ..@..@...@...@..
    ..@..@...@...@..
    .@...@...@...@..
    .@...@@@@@@@@@@.
    @............@..
    ..........@@@...


# 0x525
0x33, 0x25:
    ................
    ..@@@@@@@@@@@@@.
    ..@.............
    ..@.....@.......
    ..@.....@.......
    ..@.@...@....@..
    ..@..@..@....@..
    ..@..@..@...@...
    ..@..@..@..@....
    ..@.....@.......
    ..@....@.@......
    ..@....@..@.....
    .@....@....@....
    .@...@......@...
    .@..@........@..
    @..@..........@.


# 0x526
0x33, 0x26:
    ................
    ..@@@@@@@@@@@...
    ..@....@....@...
    ..@....@....@...
    ..@@@@@@@@@@@...
    ..@....@....@...
    ..@....@....@...
    ..@@@@@@@@@@@...
    ..@...@.@...@...
    ....@@...@@.....
    ..@@......@@@...
    @@..@.....@..@@.
    ....@.....@.....
    ....@.....@.....
    ...@......@.....
    .@@.......@.....


# 0x527
0x33, 0x27:
    ..@......@......
    ..@......@......
    ..@......@..@@..
    ..@@@@@..@@@....
    ..@......@......
    ..@..@@..@....@.
    ..@@@....@....@.
    @@@...@...@@@@..
    .....@..........
    ..@@@@@@@@@@@...
    ..@.........@...
    ..@.........@...
    ..@@@@@@@@@@@...
    ..@.........@...
    ..@.........@...
    ..@@@@@@@@@@@...


# 0x528
0x33, 0x28:
    ...@.....@@.....
    ..@.....@..@....
    .@.....@....@...
    @...@.@......@..
    .@.@..........@.
    ..@....@@@@@@...
    .@..@...........
    @@@@@@..........
    ..@..@..........
    ..@...@@@@@@@@@.
    @.@.@...@.......
    @.@..@..@..@....
    @.@..@..@...@...
    @.@..@.@....@...
    ..@....@..@@@@..
    ..@..@@@@@...@..


# 0x529
0x33, 0x29:
    ....@.....@.....
    ....@.....@.....
    @@@@@@@@@@@@@@@.
    ....@.....@.....
    ....@.@@..@.....
    .....@..@.......
    ....@....@......
    ...@......@.....
    ..@........@....
    .@..@.....@.@...
    @...@.....@..@..
    ....@.....@.....
    ...@......@.....
    ...@......@.....
    ..@.......@.....
    .@........@.....


# 0x52a
0x33, 0x2a:
    ..@.............
    ..@@@@..@@@@@@@.
    ..@..@....@...@.
    .@@@@@@@.@..@@@.
    @@..@..@..@.....
    .@@@@@@@..@@@@@.
    .@..@..@.@..@...
    .@@@@@@@..@@@@@.
    .@.....@....@...
    @@....@@....@...
    .......@........
    ..@@@@@@@@@@@...
    ..@....@....@...
    ..@@@@@@@@@@@...
    .......@...@....
    .@@@@@@@@@@@@@..


# 0x52b
0x33, 0x2b:
    ................
    @@@@@@..@@@@@@..
    @....@..@....@..
    @@@@@@..@@@@@@..
    @....@..@....@..
    @@@@@@..@@@@@@..
    @............@..
    @..@@@@@@@@..@..
    @....@...@...@..
    @....@...@...@..
    @.@@@@@@@@@@.@..
    @....@...@...@..
    @....@...@...@..
    @...@....@...@..
    @...@....@...@..
    @..@.....@..@@..


# 0x52c
0x33, 0x2c:
    ......@...@.....
    .@@@@.@...@...@.
    .@..@.@@@.@.@@..
    .@..@.@...@@....
    .@..@.@...@.....
    .@.@..@.@.@...@.
    .@..@.@@...@@@@.
    .@..@@@..@......
    .@..@...@.......
    .@..@.@@@@@@@@..
    .@..@.@......@..
    .@@@..@......@..
    .@....@@@@@@@@..
    .@....@......@..
    .@....@......@..
    .@....@@@@@@@@..


# 0x52d
0x33, 0x2d:
    ................
    ..@@@@@@@@@@@...
    ..@.........@...
    ..@.........@...
    ..@@@@@@@@@@@...
    ..@.........@...
    ..@.........@...
    ..@@@@@@@@@@@...
    ..@.........@...
    ..@.........@...
    ..@.........@...
    ..@@@@@@@@@@@...
    ................
    ....@.....@.....
    ..@@.......@@...
    @@...........@@.


# 0x52e
0x33, 0x2e:
    ....@...........
    .@..@..@.@@@@...
    .@..@..@.@..@...
    .@@@@@@@.@..@...
    .........@..@...
    @@@@@@@@.@..@...
    .........@..@...
    .@@@@@@..@..@...
    .@....@..@..@...
    .@....@..@..@...
    .@@@@@@.@...@...
    ......@.@...@...
    .@...@..@...@.@.
    ..@.@..@....@.@.
    @@@@@@.@....@.@.
    ......@.....@@@.


# 0x52f
0x33, 0x2f:
    ....@.....@.....
    ....@.....@.....
    @@@@@@@@..@.....
    ...@....@@@@@@..
    ...@..@...@..@..
    @.@...@...@..@..
    .@...@....@..@..
    ..@.@.....@..@..
    ...@......@..@..
    ..@....@.@...@..
    .@....@..@...@..
    @....@...@...@..
    ....@....@...@..
    ...@.@..@....@..
    ..@...@.@....@..
    @@.....@...@@...


# 0x530
0x33, 0x30:
    ...@......@.....
    ...@......@.....
    ...@......@.....
    ...@@@@@..@.....
    ..@....@..@.....
    ..@....@@.@.....
    .@.....@.@@.....
    .@@...@...@.....
    @..@..@...@@....
    ....@.@...@.@...
    .....@....@..@..
    .....@....@...@.
    ....@.....@.....
    ...@......@.....
    ..@.......@.....
    @@........@.....


# 0x531
0x33, 0x31:
    .........@......
    .........@......
    @@@@@....@......
    @...@@@@@@@@@@@.
    @...@....@......
    @...@.@.@....@..
    @...@..@....@...
    @...@...@..@....
    @...@....@@.....
    @...@....@....@.
    @...@...@....@..
    @@@@@.@@....@...
    @....@.....@....
    .........@@.@...
    .......@@....@..
    .....@@.......@.


# 0x532
0x33, 0x32:
    .......@........
    .......@........
    @@@@@@@@@@@@@@@.
    @......@......@.
    @......@......@.
    @.@@@@@@@@@@@.@.
    .......@........
    ..@@@@@@@@@@@...
    .......@........
    @@@@@@@@@@@@@@@.
    ................
    ..@@@@@@@@@@@...
    ..@.........@...
    ..@.........@...
    ..@.........@...
    ..@@@@@@@@@@@...


# 0x533
0x33, 0x33:
    .......@........
    .@.....@.....@..
    .@.....@.....@..
    .@@@@@@@@@@@@@..
    ................
    .@@@@@@@@@@@@@@.
    .@......@.......
    .@..@@@@@@@@@...
    .@......@.......
    .@......@.......
    .@.@@@@@@@@@@@..
    .@......@.......
    .@..@@@@@@@@@...
    .@......@.......
    @.......@.......
    @.@@@@@@@@@@@@@.


# 0x534
0x33, 0x34:
    ..@.............
    ..@..@@@@.@@@@@.
    ..@..@..@....@..
    @.@..@..@..@.@..
    @.@@.@@@@..@.@..
    @.@.@@..@..@.@..
    @.@..@..@..@.@..
    ..@..@@@@.@@@@@.
    ..@..@......@...
    ..@..@......@...
    ..@..@.@...@@...
    ..@..@..@..@@...
    ..@..@.@.@@.@...
    ..@.@@@..@..@...
    ..@.....@...@.@.
    ..@....@....@@@.


# 0x535
0x33, 0x35:
    ..@.............
    ..@..@@@@.@@@@@.
    ..@..@..@..@.@..
    @@@@.@..@..@.@..
    ..@..@@@@..@.@..
    ..@..@..@..@.@..
    .@@@.@..@..@.@..
    .@@.@@@@@.@@@@@.
    @.@..@......@...
    @.@..@.@....@...
    ..@..@..@..@....
    ..@..@..@..@@...
    ..@..@.@.@@.@...
    ..@.@@@..@..@.@.
    ..@.....@...@.@.
    ..@....@....@@@.


# 0x536
0x33, 0x36:
    ................
    .@...@@@@@@@@@@.
    ..@..@....@.....
    .....@....@.....
    .....@.@@@@@@@..
    @....@....@.....
    .@...@....@.....
    .....@@@@@@@@@@.
    .....@....@.....
    ..@..@....@.....
    ..@..@.@@@@@@@..
    ..@..@....@.....
    .@...@....@.....
    .@..@.....@.....
    @...@.@@@@@@@@@.
    ...@............


# 0x537
0x33, 0x37:
    ................
    .@@@@@.@@@@@@@..
    ...@...@.....@..
    ...@...@@@@@@@..
    ...@...@.....@..
    ..@....@@@@@@@..
    ..@@@@..........
    .@@..@@@@@@@@@@.
    .@@..@......@...
    @.@..@......@...
    ..@..@@@@@@@@@@.
    ..@..@......@...
    ..@..@..@...@...
    ..@@@@...@..@...
    ..@.........@...
    ...........@@...


# 0x538
0x33, 0x38:
    ....@.....@.....
    @@@@@@@@@@@@@@@.
    ....@.....@.....
    ....@..@..@.....
    ..@@@@@@@@@@@...
    .......@........
    @@@@@@@@@@@@@@@.
    .....@.....@....
    ....@.......@...
    .@@@@@@@@@@@@@..
    .............@..
    ..@@@@@@@@@@@...
    ..@..@...@..@...
    ..@..@...@..@...
    ..@..@...@..@...
    @@@@@@@@@@@@@@@.


# 0x539
0x33, 0x39:
    .......@........
    ...@...@...@@@..
    ..@....@........
    .@...@@@@@......
    @......@........
    ...@...@..@@@@@.
    ..@.@@@@@@..@...
    .@@....@....@...
    @.@....@....@...
    ..@..@@@@@..@...
    ..@....@....@...
    ..@....@....@...
    ..@....@....@...
    ..@....@@@..@...
    ..@.@@@.....@...
    ..@.......@@@...


# 0x53a
0x33, 0x3a:
    ..........@.....
    .@@@@.....@.....
    ......@@@@@@@@@.
    @@@@@@.....@....
    ..........@.....
    .@@@@.@..@..@...
    .......@@...@...
    .@@@@...@..@....
    .........@@..@..
    .@@@@....@...@..
    .@..@...@...@...
    .@..@.@@...@....
    .@..@.....@.@...
    .@..@....@...@..
    .@@@@..@@.....@.
    .....@@.......@.


# 0x53b
0x33, 0x3b:
    ...@......@.....
    ..@.@..@..@..@..
    .@...@.@..@..@..
    @......@@@@@@@..
    .@@@@...........
    ...@..@@@@@@@@@.
    ...@............
    @@@@@@.@@@@@@@..
    ...@...@.....@..
    @..@.@.@.....@..
    @..@.@.@@@@@@@..
    .@.@.@..........
    .@.@....@...@...
    ...@@@..@...@...
    @@@......@.@....
    ......@@@@@@@@@.


# 0x53c
0x33, 0x3c:
    ..........@.....
    .@@@@@....@.....
    .@...@.@@@@@@@@.
    .@.@@@.....@....
    .@.@.@.@..@.....
    @@@@@@@.@@..@...
    @.....@..@..@...
    .@@@@@....@@....
    .@...@....@..@..
    .@@@@@...@...@..
    .@...@..@...@...
    .@@@@@.@....@...
    .@...@.....@....
    .@...@....@.@...
    .@...@...@...@..
    .@..@@.@@.....@.


# 0x53d
0x33, 0x3d:
    ................
    .@...@@@@@@@@@..
    ..@..@...@...@..
    .....@...@...@..
    .....@@@@@@@@@..
    @....@...@...@..
    .@...@...@...@..
    .....@@@@@@@@@..
    .........@......
    ..@......@......
    ..@..@@@@@@@@@..
    ..@......@......
    .@.......@......
    .@.......@......
    @...@@@@@@@@@@@.
    ................


# 0x53e
0x33, 0x3e:
    ....@....@@@@...
    @@@@@@@@.@..@.@.
    ....@....@..@@@.
    .@@@@@@.@.......
    .@..@.@.@@@@@@..
    .@@@@@@..@..@...
    .@........@@....
    @..@@@@@@@..@@@.
    .......@........
    @@@@@@@@@@@@@@@.
    .....@.@.@......
    ...@@@@@@@@@....
    ..@@.......@@...
    @@.@@@@@@@@@.@@.
    ...@.......@....
    ...@@@@@@@@@....


# 0x53f
0x33, 0x3f:
    ...@......@.....
    ...@......@.....
    ...@......@.....
    .@@@@@@.@@@@@@..
    .@.@..@...@.....
    .@.@..@...@.....
    .@.@..@...@.....
    .@.@..@@@@@@@@@.
    .@.@..@...@.....
    .@@@@@@...@.....
    ...@....@@@@@@..
    ...@.@....@.....
    ...@..@...@.....
    ...@@@@...@.....
    @@@.......@.....
    ......@@@@@@@@@.


# 0x540
0x33, 0x40:
    ..@.............
    ..@..@@@@@@@@@..
    ..@.............
    ..@.............
    @@@@@.@@@@@@@...
    ..@...@.....@...
    ..@...@.....@...
    ..@...@.....@...
    ..@...@@@@@@@...
    ..@...@.....@...
    ..@...@.....@...
    ..@.@.@.....@...
    ..@@..@@@@@@@...
    @@..............
    ................
    ....@@@@@@@@@@@.


# 0x541
0x33, 0x41:
    ..@.......@.....
    ..@.......@.....
    ..@.......@.....
    @@@@@.@@@@@@@@@.
    ..@.......@.....
    ..@....@@@@@@@..
    .@@@...@..@..@..
    .@@.@..@..@..@..
    @.@..@.@..@..@..
    @.@....@..@..@..
    @.@....@..@..@..
    ..@....@..@..@..
    ..@....@..@..@..
    ..@....@..@.@@..
    ..@.......@.....
    ..@.......@.....


# 0x542
0x33, 0x42:
    ..@.............
    ..@....@@@@@@@@.
    ..@....@........
    @@@@@..@@@@@@@@.
    @.@.@..@..@.....
    @.@.@..@..@@@@..
    @.@.@..@..@..@..
    @.@.@..@..@..@..
    @.@.@..@..@..@..
    @@@@@..@..@..@..
    ..@....@.@...@..
    ..@....@.@...@..
    ..@.@.@..@...@..
    ..@@@.@.@....@..
    @@..@@..@...@...
    ....@..@..@@....


# 0x543
0x33, 0x43:
    ....@....@......
    ...@.@...@......
    ..@...@..@......
    .@.......@@@@@@.
    @.......@.....@.
    .@@@@@..@.....@.
    ...@...@..@...@.
    ...@.....@....@.
    @@@@@@...@....@.
    ...@....@..@..@.
    @..@.@..@...@.@.
    .@.@.@.@@@@@@.@.
    .@.@........@.@.
    ...@.@@.......@.
    @@@@@........@..
    ...........@@...


# 0x544
0x33, 0x44:
    ....@........@..
    .@@@@@@@..@..@..
    ....@..@..@..@..
    @@@@@@@@@.@..@..
    ....@..@..@..@..
    .@@@@@@@..@..@..
    ....@.....@..@..
    @@@@@@@@@.@..@..
    ..........@..@..
    .@@@@@@@..@..@..
    .@..@..@..@..@..
    .@@@@@@@..@..@..
    .@..@..@.....@..
    .@@@@@@@.....@..
    .............@..
    @@@@@@@@@...@@..


# 0x545
0x33, 0x45:
    .....@.....@....
    .....@.....@....
    @@@..@.....@....
    @.@.@@@@.@@@@@..
    @.@..@.....@....
    @.@..@.....@....
    @.@@@@@@@@@@@@@.
    @.@.@.@...@.@...
    @.@.@.@...@.@...
    @.@.@.@.@.@.@.@.
    @@@.@.@.@.@.@.@.
    @...@.@.@.@.@.@.
    ..@.@.@...@.@...
    ..@.@.@...@.@...
    ...@..@..@..@...
    ..@...@.@..@@...


# 0x546
0x33, 0x46:
    .....@..........
    .....@..........
    .....@@@@@@@....
    ....@......@....
    ...@.@....@.....
    ..@...@..@......
    .@.....@@.......
    ......@..@......
    ....@@....@.....
    ..@@.......@@...
    @@.@@@@@@@@@.@@.
    ...@.......@....
    ...@.......@....
    ...@.......@....
    ...@.......@....
    ...@@@@@@@@@....


# 0x547
0x33, 0x47:
    .......@........
    .@@@@@@@@@@@@@@.
    .@...@..........
    .@@@@@@@@.@@@@@.
    .@........@...@.
    .@.@@@@@..@..@..
    .@.@...@..@.@...
    .@.@@@@@..@.@...
    .@........@..@..
    .@.@@@@@..@..@..
    .@....@...@...@.
    .@...@..@.@...@.
    .@...@@@..@...@.
    .@.@@@....@.@@..
    .@...@....@.....
    @...@@....@.....


# 0x548
0x33, 0x48:
    ..@.......@.....
    ..@.......@.....
    ..@...@@@@@@@@@.
    @@@@@.@.........
    ..@...@...@.....
    ..@...@...@.....
    ..@...@...@.....
    ..@...@...@.....
    ..@@@.@..@......
    @@@...@..@......
    ..@...@..@..@...
    ..@...@..@...@..
    ..@...@.@....@..
    ..@..@..@...@@..
    ..@..@.@@@@@..@.
    .@@.@.........@.


# 0x549
0x33, 0x49:
    ..@..@..@....@..
    ..@...@..@...@..
    ..@....@..@.@...
    @@@@@@@@@@@@@@@.
    ..@.@.........@.
    ..@.@.@@@@@@@.@.
    ..@...@.....@...
    ..@...@@@@@@@...
    ..@@@.@.....@...
    @@@...@@@@@@@...
    ..@...@.....@...
    ..@...@@@@@@@...
    ..@.....@.@.....
    ..@.....@.@...@.
    ..@....@..@...@.
    .@@.@@@....@@@@.


# 0x54a
0x33, 0x4a:
    ..@.....@.......
    ..@.....@.......
    ..@.....@@@@@@..
    @@@@@..@.....@..
    ..@...@.@...@...
    ..@..@...@.@....
    ..@@......@.....
    .@@.@....@.@....
    .@@..@..@...@...
    @.@....@.....@..
    @.@...@@@@@@@@@.
    ..@..@.@.....@..
    ..@....@.....@..
    ..@....@.....@..
    ..@....@.....@..
    ..@....@@@@@@@..


# 0x54b
0x33, 0x4b:
    ..@.......@.....
    ..@.......@.....
    ..@.......@.....
    @@@@@.@@@@@@@@@.
    ..@.......@.....
    ..@......@......
    ..@...@.@...@...
    .@@@...@...@....
    .@@.@...@.@.....
    @.@..@...@...@..
    @.@.....@...@...
    ..@...@@...@....
    ..@.......@.....
    ..@......@.@....
    ..@....@@...@...
    ..@..@@......@..


# 0x54c
0x33, 0x4c:
    ...@............
    @@@@@@@..@@@@...
    ...@.....@..@...
    ...@.....@..@...
    .@@@@@@..@..@.@.
    .........@..@.@.
    @@@@@@@.@....@@.
    @.....@.........
    ........@@@@@@..
    ..@@@@.......@..
    ..@..@...@...@..
    ..@..@....@.@...
    ..@..@.....@....
    .@...@.@..@.@...
    .@...@@..@...@..
    @....@..@.....@.


# 0x54d
0x33, 0x4d:
    ....@...@..@....
    @...@.@@@@@@@@@.
    .@.@....@..@....
    ..@....@..@.....
    ..@...@@@@@@@@@.
    .@.@.@@...@.....
    @..@..@@@@@@@@..
    ...@..@...@.....
    ..@.@.@@@@@@@@..
    ..@.@.@...@.....
    .@..@.@@@@@@@@@.
    @...@...........
    ....@.@@@@@@@@..
    ....@...@...@...
    ...@.....@@@....
    .@@..@@@@...@@@.


# 0x54e
0x33, 0x4e:
    ..........@.....
    @@@@@@....@.....
    ..@...@@@@@@@@@.
    ..@...@.......@.
    ..@...@..@..@.@.
    .@......@..@....
    .@@@@..@@@@@@@@.
    @@..@.@.@..@....
    .@..@...@..@....
    .@..@...@@@@@@..
    .@..@...@..@....
    .@..@...@..@....
    .@..@...@@@@@@..
    .@@@@...@..@....
    .@......@..@....
    ........@@@@@@@.


# 0x54f
0x33, 0x4f:
    ....@...@..@....
    ...@.@@@@@@@@@@.
    @@@.....@..@....
    ..@....@..@.....
    ..@...@@@@@@@@@.
    @@@@.@.@..@.....
    ..@....@@@@@@@..
    ..@@...@..@.....
    .@@.@..@@@@@@@..
    @.@..@.@..@.....
    @.@....@@@@@@@@.
    @.@.............
    ..@...@@@@@@@@..
    ..@.....@...@...
    ..@......@@@....
    ..@..@@@@...@@@.


# 0x550
0x33, 0x50:
    ..@...@......@..
    ...@...@....@...
    ....@...@..@....
    @@@@@@@@@@@@@@@.
    @.............@.
    @..@@@@@@@@@..@.
    @..@.......@..@.
    ...@@@@@@@@@....
    ...@.......@....
    ...@@@@@@@@@....
    ...@.......@....
    ...@@@@@@@@@....
    .....@..@.......
    ....@...@.....@.
    ..@@....@.....@.
    @@.......@@@@@@.


# 0x551
0x33, 0x51:
    .....@..........
    .....@@@@@@.....
    ....@.....@.....
    ...@.....@......
    ..@.....@.......
    .@.@@@@@@@@@@@..
    ...@....@....@..
    ...@....@....@..
    ...@@@@@@@@@@@..
    ...@....@....@..
    ...@....@....@..
    ...@@@@@@@@@@@..
    ...@.........@..
    ..@..........@..
    .@...........@..
    @..........@@@..


# 0x552
0x33, 0x52:
    ...@.......@....
    ...@.......@....
    .@@@@@...@@@@@..
    ...@.......@....
    ...@.......@....
    @@@@@@@.@@@@@@@.
    ..@.@.....@.@...
    ..@.@.....@.@...
    @.@.@.@.@.@.@.@.
    @.@.@.@.@.@.@.@.
    @.@.@.@.@.@.@.@.
    @.@.@.@.@.@.@.@.
    ..@.@.....@.@...
    ..@.@.....@.@...
    .@..@....@..@...
    @..@@...@..@@...


# 0x553
0x33, 0x53:
    ...@......@.....
    ...@......@.....
    @@@@@@@...@.....
    ...@...@@@@@@@@.
    .@@@@@..........
    .@.@.@..@...@...
    .@.@.@.@.....@..
    .@@@@@@.@...@.@.
    .@.@.@..@...@...
    .@.@.@...@.@....
    .@@@@@...@.@....
    ...@......@.....
    @@@@@@@..@.@....
    ...@....@...@...
    ...@...@.....@..
    ...@..@.......@.


# 0x554
0x33, 0x54:
    ....@...........
    ....@....@@@@@..
    @@@@@@@@.@...@..
    .........@..@...
    .@@@@@@..@..@...
    .@....@..@.@....
    .@....@..@.@....
    .@@@@@@..@..@...
    .........@...@..
    @@@@@@@..@...@..
    .....@...@....@.
    ....@....@....@.
    ..@@@@@..@....@.
    @@..@....@.@@@..
    ....@....@......
    ..@@@....@......


# 0x555
0x33, 0x55:
    ................
    .@@@@@@..@@@@@@.
    .@....@..@....@.
    .@@@@@@..@@@@@@.
    .@....@..@....@.
    .@@@@@@..@@@@@@.
    .@...@........@.
    .@...@@@@@@...@.
    .@..@.@..@....@.
    .@.@...@@.....@.
    .@....@..@....@.
    .@...@@@@@@...@.
    .@.@@@....@@@.@.
    .@...@....@...@.
    .@...@@@@@@...@.
    .@...........@@.


# 0x556
0x33, 0x56:
    ................
    .@@@@.@@@@@@@@@.
    .@..@...........
    .@..@..@@@@@@@..
    .@..@..@.....@..
    .@.@...@@@@@@@..
    .@..@...........
    .@..@.@@@@@@@@@.
    .@..@.@..@.@..@.
    .@..@.@..@.@..@.
    .@..@.@.@..@@@@.
    .@..@.@@......@.
    .@@@..@.@@@@@.@.
    .@....@...@...@.
    .@....@...@...@.
    .@....@...@..@@.


# 0x557
0x33, 0x57:
    ....@.....@.....
    @@@@@@@@@@@@@@@.
    ....@.....@.....
    ....@.....@.....
    ....@@@@@@@.....
    .......@........
    ..@@@@@@@@@@@...
    ..@....@....@...
    ..@....@....@...
    ..@@@@@@@@@@@...
    .......@........
    .......@........
    @@@@@@@@@@@@@@@.
    .......@........
    .......@........
    .......@........


# 0x558
0x33, 0x58:
    ..@...@.....@...
    ...@...@....@...
    ....@...@..@....
    @@@@@@@@@@@@@@@.
    @.............@.
    @.............@.
    @.@@@@@@@@@@..@.
    ...........@....
    .........@@.....
    .......@@.......
    .......@........
    @@@@@@@@@@@@@@@.
    .......@........
    .......@........
    .......@........
    .....@@@........


# 0x559
0x33, 0x59:
    ...........@@...
    .......@@@@.....
    ..@@@@@.........
    ..@.............
    ..@.............
    ..@@@@@@@@@@@...
    ..@.......@.....
    ..@.......@.....
    ..@.......@.....
    @@@@@@@@@@@@@@@.
    .......@........
    ..@....@....@...
    ..@....@....@...
    ..@....@....@...
    ..@....@....@...
    ..@@@@@@@@@@@...


# 0x55a
0x33, 0x5a:
    ........@.......
    @......@......@.
    .@..@@@@@@@..@..
    ..@.@.....@.@...
    ....@.....@.....
    ....@@@@@@@.....
    ..@.@.....@.@...
    .@..@.....@..@..
    @...@@@@@@@...@.
    .......@........
    @@@@@@@@@@@@@@@.
    .....@.@.@......
    ....@..@..@.....
    ..@@...@...@@...
    @@.....@.....@@.
    .......@........


# 0x55b
0x33, 0x5b:
    ...@...@@@@@@@@.
    ...@.......@....
    @@@@@@@...@.....
    @.....@.@@@@@@..
    @.@...@.@....@..
    ..@@@@..@....@..
    .@...@..@@@@@@..
    @.@.@...@....@..
    ...@....@....@..
    ..@.@...@@@@@@..
    .@...@..@....@..
    @@@@@@..@....@..
    .@...@..@@@@@@..
    .@...@...@..@...
    .@...@..@....@..
    .@@@@@.@......@.


# 0x55c
0x33, 0x5c:
    @@@.@@@.@@@@@@@.
    @.@.@.@....@....
    @.@.@.@...@.....
    @.@.@.@.@@@@@@..
    @@@.@@@.@....@..
    ........@....@..
    .@@@@@..@@@@@@..
    ........@....@..
    @@@@@@@.@....@..
    ..@.....@@@@@@..
    ..@@@@@.@....@..
    .@....@.@....@..
    .@....@.@@@@@@..
    @.....@..@..@...
    .....@..@....@..
    ...@@..@......@.


# 0x55d
0x33, 0x5d:
    ..@....@....@...
    ..@....@....@...
    ..@..@@@@@..@...
    @@@@@..@....@...
    ..@....@....@...
    ..@.@@@@@@@.@...
    ..@.........@...
    ..@....@....@@..
    ..@@@..@....@.@.
    @@@..@@@@@..@...
    ..@....@....@...
    ..@....@....@...
    ..@....@.@..@...
    ..@...@@@...@...
    ..@.@@......@...
    .@@.........@...


# 0x55e
0x33, 0x5e:
    ..@......@......
    ..@......@......
    ..@@@@@..@@@@@@.
    .@..@...@..@....
    @....@.@....@...
    .....@......@...
    .......@........
    .......@........
    .@@@@@@@@@@@@@..
    ................
    ...@.......@....
    ....@......@....
    .....@....@.....
    .....@....@.....
    .........@......
    @@@@@@@@@@@@@@@.


# 0x55f
0x33, 0x5f:
    ..@.............
    ..@..@@@@.@@@@@.
    ..@..@.@......@.
    @@@@@@@@@..@..@.
    ..@..@..@..@..@.
    ..@@.@@@@..@.@..
    .@@.@@.@....@...
    .@@..@.@...@.@..
    @.@..@@@@.@...@.
    @.@......@......
    @.@......@......
    ..@..@@@@@@@@@..
    ..@......@......
    ..@......@......
    ..@......@......
    ..@.@@@@@@@@@@@.


# 0x560
0x33, 0x60:
    ..@.............
    ..@..@@@@@@@@@@.
    ..@.............
    @@@@@.@@@@@@@@..
    ..@...@...@..@..
    ..@@..@@@@@@@@..
    .@@.@.@...@..@..
    .@@..@@@@@@@@@@.
    @.@.............
    @.@...@@@@@@@@..
    @.@...@...@..@..
    ..@...@@@@@@@@..
    ..@...@...@..@..
    ..@...@@@@@@@@..
    ..@.............
    ..@..@@@@@@@@@@.


# 0x561
0x33, 0x61:
    ..@.............
    ..@...@@@@@@@@..
    ..@...@......@..
    @@@@@.@......@..
    ..@...@@@@@@@@..
    ..@@..@......@..
    ..@.@.@....@@...
    .@@..@@.@@@.....
    .@@...@...@.....
    @.@...@@@@@@@@..
    @.@...@...@.....
    @.@...@...@.....
    ..@...@@@@@@@@..
    ..@..@....@.....
    ..@..@....@...@.
    ..@.@......@@@@.


# 0x562
0x33, 0x62:
    ..@......@@.@...
    .@@@@.@@@...@...
    @..@....@...@...
    ..@.....@.@.@.@.
    @@@@@...@.@.@.@.
    @.@.@@@@@@@.@.@.
    @.@.@...@.@.@...
    @@@@@..@@@..@...
    @.@.@..@@.@.@...
    @.@.@.@.@.@@.@..
    @@@@@.@.@..@.@..
    ......@.@..@.@..
    @.@.@.@.@..@.@..
    @.@.@...@.@...@.
    @.@.@...@.@...@.
    @.@.....@.@...@.


# 0x563
0x33, 0x63:
    ........@.......
    .@...@@@..@@@@..
    ..@..@.......@..
    .....@.......@..
    .....@@@@.@@@@..
    @....@.......@..
    .@...@.......@..
    .....@@@@@@@@@..
    .......@........
    ..@...@@@@@@@@@.
    ..@..@........@.
    ..@.@...@..@..@.
    .@....@..@..@.@.
    .@..@..@.@..@.@.
    @...@..@.....@..
    ...@.......@@...


# 0x564
0x33, 0x64:
    ....@........@..
    @@@@@@@@@.@..@..
    @.......@.@..@..
    @...@...@.@..@..
    .@@@@@@@..@..@..
    ....@.....@..@..
    .@@@@@@@..@..@..
    ....@.....@..@..
    @@@@@@@@@.@..@..
    ..........@..@..
    .@@@@@@@..@..@..
    .@.....@..@..@..
    .@.....@..@..@..
    .@.....@.....@..
    .@@@@@@@.....@..
    .@.....@....@@..


# 0x565
0x33, 0x65:
    ......@@@@@@@...
    ......@.....@...
    .@@@@.@.....@...
    .@..@.@@@@@@@...
    .@..@.@.....@...
    .@..@.@.....@...
    .@..@.@@@@@@@...
    .@..@..@........
    .@..@..@@@@@@@@.
    .@..@..@......@.
    .@..@.@.@..@@.@.
    .@@@@.@.@@@...@.
    .@...@..@...@.@.
    .........@@@@.@.
    .............@..
    ...........@@...


# 0x566
0x33, 0x66:
    ..@......@......
    ..@.....@.@.....
    ..@.....@.@.....
    ..@....@...@....
    @.@.@..@...@....
    @.@.@.@.....@...
    @.@.@.@.@@@.@...
    @.@..@.......@..
    ..@.@.........@.
    ..@...@@@@@@@...
    ..@...@.....@...
    ..@...@.....@...
    ..@...@.....@...
    ..@...@.....@...
    ..@...@@@@@@@...
    ..@...@.....@...


# 0x567
0x33, 0x67:
    ..@.........@@..
    ..@......@@@....
    ..@...@@@@......
    @@@@@....@......
    ..@......@......
    ..@......@......
    ..@..@@@@@@@@@@.
    ..@......@......
    ..@@@....@......
    @@@...@@@@@@@...
    ..@...@.....@...
    ..@...@.....@...
    ..@...@.....@...
    ..@...@.....@...
    ..@...@@@@@@@...
    .@@...@.....@...


# 0x568
0x33, 0x68:
    ............@@..
    .@.......@@@....
    ..@..@@@@@......
    .........@......
    @........@......
    .@.......@......
    ....@@@@@@@@@@@.
    .........@......
    ..@......@......
    ..@......@......
    ..@..@@@@@@@@@..
    .@...@.......@..
    .@...@.......@..
    .@...@.......@..
    @....@.......@..
    @....@@@@@@@@@..


# 0x569
0x33, 0x69:
    ................
    .@...@@@@@@@@@..
    ..@..@.......@..
    .....@@@@@@@@@..
    .....@.......@..
    @....@@@@@@@@@..
    .@.....@........
    .......@........
    ......@@@@@@@@@.
    ..@..@........@.
    ..@.@.@...@...@.
    ..@...@@@@....@.
    .@....@.......@.
    .@....@....@..@.
    @.....@@@@@...@.
    ............@@..


# 0x56a
0x33, 0x6a:
    ................
    .@....@@@@@@@...
    ..@...@.....@...
    ......@.@@@@@...
    ......@.@...@...
    @.....@.@...@...
    .@..@@@@@@@@@@@.
    ....@.........@.
    ....@.@@@@@@@.@.
    ..@...@.....@...
    ..@...@@@@@@@...
    ..@...@.....@...
    .@....@@@@@@@...
    .@....@.....@...
    @.....@.....@...
    ......@....@@...


# 0x56b
0x33, 0x6b:
    ....@.....@.....
    @@@@@@@@@@@@@@@.
    ....@.....@.....
    ..@@@@@@@@@@@...
    ..@.........@...
    ..@@@@@@@@@@@...
    ..@.........@...
    ..@@@@@@@@@@@...
    .....@..........
    ....@@@@@@@@@@..
    ...@..........@.
    ..@.@.........@.
    @@..@@@@@@....@.
    ....@.........@.
    ....@.....@...@.
    .....@@@@@..@@..


# 0x56c
0x33, 0x6c:
    ..@.............
    ..@....@@@@@@...
    ..@....@....@...
    @@@@@..@@@@@@...
    ....@..@....@...
    ....@..@....@...
    ....@..@@@@@@...
    ...@....@.......
    ..@@.@.@@@@@@@@.
    .@@.@.@.......@.
    @.@..@.@..@...@.
    ..@....@@@....@.
    ..@....@...@..@.
    ..@....@@@@@..@.
    ..@...........@.
    ..@.........@@..


# 0x56d
0x33, 0x6d:
    ...@......@.....
    ...@......@.....
    @@@@@@.@@@@@@@@.
    ...@...@......@.
    .@@@@@.@..@...@.
    .@.@.@..@@@@@@..
    .@.@.@....@.....
    .@@@@@.@@@@@@@..
    .@.@.@....@.....
    .@.@.@.@@@@@@@@.
    .@@@@@..........
    ...@....@@@@@@..
    @@@@@@@.@....@..
    ...@....@....@..
    ...@....@....@..
    ...@....@@@@@@..


# 0x56e
0x33, 0x6e:
    ................
    ...@@@@@@@@@....
    ...@.......@....
    ...@.......@....
    ...@.......@....
    ...@@@@@@@@@....
    ...@.......@....
    ...@.......@....
    ...@.......@....
    ...@.......@....
    ...@@@@@@@@@....
    ...@.......@....
    ...@.......@....
    ...@.......@....
    ...@.......@....
    @@@@@@@@@@@@@@@.


# 0x56f
0x33, 0x6f:
    ..@.............
    .@@@@.@@@.@@@@..
    @..@..@.@..@.@..
    ..@...@@@@.@.@..
    @@@@@.@..@.@.@..
    @.@.@.@@@@.@.@..
    @.@.@.@.@...@...
    @@@@@.@.@..@.@..
    @.@.@.@@@.@...@.
    @.@.@.....@.....
    @@@@@.....@.....
    .......@@@@@@@..
    @.@.@.@...@.....
    @.@.@.@...@.....
    @.@.@.....@.....
    @.@...@@@@@@@@@.


# 0x570
0x33, 0x70:
    ..........@.....
    ..........@.....
    @@@@@.....@.....
    @...@.....@.....
    @...@.....@.....
    @...@.....@.....
    @...@.@@@@@@@@@.
    @...@.....@.....
    @...@.....@.....
    @...@.....@.....
    @...@.....@.....
    @@@@@.....@.....
    @.........@.....
    ..........@.....
    ..........@.....
    ..........@.....


# 0x571
0x33, 0x71:
    ..@.....@..@....
    ..@.....@..@....
    ..@..@@@@@@@@@@.
    @@@@@...@..@....
    ..@.............
    .@@.....@.@.....
    .@@@....@.@.....
    @.@.@..@..@..@..
    @.@...@@..@.@...
    @.@..@.@..@@....
    @.@....@..@.....
    ..@....@..@.....
    ..@....@..@.....
    ..@....@..@...@.
    ..@....@..@...@.
    ..@....@..@@@@@.


# 0x572
0x33, 0x72:
    ..@....@...@....
    ..@..@@@@@@@@@@.
    ..@....@...@....
    @@@@@...........
    ..@..@@@@@@@@@..
    ..@...@..@..@...
    .@@...@..@..@...
    .@@@.@@@@@@@@@@.
    @.@.@.@..@..@...
    @.@...@..@..@...
    @.@..@@@@@@@@@..
    ..@......@......
    ..@......@......
    ..@..@@@@@@@@@@.
    ..@......@......
    ..@......@......


# 0x573
0x33, 0x73:
    ..@.@...@.......
    @@@@@@@.@.......
    ..@.@...@@@@@@@.
    ..@.@...@.....@.
    ..@@@..@......@.
    ...@..@.@@@@..@.
    .@@@@@.....@..@.
    .@.@.@.....@..@.
    .@.@.@.....@..@.
    .@.@.@.....@..@.
    .@@@@@..@@@@..@.
    ...@....@....@..
    @@@@@@@.@.......
    ...@....@.....@.
    ...@....@.....@.
    ...@....@@@@@@..


# 0x574
0x33, 0x74:
    ..@.......@.....
    ..@....@..@.....
    ..@....@..@.....
    @@@@@..@@@@@@@..
    ..@...@...@.....
    ..@..@....@.....
    .@@.......@.....
    .@@@..@@@@@@@@@.
    @.@.@.....@.....
    @.@......@@@....
    @.@.....@.@.@...
    ..@....@..@..@..
    ..@....@..@..@..
    ..@...@...@...@.
    ..@..@....@...@.
    ..@.......@.....


# 0x575
0x33, 0x75:
    .......@........
    ...@..@.........
    .@@..@@@@@.@@@..
    .@...@...@...@..
    .@...@...@...@..
    .@...@@@@@...@..
    .@...@...@...@..
    .@...@...@...@..
    .@@@.@@@@@.@@@..
    ................
    .....@...@......
    .....@...@......
    .....@...@......
    ....@....@....@.
    ..@@.....@....@.
    @@.......@@@@@..


# 0x576
0x33, 0x76:
    .......@........
    @@@@@@@@@@@@@@@.
    @....@..@.....@.
    @.@@@...@@@@@.@.
    .......@........
    ...@@@@@@@@@....
    .......@........
    @@@@@@@@@@@@@@@.
    ..@....@....@...
    ..@@@@@@@@@@@...
    ..@....@....@...
    .@@@@@@@@@@@@@..
    .@.....@.....@..
    .@@@@@@@@@@@@@..
    .......@......@.
    ........@@@@@@@.


# 0x577
0x33, 0x77:
    ....@.....@.....
    @@@@@@@@@@@@@@@.
    ....@.....@.....
    ....@....@..@...
    .@.......@...@..
    ..@.@@@@@@@@@@@.
    .........@......
    .@...@@@@@@@@@..
    ..@..@...@...@..
    .....@...@...@..
    ..@..@@@@@@@@@..
    ..@..@...@...@..
    .@...@...@...@..
    .@...@@@@@@@@@..
    @....@...@...@..
    @....@...@..@@..


# 0x578
0x33, 0x78:
    .....@...@......
    ....@@...@@.....
    ...@..@.@..@....
    .@@....@@...@@..
    .....@@..@......
    ....@.....@.....
    ..@@.......@@...
    @@..@@@@@@@..@@.
    .......@........
    .......@........
    .@@@@@@@@@@@@@..
    .......@........
    ...@...@...@....
    ....@..@..@.....
    .......@........
    @@@@@@@@@@@@@@@.


# 0x579
0x33, 0x79:
    ..@...@.....@...
    ..@....@...@....
    .@.@.@@@@@@@@@@.
    @...@...@.@.....
    ......@@@@@@@@..
    @@@@@...@.@..@..
    ..@.....@.@..@..
    ..@..@@@@@@@@@@.
    @@@@@...@.@..@..
    ..@.....@.@..@..
    @.@.@.@@@@@@@@..
    @.@.@...@.@.....
    @.@....@@.@@....
    ..@@@.@.@.@.@...
    @@...@..@.@..@..
    ....@...@.@...@.


# 0x57a
0x33, 0x7a:
    .........@......
    ......@..@......
    @@@@..@..@@@@...
    @..@..@..@......
    @..@@@@@@@@@@@@.
    @..@............
    @..@.@.@..@..@@.
    @..@.@..@.@.@.@.
    @..@.@....@...@.
    @..@.@.@@@@@@.@.
    @..@.@....@...@.
    @@@@.@..@.@.@.@.
    @....@.@..@..@@.
    .....@........@.
    .....@........@.
    .....@@@@@@@@@@.


# 0x57b
0x33, 0x7b:
    .........@......
    @@@@@.@@@@@@@@..
    @.@.@.@......@..
    @.@.@.@@@@@@@@..
    @.@.@.@......@..
    @@@@@.@@@@@@@@..
    @.@.@.@.........
    @.@.@.@@@@@@@@@.
    @.@.@.@.........
    @@@@@.@@@@@@@@@.
    ..@...........@.
    ..@...@.@.@.@.@.
    ..@...@.@.@.@.@.
    ..@...@.@.@.@.@.
    ..@...@.@.....@.
    ..@..@.....@@@..


# 0x57c
0x33, 0x7c:
    ..@.............
    ..@..@@@@@@@@@@.
    ..@......@......
    @@@@@....@......
    ..@.....@.......
    .@@...@@@@@@@@..
    .@@@..@......@..
    @.@.@.@......@..
    @.@...@......@..
    @.@...@@@@@@@@..
    @.@...@......@..
    ..@...@......@..
    ..@...@......@..
    ..@...@......@..
    ..@...@@@@@@@@..
    ..@...@......@..


# 0x57d
0x33, 0x7d:
    ....@.....@.....
    @@@@@@@@@@@@@@@.
    ....@.....@.....
    ................
    ..@@@@@@@@@@@...
    ...........@....
    ......@..@@.....
    .......@@.......
    ........@.......
    @@@@@@@@@@@@@@@.
    .......@@.....@.
    ......@.@....@..
    .....@..@...@...
    ...@@...@.......
    .@@.....@.......
    ......@@@.......


# 0x57e
0x33, 0x7e:
    ....@.....@.....
    @@@@@@@@@@@@@@@.
    ....@.....@.....
    .......@........
    @@@@@@@@@@@@@@@.
    @.............@.
    @..@@@@@@@@@..@.
    ................
    ...@@@@@@@@@....
    ...@.......@....
    ...@@@@@@@@@....
    ...@.......@....
    ...@@@@@@@@@....
    ................
    @@@@@@@@@@@@@@@.
    ................


# 0x57f
0x33, 0x7f:
    @...............
    @...............
    @...............
    @@@@@@@@@@@@@@@@
    @...............
    @...............
    @...............
    @...............
    @@@@@@@@@@@@@@@@
    @...............
    @...............
    @...............
    @...............
    @@@@@@@@@@@@@@@@
    @...............
    @...............


# 0x580
0x34, 0x20:
    ................
    ................
    ................
    ................
    .....@...@@@....
    ....@@..@...@...
    ...@.@..@...@...
    ...@.@..@...@...
    ..@..@..@...@...
    ..@..@..@...@...
    ..@@@@@.@...@...
    .....@...@@@....
    ................
    ................
    ................
    ................


# 0x581
0x34, 0x21:
    .......@........
    @@@@.@.@.@.@@@@.
    ...@.@.@.@....@.
    ...@.@.@.@....@.
    ...@.@.@.@....@.
    @@@@...@...@@@@.
    @....@@@@@.@....
    @......@...@....
    @......@...@....
    @@@@..@@@..@@@@.
    ...@.@.@.@....@.
    ...@.@.@.@....@.
    ...@@..@..@...@.
    ...@...@..@...@.
    ..@....@.....@..
    @@.....@...@@...


# 0x582
0x34, 0x22:
    ......@......@..
    ......@......@..
    ......@..@...@..
    @....@...@...@..
    .@...@...@...@..
    ..@..@...@...@..
    ...@@....@...@..
    ....@....@...@..
    ....@@...@...@..
    ...@.@...@...@..
    ...@..@..@...@..
    ...@..@..@...@..
    ..@......@...@..
    ..@..........@..
    .@...........@..
    @..........@@@..


# 0x583
0x34, 0x23:
    ....@.....@.....
    @@@@@@@@@@@@@@@.
    ....@.....@.....
    ....@.....@.....
    ......@......@..
    ......@..@...@..
    .@....@..@...@..
    ..@..@...@...@..
    ...@.@...@...@..
    ....@....@...@..
    ....@@...@...@..
    ...@.@...@...@..
    ...@..@..@...@..
    ..@...@......@..
    .@...........@..
    @..........@@@..


# 0x584
0x34, 0x24:
    ................
    @@@@@@@@@@@@@@..
    ....@...........
    ....@...........
    ....@...........
    ....@@@@@@@.....
    ...@......@.....
    ...@......@.....
    ...@..@...@.....
    ...@..@...@.....
    ...@...@..@.....
    ..@....@..@...@.
    ..@.......@...@.
    ..@.....@@@...@.
    ..@..@@@..@...@.
    @@@@@......@@@@.


# 0x585
0x34, 0x25:
    ...@......@.....
    ...@......@.....
    @@@@@@@..@......
    ...@.....@@@@@@.
    .@@@@@..@.......
    .@...@.@........
    .@...@..@@@@@@..
    .@@@@@.......@..
    .@...@......@...
    .@...@.....@....
    .@@@@@....@.....
    ...@.....@......
    @@@@@@@.@.....@.
    ...@....@.....@.
    ...@....@.....@.
    ...@.....@@@@@@.


# 0x586
0x34, 0x26:
    ...@............
    ...@.@@@@@@@@@..
    ...@.@.......@..
    ..@..@.......@..
    ..@..@.......@..
    .@@..@.......@..
    .@@..@@@@@@@@@..
    @.@.............
    @.@...@..@..@...
    ..@...@..@..@...
    ..@...@..@..@...
    ..@...@..@..@...
    ..@...@..@..@...
    ..@..@...@..@...
    ..@..@...@..@.@.
    ..@.@....@..@@@.


# 0x587
0x34, 0x27:
    ................
    @@@@@@@@@@@@@@..
    @............@..
    @.@@@@.....@.@..
    ...........@....
    .......@@@@@@@..
    ...........@....
    @@@@@@@....@....
    ..@..@..@..@....
    ..@..@...@.@....
    ..@..@...@.@....
    ..@..@.....@....
    ..@..@.....@....
    .@...@....@@..@.
    .@...@........@.
    @.....@@@@@@@@@.


# 0x588
0x34, 0x28:
    .......@........
    @@@@@@@@@@@@@@@.
    @.............@.
    @....@...@....@.
    @.@@@@@@@@@@@.@.
    .....@...@......
    ..@@@@@@@@@@@...
    .....@...@......
    @@@@@@@@@@@@@@@.
    ....@.....@.....
    ...@..@@...@....
    .@@.....@@..@@..
    @....@@...@...@.
    .......@@.......
    .........@......
    ..........@.....


# 0x589
0x34, 0x29:
    .............@..
    .@@@@@@..@...@..
    ....@....@...@..
    ....@....@...@..
    ....@....@...@..
    ....@....@...@..
    ....@....@...@..
    @@@@@@@@.@...@..
    ....@....@...@..
    ....@....@...@..
    ....@....@...@..
    ....@....@...@..
    ....@........@..
    ....@........@..
    ....@........@..
    ....@......@@@..


# 0x58a
0x34, 0x2a:
    ..@...@...@.....
    @@@@@@@@..@.....
    ..@...@...@.....
    ..@@@@@.@@@@@@..
    ..@...@...@..@..
    ..@@@@@...@..@..
    ..@...@...@..@..
    ..@...@...@..@..
    @@@@@@@@..@..@..
    .@.@.@....@..@..
    .@.@.@.@.@...@..
    .@.@.@@@.@...@..
    .@@......@...@..
    .@......@....@..
    .@@@@@@.@....@..
    .......@...@@...


# 0x58b
0x34, 0x2b:
    ..@.......@.....
    ..@.......@.....
    .@@@@@@...@.....
    @..@....@@@@@@..
    ...@......@..@..
    @@@@@@@@..@..@..
    ..@..@....@..@..
    .@..@.....@..@..
    @@@@@@@...@..@..
    .@..@.....@..@..
    .@@@@@@..@...@..
    .@..@....@...@..
    .@@@@@@..@...@..
    .@..@...@....@..
    .@@@@@@.@....@..
    .@.....@...@@...


# 0x58c
0x34, 0x2c:
    ..@....@....@...
    ...@...@...@....
    ....@..@..@.....
    .@@@@@@@@@@@@@..
    ......@.@.......
    .....@...@......
    @@@@@@@@@@@@@@@.
    ....@.....@.....
    ...@.......@....
    ..@.@@@@@@@.@...
    .@........@..@..
    @.........@...@.
    ...@@@@@@@@.....
    ...@........@...
    ...@........@...
    ....@@@@@@@@@...


# 0x58d
0x34, 0x2d:
    ........@.......
    ........@@@@....
    @@@@...@...@....
    @..@..@...@.....
    @..@.@@@@@@@@@..
    @..@@.@.@..@.@..
    @..@..@.@..@.@..
    @..@..@.@..@.@..
    @..@..@.@..@@@..
    @..@..@@.....@..
    @@@@..@..@...@..
    @...@@@@@@@@@@@.
    ........@.@.....
    .......@...@....
    .....@@.....@...
    ...@@........@@.


# 0x58e
0x34, 0x2e:
    ......@.....@...
    ..@...@.....@...
    ..@.@@@@@@@@@@@.
    ..@...@.....@...
    ..@...@@@@@@@...
    @@@@@.@.....@...
    ..@...@@@@@@@...
    ..@...@.....@...
    ..@...@.....@...
    ..@.@@@@@@@@@@@.
    ..@..@..@.@.....
    ..@.@@..@.@.....
    ..@@.@.@..@...@.
    @@...@@....@@@@.
    .....@..........
    .....@@@@@@@@@@.


# 0x58f
0x34, 0x2f:
    .......@........
    ......@.........
    .@@@@@@@@@@@@@..
    ....@.....@.....
    ...@@@...@......
    ......@@@@......
    .....@@..@@.....
    .@@@@......@@...
    ..@......@......
    @@@@@@@@@@@@@@@.
    ..@...@..@...@..
    .@....@.@....@..
    .@@..@..@@..@...
    ...@@@....@@@...
    ..@@..@..@@..@..
    @@.....@@.....@.


# 0x590
0x34, 0x30:
    .......@........
    .......@........
    .@@@@@@@@@@@@@..
    .@...........@..
    .@...........@..
    .@.@@@@@@@@@.@..
    ................
    ................
    .@@@@@@@@@@@@@..
    .....@...@......
    .....@...@......
    .....@...@......
    ....@....@......
    ....@....@....@.
    ...@.....@....@.
    ..@.......@@@@@.


# 0x591
0x34, 0x31:
    .......@........
    .......@........
    @@@@@@@@@@@@@@@.
    @.............@.
    @..@@@@@@@@@..@.
    @..@.......@..@.
    ...@.......@....
    ...@@@@@@@@@....
    ...@............
    ...@............
    ...@@@@@@@@@@...
    ...@........@...
    ...@........@...
    ...@........@...
    ...@@@@@@@@@@...
    ...@........@...


# 0x592
0x34, 0x32:
    .......@........
    @@@@@@@@@@@@@@@.
    @....@...@....@.
    @.@@@@@@@@@@@.@.
    @....@...@....@.
    ...@@@@@@@@@....
    ...@.......@....
    ...@@@@@@@@@....
    ...@.......@....
    ...@@@@@@@@@....
    ...@.......@....
    ...@@@@@@@@@....
    .....@..@.......
    ....@...@.....@.
    ..@@....@.....@.
    @@.......@@@@@@.


# 0x593
0x34, 0x33:
    ................
    ..@@@@@@@@@@@...
    .......@........
    .......@........
    .......@........
    .......@........
    .......@........
    @@@@@@@@@@@@@@@.
    .......@........
    .......@........
    .......@........
    .......@........
    .......@........
    .......@........
    .......@........
    .......@........


# 0x594
0x34, 0x34:
    ...@......@@....
    ...@.....@..@...
    @@@@@@@..@..@...
    ...@....@....@..
    .@@@@@..@....@..
    .@...@.@......@.
    .@...@..@@@@@@..
    .@@@@@....@.....
    .@...@....@.....
    .@...@....@.....
    .@@@@@.@@@@@@@@.
    ...@......@.....
    @@@@@@@...@.....
    ...@......@.....
    ...@......@.....
    ...@......@.....


# 0x595
0x34, 0x35:
    .......@........
    ..@@@@@@@@@@@...
    ..@....@....@...
    ..@....@....@...
    ..@@@@@@@@@@@...
    .......@........
    .@@@@@@@@@@@@@..
    .@.....@.....@..
    .@.....@.....@..
    .@@@@@@@@@@@@@..
    .......@........
    ..@.@.......@...
    ..@.@..@@....@..
    .@..@....@.@..@.
    .@..@......@..@.
    @....@@@@@@@..@.


# 0x596
0x34, 0x36:
    .........@..@...
    .........@...@..
    .@@@@@@@@@@@@@@.
    .@.......@......
    .@.@@@@@.@..@...
    .@........@.@...
    .@.@@@@@..@.@...
    .@.@...@...@..@.
    .@.@...@..@@..@.
    .@.@@@@@.@..@.@.
    @.......@....@..
    @.@.@..@........
    ..@.@...@...@...
    .@..@...@....@..
    .@..@......@..@.
    @....@@@@@@@..@.


# 0x597
0x34, 0x37:
    ..@...@@@@@@@...
    ..@...@..@..@...
    ..@.@@@@@@@@@@@.
    ..@...@..@..@...
    @.@.@.@@@@@@@...
    @.@.@...........
    @.@..@@@@@@@@@..
    @.@..@.......@..
    ..@..@@@@@@@@@..
    ..@..@.......@..
    ..@..@@@@@@@@@..
    ..@..@.......@..
    ..@..@@@@@@@@@..
    ..@....@...@....
    ..@...@.....@...
    ..@.@@.......@@.


# 0x598
0x34, 0x38:
    ..@.......@.@...
    ..@.......@..@..
    ..@..@@@@@@@@@@.
    ..@..@....@.....
    @.@.@@.@@@@..@..
    @.@.@@....@..@..
    @.@..@.@@@.@.@..
    @.@..@.@.@.@@...
    ..@..@.@.@..@.@.
    ..@..@.@@@.@.@@.
    ..@.@.....@...@.
    ..@...@.@.......
    ..@.@.@..@..@...
    ..@.@.@..@...@..
    ..@.@.@....@..@.
    ..@.@..@@@@@..@.


# 0x599
0x34, 0x39:
    ..@.....@.......
    ..@.....@@@@....
    ..@....@...@....
    @@@@@.....@.....
    ..@..@@@@@@@@@..
    ..@..@..@.@..@..
    ..@..@..@.@..@..
    ..@..@..@.@..@..
    ..@@.@.@...@@@..
    @@@..@@..@...@..
    ..@......@......
    ..@.@@@@@@@@@@@.
    ..@.....@.@.....
    ..@....@...@....
    ..@...@.....@...
    .@@.@@.......@@.


# 0x59a
0x34, 0x3a:
    ..........@.....
    .@@@@@....@.....
    ...@.....@......
    ...@.....@@@@@@.
    @@@@@@@..@...@..
    .@...@..@....@..
    .@...@..@@...@..
    .@@@@@.@.@...@..
    .@...@...@...@..
    .@...@...@..@...
    .@@@@@...@..@...
    .@...@....@@....
    .@.@@@....@@....
    @@@..@...@..@...
    .....@..@....@..
    .....@.@......@.


# 0x59b
0x34, 0x3b:
    ...@...@....@...
    ...@...@....@...
    ...@...@....@...
    .@@@@@.@....@...
    ...@..@@@@@@@@@.
    ...@...@....@...
    ..@@...@....@...
    ..@@@..@....@...
    .@.@.@.@....@...
    .@.@...@@@@@@...
    @..@...@....@...
    ...@...@....@...
    ...@...@....@...
    ...@...@....@...
    ...@...@@@@@@...
    ...@...@....@...


# 0x59c
0x34, 0x3c:
    ...@............
    ...@..@@@@@@@@@.
    ...@............
    .@@@@@..........
    ...@...@@@@@@@..
    ...@...@.....@..
    ..@@...@.....@..
    ..@@@..@@@@@@@..
    .@.@.@.@.....@..
    .@.@...@.....@..
    @..@...@.....@..
    ...@...@@@@@@@..
    ...@............
    ...@............
    ...@..@@@@@@@@@.
    ...@............


# 0x59d
0x34, 0x3d:
    ...@......@.....
    ...@......@.....
    ...@..@@@@@@@@@.
    @@@@@@@.......@.
    ...@..@.......@.
    ...@...@@@@@@...
    ..@@...@....@...
    ..@@@..@....@...
    .@.@.@.@@@@@@...
    .@.@...@........
    @..@...@@@@@@@..
    ...@...@.....@..
    ...@...@.....@..
    ...@...@.....@..
    ...@...@@@@@@@..
    ...@...@.....@..


# 0x59e
0x34, 0x3e:
    ...@.....@......
    ...@.....@......
    @@@@@@@..@......
    ...@.....@@@@@@.
    ...@....@..@..@.
    .@@@@@..@..@..@.
    ........@..@.@..
    .@@@@@.@...@....
    ..........@.@...
    @@@@@@@...@.@...
    ...@......@.@...
    .@.@.@...@..@...
    .@.@..@..@...@..
    @..@..@.@....@..
    @..@....@....@..
    ..@@...@......@.


# 0x59f
0x34, 0x3f:
    ..@......@......
    ..@......@......
    .@@@@@@..@......
    @..@.....@@@@@@.
    ..@.....@..@..@.
    @@@@@@@.@..@..@.
    ..@..@..@..@.@..
    .@..@..@...@....
    @@@@@@@...@.@...
    .@..@.....@.@...
    .@@@@@@...@.@...
    .@..@....@..@...
    .@@@@@@..@...@..
    .@..@...@....@..
    .@@@@@@.@....@..
    .@.....@......@.


# 0x5a0
0x34, 0x40:
    ................
    @....@@@@@@@@@..
    .@.......@......
    ..@......@......
    .........@......
    @........@......
    .@.......@......
    ..@.@@@@@@@@@@@.
    .........@......
    .........@......
    ..@......@......
    ..@......@......
    .@.......@......
    .@.......@......
    @........@......
    @........@......


# 0x5a1
0x34, 0x41:
    .......@...@....
    .@..@@@@@@@@@@@.
    ..@....@...@....
    ................
    @....@@@@@@@@@..
    .@...@...@...@..
    .....@...@...@..
    .....@@@@@@@@@..
    ...@.....@......
    ...@.@@@@@@@@@..
    ..@......@......
    ..@......@......
    .@..@@@@@@@@@@@.
    .@.....@...@....
    @.....@.....@...
    ....@@.......@@.


# 0x5a2
0x34, 0x42:
    ................
    .@...@@@@..@@@@.
    ..@..@..@..@..@.
    .....@@@@..@@@@.
    @....@..@..@..@.
    .@...@@@@..@@@@.
    .....@........@.
    .....@..@@@@..@.
    ...@.@..@..@..@.
    ...@.@..@@@@..@.
    ..@..@..@..@..@.
    ..@..@..@@@@..@.
    .@...@........@.
    .@...@........@.
    @....@........@.
    .....@.......@@.


# 0x5a3
0x34, 0x43:
    .......@........
    .@.....@@@@@@@..
    ..@...@..@......
    ......@@@@@@@@@.
    .....@..@.......
    @......@...@....
    .@....@...@.....
    .....@@@@@@@@@..
    ....@.@...@.....
    ..@...@...@.....
    ..@...@@@@@@@@..
    ..@...@...@.....
    .@....@@@@@@@@..
    .@....@...@.....
    @.....@...@.....
    ......@@@@@@@@@.


# 0x5a4
0x34, 0x44:
    .....@@@@@@@@@..
    @@@@.@..@.@..@..
    ..@..@..@.@..@..
    ..@..@@@@@@@@@..
    ..@.............
    ..@.@@@@@@@@@@@.
    ..@.............
    @@@@..@@@@@@@...
    ..@...@.....@...
    ..@...@.....@...
    ..@...@@@@@@@...
    ..@.@...@.@...@.
    ..@@...@@..@.@..
    @@....@.@...@...
    ....@@..@....@..
    ........@.....@.


# 0x5a5
0x34, 0x45:
    ...@.......@....
    ...@.......@....
    ...@.......@....
    @@@@@@@@@@@@@@@.
    ...@.......@....
    ...@.......@....
    ...@.......@....
    ...@.......@....
    ...@@@@@@@@@....
    ...@.......@....
    ...@.......@....
    ...@.......@....
    ...@.......@....
    ...@.......@....
    ...@@@@@@@@@....
    ...@.......@....


# 0x5a6
0x34, 0x46:
    .@@@@@@...@.....
    .@..@.....@.....
    .@..@.....@@@@@.
    .@@@@@@..@......
    .@....@.@.......
    .@@@@@@.........
    .@..@...........
    .@..@....@@@@@..
    .@@@@@@.........
    ................
    ..@@@@@@@@@@@...
    ..@..@...@..@...
    ..@..@...@..@...
    ..@..@...@..@...
    ..@..@...@..@...
    @@@@@@@@@@@@@@@.


# 0x5a7
0x34, 0x47:
    ..........@@@...
    ..@@@@@@@@......
    ......@.........
    ......@.........
    .@@@@@@@@@@@@@..
    .....@..........
    .....@..........
    @@@@@@@@@@@@@@@.
    ....@...........
    ...@@@@@@@@@@...
    ..@.@.......@...
    .@..@@@@@@@@@...
    @...@.......@...
    ....@@@@@@@@@...
    ....@.......@...
    ....@@@@@@@@@...


# 0x5a8
0x34, 0x48:
    ...@......@.....
    ...@......@.....
    ...@@@@@..@@@@@.
    ..@.@....@.@....
    .@...@..@...@...
    @....@......@...
    ................
    ..@@@@@@@@@@@...
    .......@........
    .......@........
    .......@........
    @@@@@@@@@@@@@@@.
    .......@........
    .......@........
    .......@........
    .......@........


# 0x5a9
0x34, 0x49:
    ...@......@.....
    ...@@@@@..@@@@@.
    ..@.@....@.@....
    .@...@..@...@...
    .......@........
    @@@@@@@@@@@@@@@.
    @.............@.
    @..@@@@@@@@@..@.
    @..@.......@..@.
    ...@.......@....
    ...@@@@@@@@@....
    ...@............
    ...@@@@@@@@@@...
    ...@........@...
    ...@........@...
    ...@@@@@@@@@@...


# 0x5aa
0x34, 0x4a:
    ..@......@......
    ..@@@@@..@@@@@@.
    .@..@...@..@....
    @...@..@...@....
    .@@@@@@..@@@@@@.
    .@....@..@....@.
    .@@@@@@..@@@@@@.
    .@....@..@....@.
    .@@@@@@..@@@@@@.
    .@............@.
    .@...@@@@@@...@.
    .@...@....@...@.
    .@...@@@@@@...@.
    .@...@....@...@.
    .@...@@@@@@...@.
    .@...........@@.


# 0x5ab
0x34, 0x4b:
    ...@........@...
    ..@.......@@....
    .@....@@@@...@..
    @...@.@..@...@..
    .@.@...@..@.@...
    ..@...@@@@@@@@..
    .@..@...@.......
    @@@@@.@@@@@@@@@.
    ..@..@..@.......
    ..@.....@@@@@@..
    @.@.@...@....@..
    @.@..@..@@...@..
    @.@..@.@..@.@...
    @.@....@...@....
    ..@...@..@@.@...
    ..@..@.@@....@@.


# 0x5ac
0x34, 0x4c:
    ....@...........
    ....@...........
    ....@@@@@@@@@...
    ...@...@........
    ..@....@........
    .@.....@........
    .......@........
    @@@@@@@@@@@@@@@.
    .......@........
    ..@....@....@...
    ..@....@....@...
    ..@....@....@...
    ..@....@....@...
    ..@....@....@...
    ..@@@@@@@@@@@...
    ..@.........@...


# 0x5ad
0x34, 0x4d:
    ..@......@@.....
    ..@.....@..@....
    @@@@@..@....@...
    ..@...@......@..
    @@@@@.........@.
    @...@.@@@.@@@@..
    @...@...@....@..
    @@@@@...@....@..
    @...@.@.@..@.@..
    @...@..@@...@@..
    @@@@@...@....@..
    ..@....@@...@@..
    @@@@@.@.@..@.@..
    ..@..@..@.@..@..
    ..@.....@....@..
    ..@....@@...@@..


# 0x5ae
0x34, 0x4e:
    ................
    .@@@@..@@@@@@@..
    .@..@.....@.....
    .@..@.....@.....
    .@..@.....@.....
    .@@@@.....@.....
    .@..@.....@.....
    .@..@.@@@@@@@@@.
    .@..@.....@.....
    .@@@@.....@.....
    .@..@.....@.....
    .@..@.....@.....
    .@..@.....@.....
    .@..@.....@.....
    .@..@.....@.....
    @..@@.....@.....


# 0x5af
0x34, 0x4f:
    ...@.........@..
    ...@...@@@@..@..
    .@@@@@.@.@...@@@
    .@...@.@@@@.@...
    .@.@.@.@..@.....
    .@.@.@.@@@@.....
    .@.@.@.@.@..@@@.
    .@...@.@@@@.....
    @@@@@@..........
    .@.@.@.@@@@@@@..
    .@.@.@.@.@.@.@..
    .@.@.@.@.@.@.@..
    .@.@.@.@.@.@.@..
    .@...@.@.@.@.@..
    .@...@.@.@.@.@..
    @...@@@@@@@@@@@.


# 0x5b0
0x34, 0x50:
    ....@.....@.....
    @@@@@@@@@@@@@@@.
    ....@.....@.....
    ....@..@..@.....
    .......@........
    .@@@@@@@@@@@@@..
    .@...........@..
    .@...........@..
    ...@@@@@@@@@....
    ................
    .@@@@@@@@@@@@@..
    .....@..@.......
    .....@..@.......
    ....@...@.....@.
    ..@@....@.....@.
    @@.......@@@@@@.


# 0x5b1
0x34, 0x51:
    ..@.............
    ..@@@@@.@@@@@@..
    .@..@...@....@..
    @..@....@....@..
    .@@@@@@.@@@@@@..
    ..@.....@....@..
    .@..@...@....@..
    @@@@@@@.@@@@@@..
    .@..@...@....@..
    .@@@@@@.@....@..
    .@..@...@@@@@@..
    .@@@@@@..@.@....
    .@..@....@.@....
    .@..@....@.@..@.
    .@@@@@@.@..@..@.
    .@.....@...@@@@.


# 0x5b2
0x34, 0x52:
    ..........@.....
    .@@@@.....@.....
    ......@@@@@@@@@.
    @@@@@@....@.....
    .......@@@@@@@..
    .@@@@..@..@..@..
    .......@@@@@@@..
    .@@@@..@..@..@..
    .......@..@..@..
    .@@@@..@@@@@@@..
    .@..@.....@.....
    .@..@....@@@....
    .@..@...@.@.@...
    .@..@..@..@..@..
    .@@@@.@...@...@.
    .@........@.....


# 0x5b3
0x34, 0x53:
    ................
    ..@@@@@@@@@@@...
    ..@....@....@...
    @@@@@@@@@@@@@@@.
    ..@....@....@...
    ..@@@@@@@@@@@...
    ................
    ..@@@@@@@@@@@...
    ..@.........@...
    ..@@@@@@@@@@@...
    ..@.........@...
    ..@@@@@@@@@@@...
    ..@.........@...
    ..@@@@@@@@@@@...
    ....@.....@.....
    .@@@.......@@@..


# 0x5b4
0x34, 0x54:
    .....@@@@@@@@@..
    @....@..@.@..@..
    .@...@@@@@@@@@..
    ..@.............
    ....@@@@@@@@@@@.
    ................
    ......@@@@@@@...
    @@@...@.....@...
    ..@...@@@@@@@...
    ..@......@...@..
    ..@....@@.@.@...
    ..@..@@.@..@....
    ..@.....@...@@..
    ..@.....@.......
    .@.@............
    @...@@@@@@@@@@@.


# 0x5b5
0x34, 0x55:
    ...@........@...
    ..@.@.@@@@@.@...
    .@..@.@.@...@@@.
    .@...@@@@@..@...
    @.....@..@.@....
    @@@@@.@@@@......
    ..@...@.@.......
    ..@...@@@@@.@@@.
    @@@@@...........
    ..@....@@@@@@@..
    @.@.@..@.@.@.@..
    @.@.@..@.@.@.@..
    @.@....@.@.@.@..
    ..@@@..@.@.@.@..
    @@.....@.@.@.@..
    .....@@@@@@@@@@.


# 0x5b6
0x34, 0x56:
    ................
    .@@@@@@..@@@@@@.
    .@....@..@....@.
    .@@@@@@..@@@@@@.
    .@....@..@....@.
    .@@@@@@..@@@@@@.
    .@............@.
    .@............@.
    .@...@@@@@@...@.
    .@...@....@...@.
    .@...@....@...@.
    .@...@@@@@@...@.
    .@...@....@...@.
    .@...@....@...@.
    .@...@@@@@@...@.
    .@...........@@.


# 0x5b7
0x34, 0x57:
    ................
    .@@@@@@..@@@@@@.
    .@....@..@....@.
    .@@@@@@..@@@@@@.
    .@....@..@....@.
    .@@@@@@..@@@@@@.
    .@............@.
    .@.....@......@.
    .@.....@......@.
    .@.@@@@@@@@@..@.
    .@.....@......@.
    .@....@@@.....@.
    .@...@.@.@....@.
    .@..@..@..@...@.
    .@.@...@...@..@.
    .@.....@.....@@.


# 0x5b8
0x34, 0x58:
    ................
    .@@@@@@..@@@@@@.
    .@....@..@....@.
    .@@@@@@..@@@@@@.
    .@....@..@....@.
    .@@@@@@..@@@@@@.
    .@............@.
    .@...@...@....@.
    .@....@.@.....@.
    .@..@@@@@@@...@.
    .@.....@......@.
    .@.@@@@@@@@@..@.
    .@....@.@.....@.
    .@...@...@....@.
    .@..@.....@...@.
    .@...........@@.


# 0x5b9
0x34, 0x59:
    .........@......
    .@@@@....@......
    .@..@....@@@@@..
    .@..@...@....@..
    .@..@..@.....@..
    .@.@..@.....@...
    .@..@......@....
    .@..@.@..@@@@@@.
    .@..@.@..@....@.
    .@..@.@..@....@.
    .@..@.@..@....@.
    .@..@.@..@@@@@@.
    .@@@..@..@....@.
    .@....@..@....@.
    .@....@..@....@.
    .@....@..@@@@@@.


# 0x5ba
0x34, 0x5a:
    ...@......@.....
    ...@....@@@@@...
    @@@@@@@..@..@...
    ...@.....@..@...
    .@@@@@.@@@@@@@@.
    .@...@..........
    .@...@..@@@@@@..
    .@@@@@..@....@..
    .@...@..@....@..
    .@...@..@@@@@@..
    .@@@@@.....@....
    ...@....@@@@@@..
    @@@@@@@.@..@....
    ...@....@..@....
    ...@..@@@@@@@@@.
    ...@.......@....


# 0x5bb
0x34, 0x5b:
    ....@......@....
    ...@.@.....@....
    ..@...@.@@@@@@@.
    .@..@...@.....@.
    @...@...@.....@.
    .@@@@@@..@@@@@..
    .@....@..@...@..
    .@@@@@@..@...@..
    .@....@..@@@@@..
    .@@@@@@..@......
    .@.......@......
    .@..@....@@@@@@.
    .@...@...@....@.
    .@..@.@..@....@.
    .@@@..@..@....@.
    @@.......@@@@@@.


# 0x5bc
0x34, 0x5c:
    ...@.......@....
    ..@.@......@....
    .@...@..@@@@@@@.
    @.....@.@.....@.
    .@@@@@..@.....@.
    ...@.....@@@@@..
    ...@.....@...@..
    @@@@@@@..@...@..
    ...@.....@@@@@..
    ...@.....@......
    .@@@@@...@......
    .@...@...@@@@@@.
    .@...@...@....@.
    .@...@...@....@.
    .@@@@@...@....@.
    .........@@@@@@.


# 0x5bd
0x34, 0x5d:
    .....@..........
    .....@..........
    .....@..........
    .....@..........
    @@@@@@@@@@@.....
    .....@....@.....
    .....@....@.....
    .@@..@....@.....
    ...@@@....@.....
    .....@@...@.....
    ....@..@..@.....
    ....@...@.@.....
    ...@......@...@.
    ..@.......@...@.
    .@........@...@.
    @..........@@@@.


# 0x5be
0x34, 0x5e:
    .......@........
    ......@.@.......
    .....@...@......
    ....@.....@.....
    ..@@.......@@...
    @@..@@@@@@@..@@.
    ................
    ..@@@@@@@@@@@...
    ...........@....
    ..........@.....
    ..@@@@@@@@@@@...
    ..@.........@...
    ..@.........@...
    ..@.........@...
    ..@@@@@@@@@@@...
    ..@.........@...


# 0x5bf
0x34, 0x5f:
    ........@.......
    ..@.....@.....@.
    ..@.....@.....@.
    ..@@@@@@@@@@@@@.
    ................
    ..@@@@@@@@@@@@@.
    ..@.............
    ..@.............
    ..@..@@@@@@@@@..
    ..@......@......
    ..@......@......
    ..@.@@@@@@@@@@@.
    ..@......@......
    .@.......@......
    .@.......@......
    @........@......


# 0x5c0
0x34, 0x60:
    .......@........
    .@.....@.....@..
    .@@@@@@@@@@@@@..
    ...@...@...@....
    .@@@@@@@@@@@@@@.
    .@........@.....
    .@..@@@@..@.....
    .@...@....@@@@@.
    .@.@@@@@.@...@..
    .@..@..@@.@..@..
    .@..@@@@..@..@..
    .@..@..@..@..@..
    .@..@@@@..@.@...
    .@..@..@@..@....
    .@.@@@@@..@.@...
    @......@.@...@..


# 0x5c1
0x34, 0x61:
    ................
    ......@@@@@@@@..
    @@@@@...........
    ..@.............
    ..@.............
    ..@.............
    ..@..@@@@@@@@@@.
    @@@@@...@..@....
    ..@.....@..@....
    ..@.....@..@....
    ..@.....@..@....
    ..@.@..@...@....
    ..@@...@...@..@.
    @@....@....@..@.
    ....@@.....@..@.
    ..@@........@@@.


# 0x5c2
0x34, 0x62:
    ........@.......
    ..@@@@@@@@@@@@@.
    ..@.............
    ..@...@@@@@@@...
    @.@...@.....@...
    .@@...@@@@@@@...
    ..@.............
    ..@.@@@@@.@@@@@.
    ..@.@...@.@...@.
    .@@.@...@.@...@.
    @.@.@@@@@.@@@@@.
    ..@......@......
    ..@..@...@...@..
    ..@..@...@...@..
    .@...@...@...@..
    @....@@@@@@@@@..


# 0x5c3
0x34, 0x63:
    ................
    @@@@@..@@@@@@@..
    @...@..@.....@..
    @...@..@.....@..
    @...@..@@@@@@@..
    @@@@@..@.....@..
    @...@..@.....@..
    @...@..@@@@@@@..
    @...@..@..@.....
    @@@@@..@..@..@..
    @...@..@..@.@...
    @...@..@...@....
    @...@..@...@....
    @@@@@..@.@..@...
    .......@@....@..
    .....@@.......@.


# 0x5c4
0x34, 0x64:
    .......@........
    ..@....@....@...
    ..@....@....@...
    ..@....@....@...
    ..@@@@@@@@@@@...
    ................
    ................
    @@@@@@@@@@@@@@@.
    ....@...........
    ...@............
    ..@@@@@@@@@@@...
    .@.@........@...
    @..@........@...
    ...@........@...
    ...@........@...
    ...@@@@@@@@@@...


# 0x5c5
0x34, 0x65:
    ................
    @@@@.@@@.@@@@@..
    ..@@..@@........
    .@.@.@.@........
    ...@...@........
    ..@@..@@........
    .@.@.@.@@@@@@@@.
    ..@@..@@..@.@...
    ....@.....@.@...
    .@@@@@@...@.@...
    .@....@..@..@...
    .@@@@@@..@..@...
    .@....@..@..@...
    .@....@.@...@.@.
    .@@@@@@.@...@.@.
    .......@.....@@.


# 0x5c6
0x34, 0x66:
    ................
    .@@@@@@@@@@@@@@.
    .@...@..@.@.....
    .@..@..@@@@@@@@.
    .@.@@.@@..@.....
    .@@.@..@@@@@@@..
    .@..@..@..@.....
    .@..@..@@@@@@@@.
    .@..............
    .@..@@@@@@@@@...
    .@..@.......@...
    .@..@@@@@@@@@...
    .@..@.......@...
    .@..@@@@@@@@@...
    .@....@...@.....
    @..@@@.....@@@@.


# 0x5c7
0x34, 0x67:
    ................
    ..@@@@@@@@@@@@@.
    ..@.............
    ..@...@...@..@..
    ..@...@..@..@...
    ..@..@..@@@@@@@.
    ..@..@.@@..@....
    ..@.@@@.@..@....
    ..@@.@..@@@@@@..
    ..@..@..@..@....
    ..@..@..@..@....
    .@...@..@@@@@@..
    .@...@..@..@....
    .@...@..@..@....
    @....@..@..@....
    @....@..@@@@@@@.


# 0x5c8
0x34, 0x68:
    ................
    .@@@@@.@@@@@@@@.
    ..........@.....
    .........@......
    ........@@@@@@..
    @@@@@@@.@....@..
    ..@.@...@@@@@@..
    ..@.@...@....@..
    ..@.@...@....@..
    ..@.@...@@@@@@..
    ..@.@...@....@..
    ..@.@...@....@..
    ..@.@...@@@@@@..
    .@..@.@..@..@...
    .@..@@..@....@..
    @.....@@......@.


# 0x5c9
0x34, 0x69:
    ...@............
    ...@...@@@@@@@@.
    @@@@@@@...@.....
    .@...@...@......
    ..@..@..@@@@@@..
    ..@.@...@....@..
    .@@@@@@.@@@@@@..
    .@...@..@....@..
    .@.@@...@....@..
    .@....@.@@@@@@..
    .@...@..@....@..
    .@.@@...@....@..
    .@....@.@@@@@@..
    .@...@...@..@...
    .@.@@...@....@..
    @.....@@......@.


# 0x5ca
0x34, 0x6a:
    ................
    .@@@@@@.@@@@@@@.
    .@..@.....@.....
    .@..@.....@.....
    .@.@@@@@.@@@@@@.
    .@.@...@.@....@.
    .@.@...@.@@@@@@.
    .@.@@@@@.@....@.
    .@.@...@.@....@.
    .@.@...@.@@@@@@.
    .@.@@@@@.@....@.
    .@...@...@....@.
    .@.@.@.@.@@@@@@.
    @@.@.@.@........
    @....@...@...@..
    @...@@.@@.....@.


# 0x5cb
0x34, 0x6b:
    .......@........
    ......@.@.......
    .....@...@......
    ....@.....@.....
    ...@.......@....
    ..@....@....@...
    .@.....@.....@..
    @......@......@.
    ...@...@........
    ...@...@@@@@@...
    ...@...@........
    ...@...@........
    ...@...@........
    ...@...@........
    ...@...@........
    @@@@@@@@@@@@@@@.


# 0x5cc
0x34, 0x6c:
    ....@....@......
    ....@....@......
    ...@.....@......
    ..@..@@@@@@@@@@.
    ..@......@......
    .@@......@......
    .@@......@......
    @.@..@@@@@@@@@..
    ..@..........@..
    ..@...@.....@...
    ..@....@...@....
    ..@.....@.@.....
    ..@......@......
    ..@.....@.@.....
    ..@...@@...@@...
    ..@.@@.......@@.


# 0x5cd
0x34, 0x6d:
    ....@...........
    ....@@@@@@@.....
    ...@......@.....
    ..@......@......
    .@......@.......
    @.@@@@@@@@@@@@@.
    ..@.............
    ..@.............
    ..@..@@@@@@@@...
    ..@..@......@...
    ..@..@......@...
    ..@..@......@...
    ..@..@....@@@...
    ..@..@........@.
    .@...@........@.
    @....@@@@@@@@@@.


# 0x5ce
0x34, 0x6e:
    .......@........
    @@@@@@@@@@@@@@@.
    .......@........
    ..@@@@@@@@@@@...
    ................
    ..@@@@@@@@@@@...
    ..@.........@...
    ..@@@@@@@@@@@...
    ....@.....@.....
    .....@...@......
    @@@@@@@@@@@@@@@.
    ................
    ..@@@@@@@@@@@...
    ..@.........@...
    ..@.........@...
    ..@@@@@@@@@@@...


# 0x5cf
0x34, 0x6f:
    ................
    .@@@@@...@@@@@..
    .@...@...@...@..
    .@...@...@...@..
    .@@@@@...@@@@@..
    .......@........
    .......@........
    @@@@@@@@@@@@@@@.
    .....@...@......
    ...@@.....@@....
    @@@.........@@@.
    .@@@@@...@@@@@..
    .@...@...@...@..
    .@...@...@...@..
    .@...@...@...@..
    .@@@@@...@@@@@..


# 0x5d0
0x34, 0x70:
    ....@.....@.....
    ....@.....@.....
    .@@@@@@@@@@@@@..
    ....@.....@.....
    ....@@@@@@@.....
    ....@.....@.....
    ....@@@@@@@.....
    ....@.....@.....
    @@@@@@@@@@@@@@@.
    ....@.....@.....
    ...@...@...@....
    ..@....@....@...
    @@..@@@@@@@..@@.
    .......@........
    .......@........
    .@@@@@@@@@@@@@..


# 0x5d1
0x34, 0x71:
    .......@........
    .......@........
    .@@@@@@@@@@@@@..
    ......@.@.......
    ....@@...@@.....
    ..@@.......@@...
    ................
    @@@@@@@@@@@@@@@.
    ...........@....
    ..@@@@@@...@....
    ..@....@...@....
    ..@....@...@....
    ..@....@...@....
    ..@@@@@@...@....
    ...........@....
    .........@@@....


# 0x5d2
0x34, 0x72:
    ..@......@......
    ..@..@@@@@@@@@@.
    ..@......@......
    @@@@@.@@@@@@@@..
    .@..@...........
    .@..@.@@@@@@@...
    .@..@.@.....@...
    .@..@.@@@@@@@...
    .@..@..@....@...
    .@..@...@..@....
    .@..@@@@@@@@@@@.
    ..@@............
    ..@.@.@@@@@@@...
    .@....@.....@...
    @.....@.....@...
    ......@@@@@@@...


# 0x5d3
0x34, 0x73:
    ......@.........
    @@@@@@@@@@@@@@..
    @............@..
    @.....@......@..
    ..@@@@@@@@@@....
    .....@..@.......
    ...@@....@@.....
    .@@........@@...
    ................
    @@@@@@@@@@@@@@@.
    ............@...
    ...@@@@@@...@...
    ...@....@...@...
    ...@....@...@...
    ...@@@@@@...@...
    ...........@@...


# 0x5d4
0x34, 0x74:
    ..@.......@.....
    ..@.......@.....
    ..@.......@.....
    @.@.@.@@@@@@@@@.
    @.@.@.....@.....
    @.@.@.....@.....
    @.@.@.....@.....
    @.@.@.@@@@@@@@..
    @.@.@........@..
    @.@.@..@.....@..
    @.@.@...@...@...
    @.@.@....@.@....
    @.@.@.....@.....
    @@@@@....@.@....
    .......@@...@...
    .....@@......@@.


# 0x5d5
0x34, 0x75:
    ..@@........@...
    ....@@...@@@....
    ......@@@.......
    .....@...@......
    ..@@@..@..@@....
    ......@.........
    @@@@@@@@@@@@@@@.
    ....@..@........
    ...@...@........
    ..@@@@@@@@@@@...
    @@.@...@....@...
    ...@...@....@...
    ...@...@....@...
    ...@...@...@@...
    .......@........
    .......@........


# 0x5d6
0x34, 0x76:
    ....@..@....@...
    ...@...@...@....
    ..@....@..@.....
    .@...@.@.@...@..
    ..@.@..@..@.@...
    ...@...@...@....
    ..@..@.@..@...@.
    @@@@@@..@.@@@@@.
    ......@.@...@...
    @@@@@@@@@@@@@@@.
    ..@.....@.......
    ..@.....@...@...
    .@.@.....@.@....
    @...@....@@...@.
    @......@@..@..@.
    ....@@@.....@@@.


# 0x5d7
0x34, 0x77:
    ................
    ..@@@@@@@@@@@...
    ............@...
    ............@...
    ..@@@@@@@@@@@...
    ..@...........@.
    ..@...........@.
    ..@...........@.
    ..@@@@@@@@@@@@..
    ................
    ....@..@...@....
    .@..@...@...@...
    .@..@...@....@..
    .@..@.....@...@.
    @...@.....@...@.
    @...@@@@@@@.....


# 0x5d8
0x34, 0x78:
    ..@.............
    ..@..@@@@@@@@@@.
    ..@..@...@....@.
    @@@@@.@@@@@@@.@.
    ..@......@......
    ..@...@@@@@@@...
    ..@...@..@..@...
    ..@...@..@..@...
    ..@@@.@@@@@@@...
    @@@...@..@..@...
    ..@...@..@..@...
    ..@...@@@@@@@...
    ..@......@......
    ..@.@@@@@@@@@@@.
    ..@......@......
    .@@......@......


# 0x5d9
0x34, 0x79:
    ...@............
    ...@...@@@@@@...
    ...@...@....@...
    @@@@@@.@....@...
    ...@...@....@...
    ..@@...@....@...
    ..@@@..@....@...
    .@.@.@.@....@...
    .@.@...@....@...
    .@.@...@....@...
    @..@...@....@...
    ...@...@....@...
    ...@...@....@...
    ...@..@.....@.@.
    ...@..@.....@.@.
    ...@.@......@@@.


# 0x5da
0x34, 0x7a:
    ..@.....@.......
    ..@.....@.......
    ..@....@@@@@@@@.
    @@@@@.@.........
    .@......@...@...
    .@....@@@@@@@@@.
    .@@@@...@...@...
    .@..@...@@@@@...
    .@..@...@...@...
    .@..@...@@@@@...
    .@..@...@...@...
    .@..@...@...@...
    .@..@.@@@@@@@@@.
    .@..@...@...@...
    .@..@..@.....@..
    @..@@.@.......@.


# 0x5db
0x34, 0x7b:
    ................
    .@@@@@@.@@@@@@@.
    .@....@..@..@...
    .@....@..@..@...
    .@@@@@@..@..@...
    .@....@..@..@...
    .@....@..@..@...
    .@@@@@@.@@@@@@@.
    .@.........@....
    .@........@.@...
    .@........@.@...
    .@..@....@..@...
    .@..@....@..@...
    .@..@@..@...@.@.
    .@.@..@@....@.@.
    @@@...@.....@@@.


# 0x5dc
0x34, 0x7c:
    ..@...@.........
    ..@...@...@@@@@.
    @@@@@@@@@.@...@.
    ..@...@...@...@.
    ..@...@...@...@.
    ..@@@@@...@@@@@.
    ..@...@...@...@.
    ..@...@...@...@.
    ..@@@@@...@...@.
    ..@...@...@@@@@.
    ..@...@...@...@.
    @@@@@@@@@.@...@.
    ..........@...@.
    ..@..@....@...@.
    .@....@...@...@.
    @......@.@...@@.


# 0x5dd
0x34, 0x7d:
    ..@....@....@...
    ..@....@....@...
    ..@..@@@@@@@@@@.
    @@@@@..@....@...
    ..@....@....@...
    .@@....@@@@@@...
    .@@@...@....@...
    @.@.@..@....@...
    @.@....@@@@@@...
    @.@....@....@...
    @.@....@....@...
    ..@..@@@@@@@@@@.
    ..@.............
    ..@.....@..@....
    ..@....@....@...
    ..@...@......@..


# 0x5de
0x34, 0x7e:
    .......@........
    @@@@@@@@@@@@@@@.
    ....@......@....
    ..@@@@@@@@@@@...
    .............@..
    ...@...@...@....
    @@@@@@@@@@@@@@@.
    ...@...@...@....
    ...@...@...@....
    ...@@@@@@@@@....
    .......@........
    @@@@@@@@@@@@@@@.
    .....@.@.@......
    ....@..@..@.....
    ..@@...@...@@...
    @@.....@.....@@.


# 0x5df
0x34, 0x7f:
    @...............
    @...............
    @...............
    @...............
    @@@@@@@@@@@@@@@@
    @...............
    @...............
    @...............
    @...............
    @@@@@@@@@@@@@@@@
    @...............
    @...............
    @...............
    @...............
    @@@@@@@@@@@@@@@@
    @...............


# 0x5e0
0x35, 0x20:
    ................
    ................
    ................
    ................
    ..@@@@@..@@@....
    ..@.....@...@...
    ..@.....@...@...
    ..@@@@..@...@...
    ......@.@...@...
    ......@.@...@...
    ..@...@.@...@...
    ...@@@...@@@....
    ................
    ................
    ................
    ................


# 0x5e1
0x35, 0x21:
    ..@....@.@...@..
    ..@...@..@..@...
    ..@..@..@@.@..@.
    @@@@@.@@.@..@@..
    ..@...@..@..@...
    ..@..@...@.@..@.
    ..@@.@@@@@.@@@@.
    .@@.@....@..@...
    .@@..@...@...@..
    @.@...@@@@@@@@@.
    @.@...@...@.....
    ..@...@...@..@..
    ..@..@.@...@@...
    ..@..@..@..@@.@.
    ..@..@....@..@@.
    ..@.@..@@@....@.


# 0x5e2
0x35, 0x22:
    ...@............
    @..@..@@@@@@@...
    @..@........@...
    @..@..@@@@@@@...
    @..@........@...
    @..@..@@@@@@@...
    @..@............
    @..@@@@@@@@@@@@.
    @..@@....@....@.
    @..@..@@@@@@@.@.
    ..@...@..@..@...
    ..@...@..@..@...
    ..@...@..@..@...
    .@....@..@.@@...
    .@.......@......
    @........@......


# 0x5e3
0x35, 0x23:
    ...@............
    ...@....@@@@@...
    @@@@@@@.@...@...
    .@...@..@...@...
    ..@.@...@...@...
    @@@@@@@.@...@.@.
    ...@...@....@@@.
    ..@.............
    @@.@..@.@@@@@@..
    ...@@.@..@...@..
    ..@.@@...@...@..
    @@..@.@...@.@...
    ...@@.@....@....
    ..@.@..@..@.@...
    @@..@....@...@..
    ...@...@@.....@.


# 0x5e4
0x35, 0x24:
    ...@............
    ...@@@@@@@@@@@..
    ..@.............
    ..@.............
    .@..@@@@@@@@@...
    @...............
    ................
    .@@@@@@@@@@@@...
    ............@...
    ..@@.....@..@...
    ....@@..@...@...
    ......@@....@...
    ......@@....@...
    .....@..@...@.@.
    ...@@....@...@@.
    .@@...........@.


# 0x5e5
0x35, 0x25:
    .......@........
    .@.....@........
    ..@....@@@@@@@@.
    ...@..@.........
    .....@..........
    @.....@@@@@@@@..
    .@..............
    ..@.............
    ......@@@@@@@...
    ...@........@...
    ...@........@...
    ..@.........@...
    ..@.........@...
    .@..........@.@.
    @............@@.
    ..............@.


# 0x5e6
0x35, 0x26:
    ..@...@...@.....
    .@..@.@..@..@...
    ..@@..@...@@....
    ..@...@...@.....
    .@..@.@..@..@...
    @@@@@@.@.@@@@@..
    .....@.@...@.@..
    ........@...@...
    @@@@@@@@@@@@@@@.
    ........@...@...
    @@@@@@@..@..@...
    @..@..@...@.@...
    @@@@@@@....@..@.
    @..@..@...@.@.@.
    @@@@@@@..@...@@.
    .......@@.....@.


# 0x5e7
0x35, 0x27:
    ...@........@@..
    ...@....@@@@....
    ...@....@.......
    @@@@@@@.@.......
    ......@.@.......
    .....@..@.......
    .....@..@@@@@@@.
    ....@...@...@...
    ...@.@..@...@...
    ..@@..@.@...@...
    .@.@..@.@...@...
    @..@....@...@...
    ...@...@....@...
    ...@...@....@...
    ...@..@.....@...
    ...@.@......@...


# 0x5e8
0x35, 0x28:
    ..........@@....
    ..@@@@@@@@......
    .......@........
    @@@@@@@@@@@@@@@.
    .....@.@.@......
    ....@..@..@.....
    ..@@...@...@@...
    @@.....@.....@@.
    ...@@@@@@@@.....
    .........@......
    ........@.......
    @@@@@@@@@@@@@@@.
    .......@........
    .......@........
    .......@........
    .....@@@........


# 0x5e9
0x35, 0x29:
    ....@.......@...
    @@@@...@@..@....
    ..@......@@.....
    ..@......@.@....
    @@@@@...@...@...
    ..@...@@........
    ..@@....@.......
    .@@.@.@@@@@@@@@.
    .@@..@.@..@.....
    @.@...@...@.....
    @.@..@.@@@@@@@..
    ..@.@..@..@..@..
    ..@....@..@..@..
    ..@....@..@..@..
    ..@....@..@.@@..
    ..@.......@.....


# 0x5ea
0x35, 0x2a:
    ....@...........
    ...@....@@@@@@..
    @.@..........@..
    .@...@.......@..
    ..@.@........@..
    ...@.........@..
    ..@...@......@..
    @@@@@@@.@@@@@@..
    ...@..@.@.......
    ...@....@.......
    .@.@.@..@.......
    .@.@..@.@.......
    .@.@..@.@.......
    @..@..@.@.....@.
    @..@....@.....@.
    ...@.....@@@@@@.


# 0x5eb
0x35, 0x2b:
    ......@.....@...
    ..@.@.@.@...@...
    ..@.@.@.@..@....
    .@..@.@.@..@@@@.
    @...@@@@@.@..@..
    ...@..@...@..@..
    ..@.@@..@.@..@..
    .@@..@.@..@..@..
    @.@...@.@.@..@..
    ..@.@@@@@@.@.@..
    ..@...@..@.@.@..
    ..@.@.@.@..@@...
    ..@.@.@.@...@...
    ..@.@.@.@..@@...
    ..@.@.@...@..@..
    ..@...@..@....@.


# 0x5ec
0x35, 0x2c:
    ...@...@@@@@@@..
    ...@...@.....@..
    ...@...@.....@..
    .@@@@@.@@@@@@@..
    ...@...@.....@..
    ...@...@.....@..
    ...@...@@@@@@@..
    @@@@@@.@.....@..
    ...@...@.....@..
    ...@@..@@@@@@@..
    ..@..@...@.@....
    ..@..@...@.@....
    ..@..@..@..@....
    .@....@.@..@..@.
    .@....@@...@..@.
    @.....@.....@@@.


# 0x5ed
0x35, 0x2d:
    ................
    .@@@@@..@@@@@@..
    .............@..
    @@@@@@@......@..
    .............@..
    .@@@@@.......@..
    .............@..
    .@@@@@..@@@@@@..
    ........@.......
    .@@@@@..@.......
    .@...@..@.......
    .@...@..@.....@.
    .@...@..@.....@.
    .@...@..@.....@.
    .@@@@@..@.....@.
    .@.......@@@@@@.


# 0x5ee
0x35, 0x2e:
    .......@........
    ..@@@@@@@@@@@...
    ..@....@....@...
    ..@@@@@@@@@@@...
    .......@........
    @@@@@@@@@@@@@@@.
    ................
    ..@@@@@@@@@@@...
    ..@.........@...
    ..@@@@@@@@@@@...
    ..@.........@...
    ..@@@@@@@@@@@...
    ..@.........@...
    ..@@@@@@@@@@@...
    ...@.......@....
    .@@.........@@..


# 0x5ef
0x35, 0x2f:
    ...@............
    ...@....@@@@@@..
    .@@@@@.......@..
    ...@.........@..
    ...@.........@..
    @@@@@@@......@..
    ...@....@@@@@@..
    ...@....@.......
    .@.@....@.......
    .@.@@@@.@.......
    .@.@....@.....@.
    .@@@....@.....@.
    .@.@.....@@@@@@.
    .@..@...........
    @....@@.........
    @......@@@@@@@@.


# 0x5f0
0x35, 0x30:
    ...@......@.....
    ...@......@.....
    @@@@@@@...@.....
    ...@....@@@@@...
    @@@@@@@...@.@...
    @..@..@...@.@...
    @..@..@...@.@...
    @@@@@@@...@.@...
    @..@..@..@..@...
    @..@..@..@..@...
    @@@@@@@..@..@...
    ...@.....@..@...
    @@@@@@@.@...@...
    ...@....@...@.@.
    ...@...@....@.@.
    ...@..@......@@.


# 0x5f1
0x35, 0x31:
    ..@...@@@@@@@@@.
    @.@.@.@.......@.
    @.@.@.@...@...@.
    @.@.@..@@@@@@@..
    @.@.@.....@.....
    ..@....@@@@@@@..
    ..@....@..@..@..
    @@@@@@.@..@..@..
    .@..@..@@@@@@@..
    .@..@..@..@..@..
    .@..@..@..@..@..
    .@..@..@@@@@@@..
    .@..@@....@.....
    .@..@.@@@@@@@@@.
    .@.@......@.....
    @.........@.....


# 0x5f2
0x35, 0x32:
    ....@...........
    ...@.@..@@@@@...
    ..@...@.@...@...
    .@..@...@...@...
    @...@...@...@...
    .@@@@@@.@...@...
    .@....@.@...@...
    .@@@@@@.@...@...
    .@....@.@...@...
    .@@@@@@.@...@...
    .@......@...@...
    .@..@...@...@...
    .@...@..@...@...
    .@..@.@.@...@.@.
    .@@@...@....@.@.
    @@....@......@@.


# 0x5f3
0x35, 0x33:
    ..........@.....
    .@@@@@@...@.....
    .@..@..@@@@@@@..
    .@@@@@...@.@....
    .@..@...@...@...
    .@..@..@.....@..
    .@@@@@..........
    .@..@.@@@@@@@@@.
    .@..@.......@...
    .@@@@@@.@@@.@...
    ......@.@.@.@...
    @.@.@.@.@.@.@...
    @.@.@.@.@.@.@...
    @.@.@.@.@@@.@...
    @.....@.....@...
    ....@@.....@@...


# 0x5f4
0x35, 0x34:
    .......@........
    ......@.........
    ..@@@@@@@@@@@...
    ..@....@....@...
    ..@....@....@...
    ..@@@@@@@@@@@...
    ..@....@....@...
    ..@....@....@...
    ..@@@@@@@@@@@...
    .....@..@.......
    .....@..@..@....
    ....@...@.@.....
    ....@...@.@.@...
    ...@....@.@@@.@.
    ..@.....@.....@.
    .@.......@@@@@@.


# 0x5f5
0x35, 0x35:
    ....@...........
    ...@@@@@@@......
    ..@.....@.......
    .@@@@@@@@@@@@...
    @.@....@....@...
    ..@@@@@@@@@@@...
    ..@....@....@...
    ..@@@@@@@@@@@...
    .......@........
    .@@@@@@@@@@@@@..
    .@.....@.....@..
    .@@@@@@@@@@@@@..
    .@.....@.....@..
    .@@@@@@@@@@@@@..
    .......@......@.
    ........@@@@@@@.


# 0x5f6
0x35, 0x36:
    ...@.@....@.....
    ...@..@..@......
    ...@..@..@......
    ..@.@@@@@@@@@...
    ..@.....@...@...
    .@@....@...@....
    .@@....@@@@@@@..
    @.@...@......@..
    @.@...@.....@...
    ..@..@@@@@@@@@@.
    ..@..@........@.
    ..@.@.@.@.@.@.@.
    ..@...@.@.@.@.@.
    ..@...@.@.@.@.@.
    ..@..@..@.....@.
    ..@.........@@..


# 0x5f7
0x35, 0x37:
    ...@..@.....@...
    ...@...@...@....
    ...@@@@@@@@@@@@.
    ..@......@......
    ..@..@@@@@@@@@..
    .@@......@......
    .@@.@@@@@@@@@@@.
    @.@....@....@...
    @.@.@@@...@..@..
    ..@...@...@.....
    ..@.@@@@@@@@@@@.
    ..@...@...@..@..
    ..@...@.@.@.@...
    ..@.@@@@...@....
    ..@...@...@.@.@.
    ..@..@@.@@...@@.


# 0x5f8
0x35, 0x38:
    ..@.......@.....
    ..@.......@.....
    ..@.......@.....
    @@@@@.@@@@@@@@@.
    .@..@.....@.....
    .@..@.....@.....
    .@..@.....@.....
    .@..@.@@@@@@@@..
    .@..@..@.....@..
    .@..@..@.....@..
    @.@.@...@...@...
    ...@.....@.@....
    ...@@.....@.....
    ..@..@...@.@....
    .@......@...@...
    @.....@@.....@@.


# 0x5f9
0x35, 0x39:
    .......@........
    .......@........
    @@@@@@@@@@@@@@@.
    @.............@.
    @.............@.
    @..@@@@@@@@@..@.
    ...@.......@....
    ...@.......@....
    ...@@@@@@@@@....
    ...@.......@....
    ...@.......@....
    ...@@@@@@@@@....
    ...@.......@....
    ...@.......@....
    ...@.......@....
    @@@@@@@@@@@@@@@.


# 0x5fa
0x35, 0x3a:
    ....@.....@.....
    ....@@@@..@.@...
    ....@.....@..@..
    .@@@@@@@@.@.....
    .@..@...@.@@@@@.
    .@@@@@@.@@@.....
    .@..@.....@..@..
    .@...@@@..@..@..
    .@..@.@...@.@...
    .@@.@.@.@.@.@...
    .@@.@.@.@..@....
    .@.@@.@.@..@....
    .@.@@.@...@.@...
    .@..@.@@.@..@.@.
    .@@@@@..@....@@.
    @......@......@.


# 0x5fb
0x35, 0x3b:
    ..@.......@.....
    ..@.......@.....
    ..@...@@@@@@@@@.
    @@@@@.....@.....
    ..@.......@.....
    ..@.......@.....
    ..@...@@@@@@@@..
    ..@....@.....@..
    ..@@@..@.....@..
    @@@.....@...@...
    ..@.....@...@...
    ..@......@.@....
    ..@.......@.....
    ..@......@.@....
    ..@....@@...@...
    .@@..@@......@@.


# 0x5fc
0x35, 0x3c:
    ..@.@...........
    ..@.@..@.@@@@@..
    ..@.@@@......@..
    @@@.@...@.@.@...
    ..@.@@@@@..@....
    ..@.........@...
    ..@..@..@@@@@@@.
    ..@..@@@...@..@.
    ..@.@.@....@.@..
    @@@...@....@....
    ..@.@@@@.@.@@@..
    ..@...@..@.@....
    ..@..@.@.@.@....
    ..@..@.@.@@@....
    ..@.@...@..@....
    .@@.@..@....@@@.


# 0x5fd
0x35, 0x3d:
    ..@...@...@.....
    ..@...@...@.....
    ..@...@..@......
    @@@@@@@@.@@@@@@.
    ..@...@..@.@..@.
    ..@@@@@.@..@..@.
    ..@...@.@..@.@..
    ..@...@....@....
    ..@@@@@...@.@...
    ..@...@...@.@...
    ..@...@...@.@...
    @@@@@@@@.@..@...
    .........@...@..
    ..@..@..@....@..
    .@....@.@.....@.
    @......@......@.


# 0x5fe
0x35, 0x3e:
    ...@..@.....@...
    .@.@...@...@....
    .@.@.@@@@@@@@@@.
    .@@@@....@......
    @..@..@@@@@@@@..
    @..@.....@......
    ...@.@@@@@@@@@@.
    ...@....@...@...
    ...@@.@@..@..@..
    @@@@...@..@.....
    ...@.@@@@@@@@@@.
    ...@...@...@....
    ...@...@@..@.@..
    ...@.@@@....@.@.
    ...@...@...@.@@.
    ...@..@@.@@...@.


# 0x5ff
0x35, 0x3f:
    .@..............
    .@..@@.@@@@@@@..
    .@@@........@...
    .@....@..@.@....
    .@....@...@.....
    ..@@@@.....@....
    .@....@@@@@@@@@.
    .@@@@@....@...@.
    .@.@......@..@..
    @..@....@.@.....
    @@@@@@@.@.@@@@..
    ...@....@.@.....
    ..@.@..@..@.....
    ..@..@.@@.@.....
    .@...@.@.@@.....
    @.....@....@@@@.


# 0x600
0x35, 0x40:
    ...@........@@..
    ...@....@@@@....
    ...@....@..@....
    @@@@@@..@..@....
    .....@..@..@....
    ....@...@..@....
    ...@....@@@@@@@.
    ..@@....@..@....
    .@.@@...@..@....
    @..@.@..@..@....
    ...@....@..@....
    ...@....@...@...
    ...@....@...@.@.
    ...@....@.@.@.@.
    ...@....@@...@@.
    ...@..@@......@.


# 0x601
0x35, 0x41:
    ....@.....@.....
    .....@...@......
    .@@@@@@@@@@@@@..
    .......@........
    ..@@@@@@@@@@@...
    .......@........
    @@@@@@@@@@@@@@@.
    .....@@..@......
    .@@@@....@..@...
    ....@....@...@..
    @@@@@@@@@@@@@@@.
    ....@.....@.....
    ....@@@...@.@...
    .@@@@......@..@.
    ....@....@@.@.@.
    ...@@..@@....@@.


# 0x602
0x35, 0x42:
    ..@...@.....@...
    ..@....@...@....
    ..@..@@@@@@@@@@.
    @@@@@....@......
    @.@.@.@@@@@@@@..
    @.@.@....@......
    @.@.@@@@@@@@@@@.
    @.@.@...@...@...
    @.@.@.@@..@..@..
    @@@@@..@..@.....
    ..@..@@@@@@@@@@.
    ..@....@...@....
    ..@.@..@.@.@.@..
    ..@@@.@@@...@.@.
    @@..@..@...@.@@.
    ......@@.@@...@.


# 0x603
0x35, 0x43:
    ..........@.....
    .@@@@.....@.....
    ......@@@@@@@@@.
    @@@@@.@.......@.
    ......@.......@.
    .@@@@...@@@@@...
    ........@...@...
    .@@@@...@...@...
    ........@@@@@...
    .@@@@...@...@...
    .@..@...@...@...
    .@..@...@@@@@...
    .@..@...@...@...
    .@..@...@...@...
    .@@@@...@...@...
    .@....@@@@@@@@@.


# 0x604
0x35, 0x44:
    .......@.....@..
    .@@@@...@...@...
    ......@@@@@@@@@.
    @@@@@@....@.....
    .......@@@@@@@..
    .@@@@.....@.....
    ......@@@@@@@@@.
    .@@@@...@...@...
    ......@@..@..@..
    .@@@@..@..@.....
    .@..@@@@@@@@@@@.
    .@..@..@...@....
    .@..@..@@@.@.@..
    .@..@@@@....@.@.
    .@@@@..@...@.@@.
    .@....@@.@@...@.


# 0x605
0x35, 0x45:
    ..@....@........
    ..@....@........
    ..@....@@@@@@@@.
    @@@@@.@.......@.
    ..@..@...@....@.
    ..@.@.@..@..@.@.
    ..@....@.@.@..@.
    ..@......@....@.
    ..@@@.@@@@@@@.@.
    @@@......@....@.
    ..@.....@@@...@.
    ..@....@.@.@..@.
    ..@...@..@..@.@.
    ..@..@...@....@.
    ..@......@...@..
    .@@......@.@@...


# 0x606
0x35, 0x46:
    .....@....@.....
    @@@@@@@@@@@@@@@.
    .....@....@.....
    ...@.@....@.....
    ...@............
    ...@@@@@@@@@@@..
    ..@....@.....@..
    .@..@..@..@..@..
    @....@.@.@...@..
    ..@@@@@@@@@@.@..
    ......@@@....@..
    .....@.@.@...@..
    ....@..@..@..@..
    ...@...@.....@..
    ..@....@....@...
    .......@..@@....


# 0x607
0x35, 0x47:
    ..@.@....@......
    @@@@@@@..@......
    ..@.@...@.......
    ..@.@...@@@@@@@.
    ..@@@..@......@.
    ...@..@...@...@.
    .@@@@@.@..@..@@.
    .@.@.@..@.@.@.@.
    .@.@.@.@@@@@@@@.
    .@@@@@....@...@.
    ...@.....@@@..@.
    ...@....@.@.@.@.
    @@@@@@.@..@..@@.
    ...@..@...@...@.
    ...@......@..@..
    ...@......@.@...


# 0x608
0x35, 0x48:
    .......@........
    .......@........
    .......@........
    @@@@@@@@@@@@@@@.
    .......@........
    .......@........
    .......@........
    ..@@@@@@@@@@@...
    ................
    ..@@@@@@@@@@@...
    ..@.........@...
    ..@.........@...
    ..@.........@...
    ..@.........@...
    ..@@@@@@@@@@@...
    ..@.........@...


# 0x609
0x35, 0x49:
    .........@......
    .........@......
    @@@@@...@.......
    @...@...@@@@@@@.
    @...@..@........
    @...@.@.........
    @...@@..@@@@@...
    @...@.......@...
    @...@......@....
    @...@.....@.....
    @...@....@......
    @...@...@.......
    @@@@@..@......@.
    @.....@.......@.
    ......@.......@.
    .......@@@@@@@@.


# 0x60a
0x35, 0x4a:
    ......@.........
    .....@@@@.@@@@@.
    @@@@..@....@..@.
    @..@..@....@..@.
    @..@.@@@@..@..@.
    @..@..@....@..@.
    @..@..@.@.@...@.
    @..@..@@..@...@.
    @..@.@@..@..@@..
    @@@@....@.......
    @.......@.......
    ..@@@@@@@@@@@@@.
    ........@.......
    .......@.@......
    .....@@...@@....
    ..@@@.......@@@.


# 0x60b
0x35, 0x4b:
    ...@......@.....
    ...@......@.....
    ...@......@.....
    ...@..@@@@@@@@@.
    @@@@@@....@.....
    ...@......@.....
    ..@@......@.....
    ..@@@..@@@@@@@..
    .@.@.@..........
    .@.@...@@@@@@@..
    @..@...@.....@..
    @..@...@.....@..
    ...@...@.....@..
    ...@...@.....@..
    ...@...@@@@@@@..
    ...@...@.....@..


# 0x60c
0x35, 0x4c:
    ..@...@@@@@@@...
    ..@.....@..@....
    ..@......@@.....
    @@@@@.@@@@@@@@@.
    ..@.....@.@...@.
    ..@@...@..@..@..
    .@@.@.@..@@.....
    .@@..@..........
    @.@..@@@@@@@@@@.
    @.@..@..@.@.@.@.
    @.@..@.@..@@@.@.
    ..@..@@.......@.
    ..@..@..@@@@..@.
    ..@..@..@..@..@.
    ..@..@..@@@@..@.
    ..@..@.......@@.


# 0x60d
0x35, 0x4d:
    ..........@.....
    .@@@@.....@.....
    ..........@.....
    @@@@@.@@@@@@@@@.
    ..........@.....
    .@@@@.....@.....
    ..........@.....
    .@@@@..@@@@@@@..
    ................
    .@@@@..@@@@@@@..
    .@..@..@.....@..
    .@..@..@.....@..
    .@..@..@.....@..
    .@..@..@.....@..
    .@@@@..@@@@@@@..
    .@.....@.....@..


# 0x60e
0x35, 0x4e:
    ..........@.....
    .@@@@@@...@.....
    ...@......@.....
    ...@......@@@@@.
    ...@......@.....
    ..@.......@.....
    ..@.......@.....
    .@@@@@....@.....
    @.@..@.@@@@@@@..
    ..@..@.@.....@..
    ..@..@.@.....@..
    ..@..@.@.....@..
    ..@..@.@.....@..
    ..@@@@.@.....@..
    ..@....@@@@@@@..
    .......@.....@..


# 0x60f
0x35, 0x4f:
    ...@.....@......
    ...@.....@......
    ...@....@.......
    @@@@@@..@@@@@@..
    ...@...@..@.....
    ...@..@...@.....
    ..@@......@.....
    ..@@@.....@.....
    .@.@.@....@.....
    .@.@..@@@@@@@@@.
    @..@......@.....
    @..@......@.....
    ...@......@.....
    ...@......@.....
    ...@......@.....
    ...@......@.....


# 0x610
0x35, 0x50:
    .........@@@....
    ..@@@@@@@.......
    .......@........
    @@@@@@@@@@@@@@@.
    .....@.@.@......
    ....@..@..@.....
    ..@@...@...@@...
    @@....@.@....@@.
    .....@...@......
    ...@@..@..@@....
    @@@....@....@@@.
    ...@@..@..@@....
    ......@@@.......
    ....@@.@.@@.....
    ..@@...@...@@...
    .....@@@........


# 0x611
0x35, 0x51:
    ...@............
    ...@.....@@@@@@.
    .@@@@@@..@....@.
    ...@.....@....@.
    ...@.....@....@.
    ...@.....@....@.
    ...@.....@....@.
    @@@@@@@@.@....@.
    ...@.....@....@.
    ...@.....@....@.
    ..@..@...@....@.
    ..@...@..@....@.
    .@....@..@....@.
    .@..@@.@.@..@@..
    @@@@...@.@......
    .........@......


# 0x612
0x35, 0x52:
    .......@........
    @@@@@@@@@@@@@@@.
    @.....@.......@.
    @....@@@@@@...@.
    @...@.....@...@.
    ...@.@...@......
    ..@...@.@.......
    .......@........
    .....@@.@@......
    ...@@.....@@....
    @@@.........@@@.
    ...@@@@@@@@@....
    ...@.......@....
    ...@.......@....
    ...@.......@....
    ...@@@@@@@@@....


# 0x613
0x35, 0x53:
    .......@........
    .@@@@..@...@@@@.
    .@..@..@...@..@.
    .@..@.@@@..@..@.
    .@..@..@...@..@.
    .@@@@..@...@..@.
    .@..@..@...@..@.
    .@..@@@@@@.@..@.
    .@..@..@...@..@.
    .@@@@..@...@..@.
    .@..@..@...@..@.
    .@..@.@....@..@.
    .@..@.@..@.@..@.
    .@..@.@.@@.@.@@.
    .@..@@@@.@.@....
    @..@@......@....


# 0x614
0x35, 0x54:
    ......@.........
    ......@@@@@@@...
    ......@.........
    .@@@@@@@@@@@@@@.
    .@....@.......@.
    .@....@@@@@@@.@.
    .@.@@@@.........
    .@....@......@..
    .@.....@@@@@@@..
    .@..............
    .@..@@@@@@@@@@..
    .@..@...........
    .@..@@@@@@@@@...
    .@..@...........
    .@..@@@@@@@@@@..
    @...@...........


# 0x615
0x35, 0x55:
    .....@.......@..
    @.....@.....@...
    .@.....@...@....
    ..@.............
    ....@@@@@@@@@@@.
    .........@......
    .....@...@...@..
    @@@..@...@...@..
    ..@..@...@...@..
    ..@..@...@...@..
    ..@..@@@@@@@@@..
    ..@......@......
    ..@......@......
    ..@.....@.......
    .@.@...@........
    @...@@@@@@@@@@@.


# 0x616
0x35, 0x56:
    ..........@.....
    ........@@......
    .....@@@........
    ..@@@...........
    ..@.............
    ..@.............
    ..@@@@@@@@@@@@..
    ..@.......@.....
    ..@.......@.....
    ..@.......@.....
    ..@.......@.....
    ..@.......@.....
    ..@.......@.....
    ..@.......@.....
    @@@@@@@@@@@@@@@.
    ................


# 0x617
0x35, 0x57:
    ....@...........
    ....@...........
    ....@@@@@@@.....
    ....@.....@.....
    ...@......@.....
    ...@.....@......
    ..@......@......
    .@......@.......
    .......@.@......
    .......@.@......
    ......@...@.....
    .....@....@.....
    ....@......@....
    ...@........@...
    ..@..........@..
    .@............@.


# 0x618
0x35, 0x58:
    ....@...@.......
    ....@...@.......
    ...@....@.......
    ...@....@.......
    ..@..@@@@@@@@...
    ..@.....@...@...
    .@@.....@...@...
    @.@.....@...@...
    ..@.....@...@...
    ..@....@....@...
    ..@....@....@...
    ..@....@....@...
    ..@...@.....@.@.
    ..@...@.....@.@.
    ..@..@......@.@.
    ..@.@........@@.


# 0x619
0x35, 0x59:
    ....@....@......
    ....@....@......
    ...@.....@......
    ...@.....@......
    ..@.@@@@@@@@@@@.
    ..@......@......
    .@@......@......
    @.@.....@@@.....
    ..@....@.@.@....
    ..@....@.@.@....
    ..@...@..@..@...
    ..@...@..@..@...
    ..@..@...@...@..
    ..@..@...@...@..
    ..@.@....@....@.
    ..@......@......


# 0x61a
0x35, 0x5a:
    ................
    .@@@@@@@@@@@....
    .....@.....@....
    .....@....@.....
    .....@....@.....
    .....@...@......
    .....@...@@@@...
    ....@.@.....@...
    ....@.@....@....
    ....@..@...@....
    ...@....@.@.....
    ...@.....@......
    ..@.....@.@.....
    ..@....@...@....
    .@....@.....@...
    @...@@.......@@.


# 0x61b
0x35, 0x5b:
    ................
    .....@@@@@@@....
    @@@@@..@...@....
    @...@..@...@....
    @...@..@..@.....
    @...@..@..@@@@..
    @...@..@.....@..
    @...@..@.....@..
    @...@.@.@....@..
    @...@.@.@...@...
    @...@.@..@..@...
    @@@@@.@..@.@....
    @....@....@.....
    .....@...@.@....
    ....@...@...@...
    ...@..@@.....@@.


# 0x61c
0x35, 0x5c:
    .......@........
    .......@........
    @@@@@@@@@@@@@@@.
    @.............@.
    @..@@@@@@@@@..@.
    ...@.......@....
    ...@.......@....
    ...@@@@@@@@@....
    .......@........
    ......@.........
    ..@@@@@@@@@@@...
    ..@.........@...
    ..@.........@...
    ..@.........@...
    ..@@@@@@@@@@@...
    ..@.........@...


# 0x61d
0x35, 0x5d:
    ................
    ..@@@@@@@@@@@...
    ............@...
    ............@...
    ............@...
    ..@@@@@@@@@@@...
    ..@.............
    ..@.............
    .@..............
    .@@@@@@@@@@@@@..
    .@...........@..
    .............@..
    .............@..
    .............@..
    ............@...
    .........@@@....


# 0x61e
0x35, 0x5e:
    .....@..........
    ....@@@@@@@@....
    ...@......@.....
    ..@......@......
    ....@@@@@@@@@...
    ............@...
    ............@...
    ...@@@@@@@@@@...
    ............@...
    ............@...
    ....@@@@@@@@@...
    ................
    ..@.@..@....@...
    ..@.@...@....@..
    .@..@......@..@.
    @....@@@@@@@..@.


# 0x61f
0x35, 0x5f:
    ...@.@....@.....
    ...@..@...@.....
    ...@.....@......
    @@@@@@@..@@@@@@.
    ...@.....@..@...
    @..@..@.@...@...
    .@.@..@.@...@...
    .@.@.@.@.@..@...
    ...@.....@.@....
    ...@.....@.@....
    ..@@@.....@.....
    .@.@.@....@.....
    @..@..@..@.@....
    ...@....@...@...
    ...@...@.....@..
    ...@..@.......@.


# 0x620
0x35, 0x60:
    ...@............
    ...@..@@@@@@@@@.
    ...@.....@......
    @@@@@@...@......
    ...@.....@......
    ...@....@.......
    ..@@@...@@@@@@..
    ..@@.@.@.....@..
    .@.@...@.....@..
    .@.@..@......@..
    @..@.........@..
    @..@.........@..
    ...@.........@..
    ...@.........@..
    ...@........@...
    ...@.....@@@....


# 0x621
0x35, 0x61:
    .......@..@.....
    .......@...@....
    .......@........
    @@@@@@@@@@@@@@@.
    .......@........
    ..@....@.....@..
    ...@...@.....@..
    ....@..@@...@...
    ....@..@.@.@....
    .......@.@......
    .....@.@..@.....
    ....@..@...@....
    ...@...@....@...
    .@@....@.....@..
    .......@........
    ......@@........


# 0x622
0x35, 0x62:
    ................
    .@..@@@@@@@@@...
    ..@....@....@...
    .......@...@....
    .......@...@....
    @......@..@@@@..
    .@....@.@....@..
    ......@.@....@..
    ......@..@...@..
    ..@...@..@..@...
    ..@..@....@.@...
    ..@..@.....@....
    .@..@......@....
    .@..@.....@.@...
    @..@....@@...@..
    ..@...@@......@.


# 0x623
0x35, 0x63:
    .........@......
    .@.......@......
    ..@......@......
    .....@@@@@@@@@..
    ................
    @....@......@...
    .@....@.....@...
    ......@.....@...
    ......@.....@...
    ..@....@...@....
    ..@....@...@....
    ..@....@...@....
    .@.....@..@.....
    .@.....@..@.....
    @...@@@@@@@@@@@.
    ................


# 0x624
0x35, 0x64:
    ......@.........
    .....@@@@.......
    ....@...@.......
    ...@...@.@......
    .@@...@...@.....
    .....@.....@....
    ...@@.......@...
    @@@....@.....@@.
    .......@........
    ..@....@....@...
    ...@..@.@..@....
    ......@.@.......
    .....@...@......
    ....@.....@.....
    ..@@.......@@...
    @@...........@@.


# 0x625
0x35, 0x65:
    .........@..@...
    @@@@@....@...@..
    ..@......@......
    ..@..@@@@@@@@@@.
    ..@......@......
    ..@..@...@......
    ..@...@..@...@..
    @@@@@..@.@@.@...
    ..@....@.@.@....
    ..@......@.@....
    ..@......@.@....
    ..@.@..@.@..@...
    ..@@..@..@..@...
    @@...@...@...@..
    ....@....@....@.
    ........@@......


# 0x626
0x35, 0x66:
    .......@........
    .......@........
    @@@@@@@@@@@@@@@.
    @...@...@.....@.
    @...@...@.....@.
    ...@....@.......
    ..@.....@....@..
    @@...@...@@@@@..
    .....@..........
    .@@@@@@@@@@.....
    .....@....@.....
    ....@.....@.....
    ....@.....@...@.
    ...@......@...@.
    ..@.......@...@.
    @@.........@@@@.


# 0x627
0x35, 0x67:
    .......@........
    @@@@@@@@@@@@@@@.
    @....@..@.....@.
    @..@@...@@@@@.@.
    .@@.............
    ....@...@@@@@...
    .@@@@@@.....@...
    .@....@.....@...
    .@@@@@@.@@@@@...
    .@....@.@.......
    .@@@@@@.@.......
    .@...@@.@@@@@@..
    @@@@@.@......@..
    ...@..@......@..
    ..@...@......@..
    @....@@...@@@...


# 0x628
0x35, 0x68:
    ..@......@......
    ..@......@......
    ..@@@@@..@@@@@@.
    .@..@...@..@....
    @....@......@...
    ..@@@@@@@@@.....
    ....@.....@.....
    ....@.....@.....
    ....@....@@@@...
    ....@@......@...
    ...@..@....@....
    ...@...@..@.....
    ...@....@@......
    ..@....@.@......
    .@...@@...@@....
    @..@@.......@@@.


# 0x629
0x35, 0x69:
    ...@............
    ..@...@@@@@@@...
    .@......@...@...
    @...@...@..@....
    .@.@....@..@....
    ..@.....@.@.....
    .@...@..@.@@@@..
    @@@@@@..@....@..
    ..@..@.@.@...@..
    ..@....@.@...@..
    @.@.@..@..@.@...
    @.@.@.@...@.@...
    @.@...@....@....
    @.@..@....@.@...
    ..@..@...@...@..
    ..@.@...@.....@.


# 0x62a
0x35, 0x6a:
    ....@.......@...
    ...@....@...@...
    ..@.....@...@...
    .@...@..@...@...
    ..@.@...@...@...
    ...@....@...@...
    ..@..@..@...@...
    @@@@@@..@...@...
    ...@..@.@...@...
    .@.@....@...@@@.
    .@.@.@..@@@@@...
    .@.@.@.@@...@...
    .@.@.@......@...
    @..@.@......@...
    ...@........@...
    ...@........@...


# 0x62b
0x35, 0x6b:
    ...@......@.....
    ..@......@.@....
    .@......@...@...
    @...@..@.....@..
    .@.@..@.......@.
    ..@.............
    .@.....@@@@@@@..
    @...@...........
    @@@@@...........
    ..@..@.@@@@@@@..
    @.@....@.....@..
    @.@.@..@.....@..
    @.@.@..@.....@..
    @.@..@.@.....@..
    ..@....@.....@..
    ..@....@@@@@@@..


# 0x62c
0x35, 0x6c:
    ................
    .@...@@@@@@@@@..
    .@...@.......@..
    .@...@.......@..
    .@...@.......@..
    .@...@.......@..
    .@...@.......@..
    .@...@@@@@@@@@..
    .@...@.......@..
    .@...@.......@..
    .@...@.......@..
    .@...@.......@..
    .@...@.......@..
    .@...@.......@..
    .@...@@@@@@@@@..
    .@...@.......@..


# 0x62d
0x35, 0x6d:
    ...@...@........
    ...@...@........
    ...@...@........
    ...@@@@@@@@@@@..
    ..@....@........
    ..@....@........
    .@.....@........
    .......@........
    .......@........
    @@@@@@@@@@@@@@@.
    .......@........
    .......@........
    .......@........
    .......@........
    .......@........
    .......@........


